<?xml version="1.0" encoding="utf-8"?>
<!-- Generator: Adobe Illustrator 21.0.2, SVG Export Plug-In . SVG Version: 6.00 Build 0)  -->
<svg version="1.1" id="Layer_1" xmlns="http://www.w3.org/2000/svg" xmlns:xlink="http://www.w3.org/1999/xlink" x="0px" y="0px"
	 viewBox="0 0 400 400" style="enable-background:new 0 0 400 400;" xml:space="preserve">
<style type="text/css">
	.st0{clip-path:url(#SVGID_2_);fill:#EFBF26;}
	.st1{clip-path:url(#SVGID_4_);fill:#2D3C5B;}
	.st2{clip-path:url(#SVGID_6_);fill:#BED8EC;}
	.st3{clip-path:url(#SVGID_8_);fill:#ECF6FF;}
	.st4{clip-path:url(#SVGID_10_);fill:#D7531D;}
	.st5{clip-path:url(#SVGID_12_);fill:#D5ECFF;}
	.st6{clip-path:url(#SVGID_14_);fill:#868B9D;}
	.st7{clip-path:url(#SVGID_16_);fill:#384D86;}
	.st8{clip-path:url(#SVGID_18_);fill:#384D86;}
	.st9{clip-path:url(#SVGID_20_);fill:#384D86;}
	.st10{clip-path:url(#SVGID_22_);fill:#384D86;}
	.st11{clip-path:url(#SVGID_24_);fill:#384D86;}
	.st12{clip-path:url(#SVGID_26_);fill:#384D86;}
	.st13{clip-path:url(#SVGID_28_);fill:#868B9D;}
	.st14{clip-path:url(#SVGID_30_);fill:#EFBF26;}
	.st15{clip-path:url(#SVGID_32_);fill:#EFBF26;}
	.st16{clip-path:url(#SVGID_34_);fill:#14AAB1;}
</style>
<g>
	<g>
		<defs>
			<rect id="SVGID_1_" x="6.4" y="5.3" width="386.7" height="386.7"/>
		</defs>
		<clipPath id="SVGID_2_">
			<use xlink:href="#SVGID_1_"  style="overflow:visible;"/>
		</clipPath>
		<path class="st0" d="M199.7,392c106.8,0,193.4-86.6,193.4-193.4S306.5,5.2,199.7,5.2S6.4,91.9,6.4,198.6
			C6.4,305.4,92.9,392,199.7,392"/>
	</g>
</g>
<g>
	<g>
		<defs>
			<circle id="SVGID_3_" cx="199.7" cy="198.6" r="193.4"/>
		</defs>
		<clipPath id="SVGID_4_">
			<use xlink:href="#SVGID_3_"  style="overflow:visible;"/>
		</clipPath>
		<path class="st1" d="M320,147.5c0-63.7-51.6-115.3-115.3-115.3S89.5,83.8,89.5,147.5c0,0.8,0,1.5,0,2.3l0,0v172.9H320V149.8l0,0
			C320,149,320,148.3,320,147.5"/>
	</g>
	<g>
		<defs>
			<circle id="SVGID_5_" cx="199.7" cy="198.6" r="193.4"/>
		</defs>
		<clipPath id="SVGID_6_">
			<use xlink:href="#SVGID_5_"  style="overflow:visible;"/>
		</clipPath>
		<rect x="88.9" y="322.7" class="st2" width="230.5" height="34.6"/>
	</g>
	<g>
		<defs>
			<circle id="SVGID_7_" cx="199.7" cy="198.6" r="193.4"/>
		</defs>
		<clipPath id="SVGID_8_">
			<use xlink:href="#SVGID_7_"  style="overflow:visible;"/>
		</clipPath>
		<rect x="88.9" y="357.3" class="st3" width="230.5" height="65.7"/>
	</g>
	<g>
		<defs>
			<circle id="SVGID_9_" cx="199.7" cy="198.6" r="193.4"/>
		</defs>
		<clipPath id="SVGID_10_">
			<use xlink:href="#SVGID_9_"  style="overflow:visible;"/>
		</clipPath>
		<path class="st4" d="M268.7,140.6c0,35.3-28.6,64-64,64c-35.3,0-64-28.6-64-64s28.6-64,64-64C240.1,76.6,268.7,105.3,268.7,140.6"
			/>
	</g>
	<g>
		<defs>
			<circle id="SVGID_11_" cx="199.7" cy="198.6" r="193.4"/>
		</defs>
		<clipPath id="SVGID_12_">
			<use xlink:href="#SVGID_11_"  style="overflow:visible;"/>
		</clipPath>
		<path class="st5" d="M244.7,140.6c0,22.1-17.9,40-40,40s-40-17.9-40-40s17.9-40,40-40S244.7,118.5,244.7,140.6"/>
	</g>
	<g>
		<defs>
			<circle id="SVGID_13_" cx="199.7" cy="198.6" r="193.4"/>
		</defs>
		<clipPath id="SVGID_14_">
			<use xlink:href="#SVGID_13_"  style="overflow:visible;"/>
		</clipPath>
		<path class="st6" d="M219.4,140.6c0,8.1-6.6,14.7-14.7,14.7s-14.7-6.6-14.7-14.7s6.6-14.7,14.7-14.7S219.4,132.5,219.4,140.6"/>
	</g>
	<g>
		<defs>
			<circle id="SVGID_15_" cx="199.7" cy="198.6" r="193.4"/>
		</defs>
		<clipPath id="SVGID_16_">
			<use xlink:href="#SVGID_15_"  style="overflow:visible;"/>
		</clipPath>
		<path class="st7" d="M122.3,225.3c0,2.9-2.3,5.2-5.2,5.2c-2.9,0-5.2-2.3-5.2-5.2s2.3-5.2,5.2-5.2S122.3,222.4,122.3,225.3"/>
	</g>
	<g>
		<defs>
			<circle id="SVGID_17_" cx="199.7" cy="198.6" r="193.4"/>
		</defs>
		<clipPath id="SVGID_18_">
			<use xlink:href="#SVGID_17_"  style="overflow:visible;"/>
		</clipPath>
		<path class="st8" d="M140.8,225.3c0,2.9-2.3,5.2-5.2,5.2s-5.2-2.3-5.2-5.2s2.3-5.2,5.2-5.2S140.8,222.4,140.8,225.3"/>
	</g>
	<g>
		<defs>
			<circle id="SVGID_19_" cx="199.7" cy="198.6" r="193.4"/>
		</defs>
		<clipPath id="SVGID_20_">
			<use xlink:href="#SVGID_19_"  style="overflow:visible;"/>
		</clipPath>
		<path class="st9" d="M131.6,212.6c0,2.9-2.3,5.2-5.2,5.2c-2.9,0-5.2-2.3-5.2-5.2s2.3-5.2,5.2-5.2
			C129.2,207.4,131.6,209.8,131.6,212.6"/>
	</g>
	<g>
		<defs>
			<circle id="SVGID_21_" cx="199.7" cy="198.6" r="193.4"/>
		</defs>
		<clipPath id="SVGID_22_">
			<use xlink:href="#SVGID_21_"  style="overflow:visible;"/>
		</clipPath>
		<path class="st10" d="M279.1,225.3c0,2.9-2.3,5.2-5.2,5.2s-5.2-2.3-5.2-5.2s2.3-5.2,5.2-5.2S279.1,222.4,279.1,225.3"/>
	</g>
	<g>
		<defs>
			<circle id="SVGID_23_" cx="199.7" cy="198.6" r="193.4"/>
		</defs>
		<clipPath id="SVGID_24_">
			<use xlink:href="#SVGID_23_"  style="overflow:visible;"/>
		</clipPath>
		<path class="st11" d="M297.5,225.3c0,2.9-2.3,5.2-5.2,5.2c-2.9,0-5.2-2.3-5.2-5.2s2.3-5.2,5.2-5.2S297.5,222.4,297.5,225.3"/>
	</g>
	<g>
		<defs>
			<circle id="SVGID_25_" cx="199.7" cy="198.6" r="193.4"/>
		</defs>
		<clipPath id="SVGID_26_">
			<use xlink:href="#SVGID_25_"  style="overflow:visible;"/>
		</clipPath>
		<path class="st12" d="M288.3,212.6c0,2.9-2.3,5.2-5.2,5.2s-5.2-2.3-5.2-5.2s2.3-5.2,5.2-5.2S288.3,209.8,288.3,212.6"/>
	</g>
	<g>
		<defs>
			<circle id="SVGID_27_" cx="199.7" cy="198.6" r="193.4"/>
		</defs>
		<clipPath id="SVGID_28_">
			<use xlink:href="#SVGID_27_"  style="overflow:visible;"/>
		</clipPath>
		<path class="st13" d="M275.1,275.4c0,10.1-8.3,18.4-18.4,18.4h-105c-10.1,0-18.4-8.3-18.4-18.4v-4.6c0-10.1,8.3-18.4,18.4-18.4
			h104.9c10.1,0,18.4,8.3,18.4,18.4v4.6H275.1z"/>
	</g>
	<g>
		<defs>
			<circle id="SVGID_29_" cx="199.7" cy="198.6" r="193.4"/>
		</defs>
		<clipPath id="SVGID_30_">
			<use xlink:href="#SVGID_29_"  style="overflow:visible;"/>
		</clipPath>
		<path class="st14" d="M171.3,271.7c0,7,5.7,12.7,12.7,12.7s12.7-5.7,12.7-12.7c0-0.1,0-0.2,0-0.3l0,0v-19h-25.4v19l0,0
			C171.3,271.5,171.3,271.6,171.3,271.7"/>
	</g>
	<g>
		<defs>
			<circle id="SVGID_31_" cx="199.7" cy="198.6" r="193.4"/>
		</defs>
		<clipPath id="SVGID_32_">
			<use xlink:href="#SVGID_31_"  style="overflow:visible;"/>
		</clipPath>
		<path class="st15" d="M211.7,271.7c0,7,5.7,12.7,12.7,12.7s12.7-5.7,12.7-12.7c0-0.1,0-0.2,0-0.3v-19h-25.4v19l0,0
			C211.7,271.5,211.7,271.6,211.7,271.7"/>
	</g>
	<g>
		<defs>
			<circle id="SVGID_33_" cx="199.7" cy="198.6" r="193.4"/>
		</defs>
		<clipPath id="SVGID_34_">
			<use xlink:href="#SVGID_33_"  style="overflow:visible;"/>
		</clipPath>
		<polygon class="st16" points="224.9,345.7 205.9,356.6 186.9,345.7 186.9,371.1 205.9,360 224.9,371.1 		"/>
	</g>
</g>
</svg>
