<svg width="1545" height="337" viewBox="0 0 1545 337" fill="none" xmlns="http://www.w3.org/2000/svg">
<g clip-path="url(#clip0)">
<path d="M170.105 88.0098H168.246V85.002H170.707L171.527 80.9688H168.246V77.9473H172.143L173.223 72.6152H176.285L175.205 77.9473H178.227L179.279 72.6152H182.451L181.357 77.9473H183.244V80.9688H180.742L179.922 85.002H183.244V88.0098H179.307L178.227 93.3418H175.178L176.23 88.0098H173.195L172.115 93.3418H169.025L170.105 88.0098ZM174.604 80.9688L173.797 85.002H176.832L177.625 80.9688H174.604ZM184.643 87.6816L188.362 87.2305C188.48 88.1784 188.799 88.903 189.319 89.4043C189.838 89.9056 190.467 90.1562 191.206 90.1562C191.999 90.1562 192.664 89.8555 193.202 89.2539C193.749 88.6523 194.022 87.8411 194.022 86.8203C194.022 85.8542 193.762 85.0885 193.243 84.5234C192.723 83.9583 192.09 83.6758 191.342 83.6758C190.85 83.6758 190.262 83.7715 189.579 83.9629L190.002 80.832C191.042 80.8594 191.834 80.6361 192.381 80.1621C192.928 79.679 193.202 79.041 193.202 78.248C193.202 77.5736 193.001 77.0358 192.6 76.6348C192.199 76.2337 191.666 76.0332 191 76.0332C190.344 76.0332 189.784 76.2611 189.319 76.7168C188.854 77.1725 188.571 77.8379 188.471 78.7129L184.93 78.1113C185.176 76.8991 185.545 75.9329 186.038 75.2129C186.539 74.4837 187.232 73.9141 188.116 73.5039C189.009 73.0846 190.007 72.875 191.11 72.875C192.997 72.875 194.51 73.4766 195.649 74.6797C196.588 75.6641 197.057 76.776 197.057 78.0156C197.057 79.7747 196.096 81.1784 194.172 82.2266C195.321 82.4727 196.237 83.0241 196.92 83.8809C197.613 84.7376 197.959 85.7721 197.959 86.9844C197.959 88.7435 197.317 90.2428 196.032 91.4824C194.747 92.722 193.147 93.3418 191.233 93.3418C189.419 93.3418 187.915 92.8223 186.721 91.7832C185.527 90.735 184.834 89.3678 184.643 87.6816ZM219.292 93H214.89L213.14 88.4473H205.128L203.474 93H199.181L206.987 72.957H211.267L219.292 93ZM211.841 85.0703L209.079 77.6328L206.372 85.0703H211.841ZM220.664 87.8457L224.492 87.4492C224.601 88.3151 224.925 89.0033 225.462 89.5137C226 90.015 226.62 90.2656 227.322 90.2656C228.124 90.2656 228.803 89.9421 229.359 89.2949C229.915 88.6387 230.193 87.6543 230.193 86.3418C230.193 85.1113 229.915 84.1908 229.359 83.5801C228.812 82.9603 228.097 82.6504 227.212 82.6504C226.11 82.6504 225.121 83.138 224.246 84.1133L221.128 83.6621L223.097 73.2305H233.255V76.8262H226.009L225.408 80.2305C226.265 79.8021 227.14 79.5879 228.033 79.5879C229.737 79.5879 231.182 80.2077 232.367 81.4473C233.552 82.6868 234.144 84.2956 234.144 86.2734C234.144 87.9232 233.666 89.3952 232.709 90.6895C231.405 92.4577 229.596 93.3418 227.281 93.3418C225.431 93.3418 223.922 92.8451 222.755 91.8516C221.589 90.8581 220.891 89.5228 220.664 87.8457ZM237.074 93V72.957H250.814V76.3477H241.121V81.0918H249.488V84.4824H241.121V93H237.074ZM256.616 82.1855C255.622 81.7663 254.898 81.1921 254.442 80.4629C253.995 79.7246 253.772 78.918 253.772 78.043C253.772 76.5482 254.292 75.3132 255.331 74.3379C256.379 73.3626 257.864 72.875 259.788 72.875C261.693 72.875 263.169 73.3626 264.217 74.3379C265.275 75.3132 265.803 76.5482 265.803 78.043C265.803 78.9727 265.562 79.8021 265.079 80.5312C264.596 81.2513 263.917 81.8027 263.042 82.1855C264.154 82.6322 264.997 83.2839 265.571 84.1406C266.154 84.9974 266.446 85.9863 266.446 87.1074C266.446 88.9577 265.853 90.4616 264.668 91.6191C263.493 92.7767 261.925 93.3555 259.965 93.3555C258.142 93.3555 256.625 92.877 255.413 91.9199C253.982 90.7897 253.266 89.2402 253.266 87.2715C253.266 86.1868 253.535 85.1934 254.073 84.291C254.611 83.3796 255.458 82.6777 256.616 82.1855ZM257.409 78.3164C257.409 79.082 257.623 79.679 258.051 80.1074C258.489 80.5358 259.068 80.75 259.788 80.75C260.517 80.75 261.1 80.5358 261.538 80.1074C261.975 79.6699 262.194 79.0684 262.194 78.3027C262.194 77.5827 261.975 77.0085 261.538 76.5801C261.109 76.1426 260.54 75.9238 259.829 75.9238C259.09 75.9238 258.502 76.1426 258.065 76.5801C257.627 77.0176 257.409 77.5964 257.409 78.3164ZM257.053 86.9023C257.053 87.9596 257.322 88.7845 257.86 89.377C258.407 89.9694 259.086 90.2656 259.897 90.2656C260.69 90.2656 261.346 89.9831 261.866 89.418C262.385 88.8438 262.645 88.0189 262.645 86.9434C262.645 86.0046 262.381 85.2526 261.852 84.6875C261.323 84.1133 260.654 83.8262 259.842 83.8262C258.904 83.8262 258.202 84.1497 257.737 84.7969C257.281 85.444 257.053 86.1458 257.053 86.9023ZM276.444 93V88.9668H268.241V85.6035L276.937 72.875H280.163V85.5898H282.651V88.9668H280.163V93H276.444ZM276.444 85.5898V78.7402L271.837 85.5898H276.444Z" fill="#FEFEE6"/>
<g filter="url(#filter0_d)">
<path fill-rule="evenodd" clip-rule="evenodd" d="M72 8C37.2061 8 9 36.2061 9 71C9 105.794 37.2061 134 72 134C106.794 134 135 105.794 135 71C135 36.2061 106.794 8 72 8Z" fill="white"/>
</g>
<path fill-rule="evenodd" clip-rule="evenodd" d="M72 8C37.2061 8 9 36.2061 9 71C9 105.794 37.2061 134 72 134C106.794 134 135 105.794 135 71C135 36.2061 106.794 8 72 8Z" fill="#3A5F84" stroke="white" stroke-opacity="0.25" stroke-width="6"/>
<path d="M185.164 42.2324C184.9 44.4883 184.065 46.2314 182.659 47.4619C181.263 48.6826 179.402 49.293 177.078 49.293C174.559 49.293 172.537 48.3896 171.014 46.583C169.5 44.7764 168.743 42.3594 168.743 39.332V37.2812C168.743 35.2988 169.095 33.5557 169.798 32.0518C170.511 30.5479 171.517 29.3955 172.815 28.5947C174.114 27.7842 175.618 27.3789 177.327 27.3789C179.593 27.3789 181.409 28.0137 182.776 29.2832C184.144 30.543 184.939 32.291 185.164 34.5273H182.337C182.093 32.8281 181.561 31.5977 180.74 30.8359C179.93 30.0742 178.792 29.6934 177.327 29.6934C175.53 29.6934 174.119 30.3574 173.094 31.6855C172.078 33.0137 171.57 34.9033 171.57 37.3545V39.4199C171.57 41.7344 172.054 43.5752 173.021 44.9424C173.987 46.3096 175.34 46.9932 177.078 46.9932C178.641 46.9932 179.837 46.6416 180.667 45.9385C181.507 45.2256 182.063 43.9902 182.337 42.2324H185.164ZM191.306 35.0693C192.507 33.5947 194.07 32.8574 195.994 32.8574C199.343 32.8574 201.033 34.7471 201.062 38.5264V49H198.352V38.5117C198.342 37.3691 198.079 36.5244 197.561 35.9775C197.053 35.4307 196.257 35.1572 195.173 35.1572C194.294 35.1572 193.523 35.3916 192.859 35.8604C192.195 36.3291 191.677 36.9443 191.306 37.7061V49H188.596V26.5H191.306V35.0693ZM214.909 49C214.753 48.6875 214.626 48.1309 214.528 47.3301C213.269 48.6387 211.765 49.293 210.017 49.293C208.454 49.293 207.17 48.8535 206.164 47.9746C205.168 47.0859 204.67 45.9629 204.67 44.6055C204.67 42.9551 205.295 41.6758 206.545 40.7676C207.805 39.8496 209.572 39.3906 211.848 39.3906H214.484V38.1455C214.484 37.1982 214.201 36.4463 213.635 35.8896C213.068 35.3232 212.233 35.04 211.13 35.04C210.163 35.04 209.353 35.2842 208.698 35.7725C208.044 36.2607 207.717 36.8516 207.717 37.5449H204.992C204.992 36.7539 205.271 35.9922 205.827 35.2598C206.394 34.5176 207.155 33.9316 208.112 33.502C209.079 33.0723 210.139 32.8574 211.291 32.8574C213.117 32.8574 214.548 33.3164 215.583 34.2344C216.618 35.1426 217.155 36.3975 217.194 37.999V45.2939C217.194 46.749 217.38 47.9062 217.751 48.7656V49H214.909ZM210.412 46.9346C211.262 46.9346 212.067 46.7148 212.829 46.2754C213.591 45.8359 214.143 45.2646 214.484 44.5615V41.3096H212.36C209.04 41.3096 207.38 42.2812 207.38 44.2246C207.38 45.0742 207.663 45.7383 208.23 46.2168C208.796 46.6953 209.523 46.9346 210.412 46.9346ZM223.996 33.1504L224.069 34.9082C225.231 33.541 226.798 32.8574 228.771 32.8574C230.988 32.8574 232.497 33.707 233.297 35.4062C233.825 34.6445 234.508 34.0293 235.348 33.5605C236.198 33.0918 237.199 32.8574 238.351 32.8574C241.828 32.8574 243.595 34.6982 243.654 38.3799V49H240.944V38.541C240.944 37.4082 240.685 36.5635 240.167 36.0068C239.65 35.4404 238.781 35.1572 237.56 35.1572C236.554 35.1572 235.719 35.46 235.055 36.0654C234.391 36.6611 234.005 37.4668 233.898 38.4824V49H231.173V38.6143C231.173 36.3096 230.045 35.1572 227.79 35.1572C226.012 35.1572 224.796 35.9141 224.142 37.4277V49H221.432V33.1504H223.996ZM261.178 41.251C261.178 43.6729 260.621 45.6211 259.508 47.0957C258.395 48.5605 256.9 49.293 255.025 49.293C253.023 49.293 251.476 48.585 250.382 47.1689L250.25 49H247.76V26.5H250.47V34.8936C251.563 33.5361 253.072 32.8574 254.996 32.8574C256.92 32.8574 258.429 33.585 259.522 35.04C260.626 36.4951 261.178 38.4873 261.178 41.0166V41.251ZM258.468 40.9434C258.468 39.0977 258.111 37.6719 257.398 36.666C256.686 35.6602 255.66 35.1572 254.322 35.1572C252.535 35.1572 251.251 35.9873 250.47 37.6475V44.5029C251.3 46.1631 252.594 46.9932 254.352 46.9932C255.65 46.9932 256.661 46.4902 257.384 45.4844C258.106 44.4785 258.468 42.9648 258.468 40.9434ZM272.271 35.582C271.861 35.5137 271.417 35.4795 270.938 35.4795C269.161 35.4795 267.955 36.2363 267.32 37.75V49H264.61V33.1504H267.247L267.291 34.9814C268.179 33.5654 269.439 32.8574 271.07 32.8574C271.597 32.8574 271.998 32.9258 272.271 33.0625V35.582ZM283.98 49C283.823 48.6875 283.696 48.1309 283.599 47.3301C282.339 48.6387 280.835 49.293 279.087 49.293C277.524 49.293 276.24 48.8535 275.234 47.9746C274.238 47.0859 273.74 45.9629 273.74 44.6055C273.74 42.9551 274.365 41.6758 275.615 40.7676C276.875 39.8496 278.643 39.3906 280.918 39.3906H283.555V38.1455C283.555 37.1982 283.272 36.4463 282.705 35.8896C282.139 35.3232 281.304 35.04 280.2 35.04C279.233 35.04 278.423 35.2842 277.769 35.7725C277.114 36.2607 276.787 36.8516 276.787 37.5449H274.063C274.063 36.7539 274.341 35.9922 274.897 35.2598C275.464 34.5176 276.226 33.9316 277.183 33.502C278.149 33.0723 279.209 32.8574 280.361 32.8574C282.188 32.8574 283.618 33.3164 284.653 34.2344C285.689 35.1426 286.226 36.3975 286.265 37.999V45.2939C286.265 46.749 286.45 47.9062 286.821 48.7656V49H283.98ZM279.482 46.9346C280.332 46.9346 281.138 46.7148 281.899 46.2754C282.661 45.8359 283.213 45.2646 283.555 44.5615V41.3096H281.431C278.11 41.3096 276.45 42.2812 276.45 44.2246C276.45 45.0742 276.733 45.7383 277.3 46.2168C277.866 46.6953 278.594 46.9346 279.482 46.9346ZM295.468 45.0303L299.16 33.1504H302.06L295.688 51.4463C294.702 54.083 293.134 55.4014 290.986 55.4014L290.473 55.3574L289.462 55.167V52.9697L290.195 53.0283C291.113 53.0283 291.826 52.8428 292.334 52.4717C292.851 52.1006 293.276 51.4219 293.608 50.4355L294.209 48.8242L288.554 33.1504H291.513L295.468 45.0303Z" fill="#FEFEE6"/>
<path d="M590.119 88.3945H587.48L586.496 94H583.994L584.979 88.3945H581.875V86.043H585.389L586.072 82.1602H582.9V79.7812H586.496L587.494 74.0938H589.982L588.984 79.7812H591.637L592.635 74.0938H595.137L594.139 79.7812H597.133V82.1602H593.715L593.031 86.043H596.094V88.3945H592.621L591.637 94H589.135L590.119 88.3945ZM587.891 86.043H590.529L591.213 82.1602H588.561L587.891 86.043ZM608.635 94H604.684V78.7695L599.967 80.2324V77.0195L608.211 74.0664H608.635V94ZM615.544 94V74.0938H622.517C624.932 74.0938 626.764 74.5586 628.013 75.4883C629.261 76.4089 629.886 77.7624 629.886 79.5488C629.886 80.5241 629.635 81.3854 629.134 82.1328C628.632 82.8711 627.935 83.4134 627.042 83.7598C628.063 84.015 628.865 84.5299 629.448 85.3047C630.041 86.0794 630.337 87.0273 630.337 88.1484C630.337 90.0625 629.726 91.5117 628.505 92.4961C627.284 93.4805 625.543 93.9818 623.282 94H615.544ZM619.646 85.332V90.7051H623.159C624.125 90.7051 624.877 90.4772 625.415 90.0215C625.962 89.5566 626.235 88.9186 626.235 88.1074C626.235 86.2845 625.292 85.3594 623.405 85.332H619.646ZM619.646 82.4336H622.681C624.75 82.3971 625.784 81.5723 625.784 79.959C625.784 79.0566 625.52 78.4095 624.991 78.0176C624.472 77.6165 623.647 77.416 622.517 77.416H619.646V82.4336ZM637.027 82.2969H639.132C640.135 82.2969 640.878 82.0462 641.361 81.5449C641.844 81.0436 642.085 80.3783 642.085 79.5488C642.085 78.7467 641.844 78.1224 641.361 77.6758C640.887 77.2292 640.231 77.0059 639.392 77.0059C638.636 77.0059 638.002 77.2155 637.492 77.6348C636.981 78.0449 636.726 78.5827 636.726 79.248H632.775C632.775 78.209 633.053 77.2793 633.609 76.459C634.174 75.6296 634.958 74.9824 635.96 74.5176C636.972 74.0527 638.084 73.8203 639.296 73.8203C641.402 73.8203 643.052 74.3262 644.246 75.3379C645.44 76.3405 646.037 77.7259 646.037 79.4941C646.037 80.4056 645.759 81.2441 645.203 82.0098C644.647 82.7754 643.917 83.3633 643.015 83.7734C644.136 84.1745 644.97 84.776 645.517 85.5781C646.073 86.3802 646.351 87.3281 646.351 88.4219C646.351 90.1901 645.704 91.6074 644.41 92.6738C643.125 93.7402 641.42 94.2734 639.296 94.2734C637.309 94.2734 635.682 93.7493 634.416 92.7012C633.158 91.653 632.529 90.2676 632.529 88.5449H636.48C636.48 89.2923 636.758 89.903 637.314 90.377C637.879 90.8509 638.572 91.0879 639.392 91.0879C640.331 91.0879 641.065 90.8418 641.593 90.3496C642.131 89.8483 642.4 89.1875 642.4 88.3672C642.4 86.3802 641.306 85.3867 639.119 85.3867H637.027V82.2969ZM658.688 94H654.736V78.7695L650.02 80.2324V77.0195L658.264 74.0664H658.688V94ZM676.862 86.5078H679.118V89.6934H676.862V94H672.911V89.6934H664.749L664.571 87.2051L672.87 74.0938H676.862V86.5078ZM668.508 86.5078H672.911V79.4805L672.651 79.9316L668.508 86.5078ZM681.679 94V74.0938H687.804C689.554 74.0938 691.117 74.4902 692.493 75.2832C693.879 76.0671 694.959 77.1882 695.733 78.6465C696.508 80.0957 696.896 81.7454 696.896 83.5957V84.5117C696.896 86.362 696.513 88.0072 695.747 89.4473C694.991 90.8874 693.92 92.0039 692.534 92.7969C691.149 93.5898 689.586 93.9909 687.845 94H681.679ZM685.78 77.416V90.7051H687.763C689.367 90.7051 690.593 90.181 691.44 89.1328C692.288 88.0846 692.721 86.5853 692.739 84.6348V83.582C692.739 81.5586 692.32 80.0273 691.481 78.9883C690.643 77.9401 689.417 77.416 687.804 77.416H685.78Z" fill="#FEFEE6"/>
<g filter="url(#filter1_d)">
<path fill-rule="evenodd" clip-rule="evenodd" d="M474 9C439.206 9 411 37.2061 411 72C411 106.794 439.206 135 474 135C508.794 135 537 106.794 537 72C537 37.2061 508.794 9 474 9Z" fill="white"/>
</g>
<path fill-rule="evenodd" clip-rule="evenodd" d="M474 9C439.206 9 411 37.2061 411 72C411 106.794 439.206 135 474 135C508.794 135 537 106.794 537 72C537 37.2061 508.794 9 474 9Z" fill="#1B314D" stroke="white" stroke-opacity="0.25" stroke-width="6"/>
<path d="M599.867 49H597.04L586.303 32.5645V49H583.476V27.6719H586.303L597.069 44.1807V27.6719H599.867V49ZM607.386 49H604.676V33.1504H607.386V49ZM604.457 28.9463C604.457 28.5068 604.588 28.1357 604.852 27.833C605.125 27.5303 605.526 27.3789 606.053 27.3789C606.581 27.3789 606.981 27.5303 607.254 27.833C607.528 28.1357 607.665 28.5068 607.665 28.9463C607.665 29.3857 607.528 29.752 607.254 30.0449C606.981 30.3379 606.581 30.4844 606.053 30.4844C605.526 30.4844 605.125 30.3379 604.852 30.0449C604.588 29.752 604.457 29.3857 604.457 28.9463ZM614.686 49H611.976V26.5H614.686V49ZM625.618 49.293C623.469 49.293 621.721 48.5898 620.374 47.1836C619.026 45.7676 618.352 43.8779 618.352 41.5146V41.0166C618.352 39.4443 618.65 38.043 619.246 36.8125C619.851 35.5723 620.691 34.6055 621.765 33.9121C622.849 33.209 624.021 32.8574 625.281 32.8574C627.341 32.8574 628.943 33.5361 630.085 34.8936C631.228 36.251 631.799 38.1943 631.799 40.7236V41.8516H621.062C621.101 43.4141 621.555 44.6787 622.424 45.6455C623.303 46.6025 624.417 47.0811 625.764 47.0811C626.721 47.0811 627.532 46.8857 628.196 46.4951C628.86 46.1045 629.441 45.5869 629.939 44.9424L631.594 46.2314C630.266 48.2725 628.274 49.293 625.618 49.293ZM625.281 35.084C624.187 35.084 623.269 35.4844 622.527 36.2852C621.785 37.0762 621.326 38.1895 621.15 39.625H629.089V39.4199C629.011 38.043 628.64 36.9785 627.976 36.2266C627.312 35.4648 626.414 35.084 625.281 35.084ZM642.824 49V27.6719H649.796C652.111 27.6719 653.849 28.1504 655.011 29.1074C656.183 30.0645 656.769 31.4805 656.769 33.3555C656.769 34.3516 656.486 35.2354 655.919 36.0068C655.353 36.7686 654.582 37.3594 653.605 37.7793C654.757 38.1016 655.666 38.7168 656.33 39.625C657.003 40.5234 657.34 41.5977 657.34 42.8477C657.34 44.7617 656.72 46.2656 655.48 47.3594C654.24 48.4531 652.487 49 650.221 49H642.824ZM645.636 39.0244V46.7002H650.28C651.588 46.7002 652.619 46.3633 653.371 45.6895C654.132 45.0059 654.513 44.0684 654.513 42.877C654.513 40.3086 653.117 39.0244 650.324 39.0244H645.636ZM645.636 36.7686H649.884C651.115 36.7686 652.096 36.4609 652.829 35.8457C653.571 35.2305 653.942 34.3955 653.942 33.3408C653.942 32.1689 653.6 31.3193 652.917 30.792C652.233 30.2549 651.193 29.9863 649.796 29.9863H645.636V36.7686ZM664.039 49H661.329V26.5H664.039V49ZM678.179 47.4326C677.125 48.6729 675.577 49.293 673.536 49.293C671.846 49.293 670.557 48.8047 669.668 47.8281C668.79 46.8418 668.345 45.3867 668.335 43.4629V33.1504H671.045V43.3896C671.045 45.792 672.022 46.9932 673.975 46.9932C676.045 46.9932 677.422 46.2217 678.106 44.6787V33.1504H680.816V49H678.238L678.179 47.4326ZM691.528 49.293C689.38 49.293 687.632 48.5898 686.284 47.1836C684.937 45.7676 684.263 43.8779 684.263 41.5146V41.0166C684.263 39.4443 684.561 38.043 685.156 36.8125C685.762 35.5723 686.602 34.6055 687.676 33.9121C688.76 33.209 689.932 32.8574 691.191 32.8574C693.252 32.8574 694.854 33.5361 695.996 34.8936C697.139 36.251 697.71 38.1943 697.71 40.7236V41.8516H686.973C687.012 43.4141 687.466 44.6787 688.335 45.6455C689.214 46.6025 690.327 47.0811 691.675 47.0811C692.632 47.0811 693.442 46.8857 694.106 46.4951C694.771 46.1045 695.352 45.5869 695.85 44.9424L697.505 46.2314C696.177 48.2725 694.185 49.293 691.528 49.293ZM691.191 35.084C690.098 35.084 689.18 35.4844 688.438 36.2852C687.695 37.0762 687.236 38.1895 687.061 39.625H695V39.4199C694.922 38.043 694.551 36.9785 693.887 36.2266C693.223 35.4648 692.324 35.084 691.191 35.084Z" fill="#FEFEE6"/>
<path d="M981.105 88.0098H979.246V85.002H981.707L982.527 80.9688H979.246V77.9473H983.143L984.223 72.6152H987.285L986.205 77.9473H989.227L990.279 72.6152H993.451L992.357 77.9473H994.244V80.9688H991.742L990.922 85.002H994.244V88.0098H990.307L989.227 93.3418H986.178L987.23 88.0098H984.195L983.115 93.3418H980.025L981.105 88.0098ZM985.604 80.9688L984.797 85.002H987.832L988.625 80.9688H985.604ZM995.643 87.6816L999.362 87.2305C999.48 88.1784 999.799 88.903 1000.32 89.4043C1000.84 89.9056 1001.47 90.1562 1002.21 90.1562C1003 90.1562 1003.66 89.8555 1004.2 89.2539C1004.75 88.6523 1005.02 87.8411 1005.02 86.8203C1005.02 85.8542 1004.76 85.0885 1004.24 84.5234C1003.72 83.9583 1003.09 83.6758 1002.34 83.6758C1001.85 83.6758 1001.26 83.7715 1000.58 83.9629L1001 80.832C1002.04 80.8594 1002.83 80.6361 1003.38 80.1621C1003.93 79.679 1004.2 79.041 1004.2 78.248C1004.2 77.5736 1004 77.0358 1003.6 76.6348C1003.2 76.2337 1002.67 76.0332 1002 76.0332C1001.34 76.0332 1000.78 76.2611 1000.32 76.7168C999.854 77.1725 999.571 77.8379 999.471 78.7129L995.93 78.1113C996.176 76.8991 996.545 75.9329 997.038 75.2129C997.539 74.4837 998.232 73.9141 999.116 73.5039C1000.01 73.0846 1001.01 72.875 1002.11 72.875C1004 72.875 1005.51 73.4766 1006.65 74.6797C1007.59 75.6641 1008.06 76.776 1008.06 78.0156C1008.06 79.7747 1007.1 81.1784 1005.17 82.2266C1006.32 82.4727 1007.24 83.0241 1007.92 83.8809C1008.61 84.7376 1008.96 85.7721 1008.96 86.9844C1008.96 88.7435 1008.32 90.2428 1007.03 91.4824C1005.75 92.722 1004.15 93.3418 1002.23 93.3418C1000.42 93.3418 998.915 92.8223 997.721 91.7832C996.527 90.735 995.834 89.3678 995.643 87.6816ZM1024.39 77.8652L1020.67 78.2754C1020.58 77.5098 1020.34 76.9447 1019.96 76.5801C1019.57 76.2155 1019.08 76.0332 1018.47 76.0332C1017.65 76.0332 1016.97 76.3978 1016.4 77.127C1015.85 77.8561 1015.49 79.3737 1015.35 81.6797C1016.31 80.5495 1017.5 79.9844 1018.92 79.9844C1020.52 79.9844 1021.89 80.5951 1023.03 81.8164C1024.18 83.0378 1024.75 84.6146 1024.75 86.5469C1024.75 88.5977 1024.15 90.2428 1022.95 91.4824C1021.75 92.722 1020.2 93.3418 1018.32 93.3418C1016.29 93.3418 1014.63 92.5579 1013.33 90.9902C1012.02 89.4134 1011.37 86.834 1011.37 83.252C1011.37 79.5788 1012.05 76.931 1013.41 75.3086C1014.77 73.6862 1016.53 72.875 1018.7 72.875C1020.22 72.875 1021.48 73.3034 1022.47 74.1602C1023.47 75.0078 1024.11 76.2428 1024.39 77.8652ZM1015.68 86.2461C1015.68 87.4948 1015.96 88.4609 1016.54 89.1445C1017.11 89.819 1017.77 90.1562 1018.51 90.1562C1019.22 90.1562 1019.81 89.8783 1020.28 89.3223C1020.76 88.7663 1021 87.8548 1021 86.5879C1021 85.2845 1020.74 84.332 1020.23 83.7305C1019.72 83.1198 1019.08 82.8145 1018.32 82.8145C1017.58 82.8145 1016.95 83.1061 1016.44 83.6895C1015.93 84.2637 1015.68 85.1159 1015.68 86.2461ZM1027.04 88.3652L1030.76 87.9551C1030.85 88.7116 1031.09 89.2721 1031.47 89.6367C1031.85 90.0013 1032.36 90.1836 1032.99 90.1836C1033.78 90.1836 1034.46 89.819 1035.01 89.0898C1035.57 88.3607 1035.92 86.8477 1036.08 84.5508C1035.11 85.6719 1033.91 86.2324 1032.46 86.2324C1030.88 86.2324 1029.52 85.6263 1028.37 84.4141C1027.23 83.1927 1026.66 81.6068 1026.66 79.6562C1026.66 77.6237 1027.26 75.9876 1028.46 74.748C1029.68 73.4993 1031.22 72.875 1033.09 72.875C1035.12 72.875 1036.79 73.6634 1038.09 75.2402C1039.39 76.8079 1040.04 79.3919 1040.04 82.9922C1040.04 86.6562 1039.37 89.2995 1038.01 90.9219C1036.65 92.5443 1034.88 93.3555 1032.7 93.3555C1031.13 93.3555 1029.87 92.9408 1028.9 92.1113C1027.94 91.2728 1027.32 90.0241 1027.04 88.3652ZM1035.74 79.9707C1035.74 78.7311 1035.45 77.7695 1034.88 77.0859C1034.31 76.4023 1033.66 76.0605 1032.91 76.0605C1032.2 76.0605 1031.6 76.3431 1031.13 76.9082C1030.67 77.4642 1030.43 78.3802 1030.43 79.6562C1030.43 80.9505 1030.69 81.903 1031.2 82.5137C1031.71 83.1152 1032.35 83.416 1033.11 83.416C1033.85 83.416 1034.47 83.1243 1034.97 82.541C1035.48 81.9577 1035.74 81.1009 1035.74 79.9707ZM1042.41 87.6816L1046.13 87.2305C1046.25 88.1784 1046.57 88.903 1047.09 89.4043C1047.61 89.9056 1048.24 90.1562 1048.98 90.1562C1049.77 90.1562 1050.43 89.8555 1050.97 89.2539C1051.52 88.6523 1051.79 87.8411 1051.79 86.8203C1051.79 85.8542 1051.53 85.0885 1051.01 84.5234C1050.49 83.9583 1049.86 83.6758 1049.11 83.6758C1048.62 83.6758 1048.03 83.7715 1047.35 83.9629L1047.77 80.832C1048.81 80.8594 1049.61 80.6361 1050.15 80.1621C1050.7 79.679 1050.97 79.041 1050.97 78.248C1050.97 77.5736 1050.77 77.0358 1050.37 76.6348C1049.97 76.2337 1049.44 76.0332 1048.77 76.0332C1048.12 76.0332 1047.55 76.2611 1047.09 76.7168C1046.63 77.1725 1046.34 77.8379 1046.24 78.7129L1042.7 78.1113C1042.95 76.8991 1043.32 75.9329 1043.81 75.2129C1044.31 74.4837 1045 73.9141 1045.89 73.5039C1046.78 73.0846 1047.78 72.875 1048.88 72.875C1050.77 72.875 1052.28 73.4766 1053.42 74.6797C1054.36 75.6641 1054.83 76.776 1054.83 78.0156C1054.83 79.7747 1053.87 81.1784 1051.94 82.2266C1053.09 82.4727 1054.01 83.0241 1054.69 83.8809C1055.38 84.7376 1055.73 85.7721 1055.73 86.9844C1055.73 88.7435 1055.09 90.2428 1053.8 91.4824C1052.52 92.722 1050.92 93.3418 1049 93.3418C1047.19 93.3418 1045.69 92.8223 1044.49 91.7832C1043.3 90.735 1042.61 89.3678 1042.41 87.6816ZM1071.81 85.6309L1075.74 86.875C1075.14 89.0625 1074.13 90.6895 1072.73 91.7559C1071.33 92.8132 1069.56 93.3418 1067.41 93.3418C1064.75 93.3418 1062.56 92.4349 1060.85 90.6211C1059.13 88.7982 1058.28 86.3099 1058.28 83.1562C1058.28 79.8203 1059.14 77.2318 1060.86 75.3906C1062.58 73.5404 1064.85 72.6152 1067.66 72.6152C1070.11 72.6152 1072.1 73.3398 1073.63 74.7891C1074.54 75.6458 1075.23 76.8763 1075.68 78.4805L1071.68 79.4375C1071.44 78.3984 1070.94 77.5781 1070.19 76.9766C1069.44 76.375 1068.53 76.0742 1067.45 76.0742C1065.97 76.0742 1064.76 76.6074 1063.83 77.6738C1062.91 78.7402 1062.45 80.4674 1062.45 82.8555C1062.45 85.3893 1062.9 87.194 1063.81 88.2695C1064.73 89.3451 1065.91 89.8828 1067.37 89.8828C1068.45 89.8828 1069.37 89.541 1070.15 88.8574C1070.92 88.1738 1071.48 87.0983 1071.81 85.6309ZM1078.46 88.3652L1082.18 87.9551C1082.27 88.7116 1082.51 89.2721 1082.89 89.6367C1083.27 90.0013 1083.78 90.1836 1084.41 90.1836C1085.2 90.1836 1085.88 89.819 1086.43 89.0898C1086.99 88.3607 1087.34 86.8477 1087.5 84.5508C1086.53 85.6719 1085.33 86.2324 1083.88 86.2324C1082.3 86.2324 1080.94 85.6263 1079.79 84.4141C1078.65 83.1927 1078.08 81.6068 1078.08 79.6562C1078.08 77.6237 1078.68 75.9876 1079.88 74.748C1081.1 73.4993 1082.64 72.875 1084.5 72.875C1086.54 72.875 1088.21 73.6634 1089.51 75.2402C1090.81 76.8079 1091.46 79.3919 1091.46 82.9922C1091.46 86.6562 1090.78 89.2995 1089.43 90.9219C1088.07 92.5443 1086.3 93.3555 1084.12 93.3555C1082.55 93.3555 1081.29 92.9408 1080.32 92.1113C1079.36 91.2728 1078.74 90.0241 1078.46 88.3652ZM1087.16 79.9707C1087.16 78.7311 1086.87 77.7695 1086.3 77.0859C1085.73 76.4023 1085.07 76.0605 1084.33 76.0605C1083.62 76.0605 1083.02 76.3431 1082.55 76.9082C1082.08 77.4642 1081.85 78.3802 1081.85 79.6562C1081.85 80.9505 1082.11 81.903 1082.62 82.5137C1083.13 83.1152 1083.77 83.416 1084.53 83.416C1085.27 83.416 1085.89 83.1243 1086.39 82.541C1086.9 81.9577 1087.16 81.1009 1087.16 79.9707Z" fill="#FEFEE6"/>
<g filter="url(#filter2_d)">
<path fill-rule="evenodd" clip-rule="evenodd" d="M872 9C837.206 9 809 37.2061 809 72C809 106.794 837.206 135 872 135C906.794 135 935 106.794 935 72C935 37.2061 906.794 9 872 9Z" fill="white"/>
</g>
<path fill-rule="evenodd" clip-rule="evenodd" d="M872 9C837.206 9 809 37.2061 809 72C809 106.794 837.206 135 872 135C906.794 135 935 106.794 935 72C935 37.2061 906.794 9 872 9Z" fill="#3693C9" stroke="white" stroke-opacity="0.25" stroke-width="6"/>
<path d="M981.476 49V27.6719H988.448C990.763 27.6719 992.501 28.1504 993.663 29.1074C994.835 30.0645 995.421 31.4805 995.421 33.3555C995.421 34.3516 995.138 35.2354 994.571 36.0068C994.005 36.7686 993.233 37.3594 992.257 37.7793C993.409 38.1016 994.317 38.7168 994.981 39.625C995.655 40.5234 995.992 41.5977 995.992 42.8477C995.992 44.7617 995.372 46.2656 994.132 47.3594C992.892 48.4531 991.139 49 988.873 49H981.476ZM984.288 39.0244V46.7002H988.932C990.24 46.7002 991.271 46.3633 992.022 45.6895C992.784 45.0059 993.165 44.0684 993.165 42.877C993.165 40.3086 991.769 39.0244 988.976 39.0244H984.288ZM984.288 36.7686H988.536C989.767 36.7686 990.748 36.4609 991.48 35.8457C992.223 35.2305 992.594 34.3955 992.594 33.3408C992.594 32.1689 992.252 31.3193 991.568 30.792C990.885 30.2549 989.845 29.9863 988.448 29.9863H984.288V36.7686ZM999.029 40.9287C999.029 39.376 999.332 37.9795 999.937 36.7393C1000.55 35.499 1001.4 34.542 1002.49 33.8682C1003.58 33.1943 1004.82 32.8574 1006.22 32.8574C1008.38 32.8574 1010.12 33.6045 1011.45 35.0986C1012.79 36.5928 1013.46 38.5801 1013.46 41.0605V41.251C1013.46 42.7939 1013.16 44.1807 1012.56 45.4111C1011.98 46.6318 1011.13 47.584 1010.03 48.2676C1008.94 48.9512 1007.68 49.293 1006.25 49.293C1004.1 49.293 1002.36 48.5459 1001.02 47.0518C999.693 45.5576 999.029 43.5801 999.029 41.1191V40.9287ZM1001.75 41.251C1001.75 43.0088 1002.16 44.4199 1002.97 45.4844C1003.79 46.5488 1004.88 47.0811 1006.25 47.0811C1007.63 47.0811 1008.72 46.5439 1009.53 45.4697C1010.34 44.3857 1010.75 42.8721 1010.75 40.9287C1010.75 39.1904 1010.33 37.7842 1009.5 36.71C1008.68 35.626 1007.59 35.084 1006.22 35.084C1004.88 35.084 1003.8 35.6162 1002.98 36.6807C1002.16 37.7451 1001.75 39.2686 1001.75 41.251ZM1026.09 44.7959C1026.09 44.0635 1025.81 43.4971 1025.25 43.0967C1024.71 42.6865 1023.75 42.335 1022.37 42.042C1021 41.749 1019.91 41.3975 1019.1 40.9873C1018.3 40.5771 1017.71 40.0889 1017.31 39.5225C1016.93 38.9561 1016.74 38.2822 1016.74 37.501C1016.74 36.2021 1017.29 35.1035 1018.38 34.2051C1019.49 33.3066 1020.89 32.8574 1022.6 32.8574C1024.4 32.8574 1025.85 33.3213 1026.97 34.249C1028.09 35.1768 1028.65 36.3633 1028.65 37.8086H1025.93C1025.93 37.0664 1025.61 36.4268 1024.98 35.8896C1024.35 35.3525 1023.56 35.084 1022.6 35.084C1021.62 35.084 1020.84 35.2988 1020.29 35.7285C1019.73 36.1582 1019.45 36.7197 1019.45 37.4131C1019.45 38.0674 1019.71 38.5605 1020.23 38.8926C1020.75 39.2246 1021.68 39.542 1023.03 39.8447C1024.38 40.1475 1025.48 40.5088 1026.32 40.9287C1027.16 41.3486 1027.78 41.8564 1028.18 42.4521C1028.59 43.0381 1028.8 43.7559 1028.8 44.6055C1028.8 46.0215 1028.23 47.1592 1027.1 48.0186C1025.97 48.8682 1024.5 49.293 1022.69 49.293C1021.42 49.293 1020.3 49.0684 1019.32 48.6191C1018.34 48.1699 1017.58 47.5449 1017.02 46.7441C1016.47 45.9336 1016.2 45.0596 1016.2 44.1221H1018.91C1018.96 45.0303 1019.32 45.7529 1020 46.29C1020.68 46.8174 1021.58 47.0811 1022.69 47.0811C1023.72 47.0811 1024.54 46.876 1025.15 46.4658C1025.78 46.0459 1026.09 45.4893 1026.09 44.7959ZM1036.01 29.3125V33.1504H1038.97V35.2451H1036.01V45.0742C1036.01 45.709 1036.14 46.1875 1036.41 46.5098C1036.67 46.8223 1037.12 46.9785 1037.75 46.9785C1038.07 46.9785 1038.5 46.9199 1039.04 46.8027V49C1038.33 49.1953 1037.64 49.293 1036.96 49.293C1035.75 49.293 1034.84 48.9268 1034.22 48.1943C1033.61 47.4619 1033.3 46.4219 1033.3 45.0742V35.2451H1030.41V33.1504H1033.3V29.3125H1036.01ZM1041.14 40.9287C1041.14 39.376 1041.44 37.9795 1042.05 36.7393C1042.67 35.499 1043.51 34.542 1044.6 33.8682C1045.69 33.1943 1046.94 32.8574 1048.33 32.8574C1050.49 32.8574 1052.24 33.6045 1053.56 35.0986C1054.9 36.5928 1055.57 38.5801 1055.57 41.0605V41.251C1055.57 42.7939 1055.27 44.1807 1054.68 45.4111C1054.09 46.6318 1053.25 47.584 1052.14 48.2676C1051.05 48.9512 1049.79 49.293 1048.36 49.293C1046.21 49.293 1044.47 48.5459 1043.13 47.0518C1041.81 45.5576 1041.14 43.5801 1041.14 41.1191V40.9287ZM1043.87 41.251C1043.87 43.0088 1044.27 44.4199 1045.08 45.4844C1045.9 46.5488 1047 47.0811 1048.36 47.0811C1049.74 47.0811 1050.83 46.5439 1051.64 45.4697C1052.46 44.3857 1052.86 42.8721 1052.86 40.9287C1052.86 39.1904 1052.45 37.7842 1051.62 36.71C1050.79 35.626 1049.7 35.084 1048.33 35.084C1047 35.084 1045.92 35.6162 1045.1 36.6807C1044.28 37.7451 1043.87 39.2686 1043.87 41.251ZM1061.54 33.1504L1061.62 35.1426C1062.84 33.6191 1064.42 32.8574 1066.37 32.8574C1069.72 32.8574 1071.41 34.7471 1071.44 38.5264V49H1068.73V38.5117C1068.72 37.3691 1068.46 36.5244 1067.94 35.9775C1067.43 35.4307 1066.63 35.1572 1065.55 35.1572C1064.67 35.1572 1063.9 35.3916 1063.24 35.8604C1062.57 36.3291 1062.05 36.9443 1061.68 37.7061V49H1058.97V33.1504H1061.54ZM1083.4 49V27.6719H1090.37C1092.69 27.6719 1094.43 28.1504 1095.59 29.1074C1096.76 30.0645 1097.35 31.4805 1097.35 33.3555C1097.35 34.3516 1097.06 35.2354 1096.5 36.0068C1095.93 36.7686 1095.16 37.3594 1094.18 37.7793C1095.33 38.1016 1096.24 38.7168 1096.91 39.625C1097.58 40.5234 1097.92 41.5977 1097.92 42.8477C1097.92 44.7617 1097.3 46.2656 1096.06 47.3594C1094.82 48.4531 1093.06 49 1090.8 49H1083.4ZM1086.21 39.0244V46.7002H1090.86C1092.17 46.7002 1093.2 46.3633 1093.95 45.6895C1094.71 45.0059 1095.09 44.0684 1095.09 42.877C1095.09 40.3086 1093.69 39.0244 1090.9 39.0244H1086.21ZM1086.21 36.7686H1090.46C1091.69 36.7686 1092.67 36.4609 1093.41 35.8457C1094.15 35.2305 1094.52 34.3955 1094.52 33.3408C1094.52 32.1689 1094.18 31.3193 1093.49 30.792C1092.81 30.2549 1091.77 29.9863 1090.37 29.9863H1086.21V36.7686ZM1104.62 49H1101.91V26.5H1104.62V49ZM1118.76 47.4326C1117.7 48.6729 1116.15 49.293 1114.11 49.293C1112.42 49.293 1111.13 48.8047 1110.25 47.8281C1109.37 46.8418 1108.92 45.3867 1108.91 43.4629V33.1504H1111.62V43.3896C1111.62 45.792 1112.6 46.9932 1114.55 46.9932C1116.62 46.9932 1118 46.2217 1118.68 44.6787V33.1504H1121.39V49H1118.81L1118.76 47.4326ZM1132.11 49.293C1129.96 49.293 1128.21 48.5898 1126.86 47.1836C1125.51 45.7676 1124.84 43.8779 1124.84 41.5146V41.0166C1124.84 39.4443 1125.14 38.043 1125.73 36.8125C1126.34 35.5723 1127.18 34.6055 1128.25 33.9121C1129.34 33.209 1130.51 32.8574 1131.77 32.8574C1133.83 32.8574 1135.43 33.5361 1136.57 34.8936C1137.72 36.251 1138.29 38.1943 1138.29 40.7236V41.8516H1127.55C1127.59 43.4141 1128.04 44.6787 1128.91 45.6455C1129.79 46.6025 1130.9 47.0811 1132.25 47.0811C1133.21 47.0811 1134.02 46.8857 1134.68 46.4951C1135.35 46.1045 1135.93 45.5869 1136.43 44.9424L1138.08 46.2314C1136.75 48.2725 1134.76 49.293 1132.11 49.293ZM1131.77 35.084C1130.67 35.084 1129.76 35.4844 1129.01 36.2852C1128.27 37.0762 1127.81 38.1895 1127.64 39.625H1135.58V39.4199C1135.5 38.043 1135.13 36.9785 1134.46 36.2266C1133.8 35.4648 1132.9 35.084 1131.77 35.084Z" fill="#FEFEE6"/>
<path d="M170.105 283.01H168.246V280.002H170.707L171.527 275.969H168.246V272.947H172.143L173.223 267.615H176.285L175.205 272.947H178.227L179.279 267.615H182.451L181.357 272.947H183.244V275.969H180.742L179.922 280.002H183.244V283.01H179.307L178.227 288.342H175.178L176.23 283.01H173.195L172.115 288.342H169.025L170.105 283.01ZM174.604 275.969L173.797 280.002H176.832L177.625 275.969H174.604ZM198.452 280.631L202.375 281.875C201.774 284.062 200.771 285.689 199.368 286.756C197.973 287.813 196.2 288.342 194.049 288.342C191.388 288.342 189.2 287.435 187.487 285.621C185.773 283.798 184.917 281.31 184.917 278.156C184.917 274.82 185.778 272.232 187.5 270.391C189.223 268.54 191.488 267.615 194.295 267.615C196.747 267.615 198.739 268.34 200.27 269.789C201.181 270.646 201.865 271.876 202.321 273.48L198.315 274.438C198.078 273.398 197.581 272.578 196.825 271.977C196.077 271.375 195.166 271.074 194.09 271.074C192.605 271.074 191.397 271.607 190.467 272.674C189.547 273.74 189.086 275.467 189.086 277.855C189.086 280.389 189.542 282.194 190.454 283.27C191.365 284.345 192.55 284.883 194.008 284.883C195.084 284.883 196.009 284.541 196.784 283.857C197.558 283.174 198.114 282.098 198.452 280.631ZM217.993 284.432V288H204.526C204.672 286.651 205.11 285.375 205.839 284.172C206.568 282.96 208.008 281.355 210.159 279.359C211.891 277.746 212.953 276.652 213.345 276.078C213.873 275.285 214.138 274.501 214.138 273.727C214.138 272.87 213.905 272.214 213.44 271.758C212.985 271.293 212.351 271.061 211.54 271.061C210.738 271.061 210.1 271.302 209.626 271.785C209.152 272.268 208.879 273.07 208.806 274.191L204.978 273.809C205.205 271.694 205.921 270.176 207.124 269.256C208.327 268.335 209.831 267.875 211.636 267.875C213.614 267.875 215.168 268.408 216.298 269.475C217.428 270.541 217.993 271.867 217.993 273.453C217.993 274.355 217.829 275.217 217.501 276.037C217.182 276.848 216.672 277.701 215.97 278.594C215.505 279.186 214.666 280.038 213.454 281.15C212.242 282.262 211.472 283.001 211.144 283.365C210.825 283.73 210.565 284.085 210.364 284.432H217.993ZM220.472 282.682L224.191 282.23C224.309 283.178 224.628 283.903 225.148 284.404C225.667 284.906 226.296 285.156 227.035 285.156C227.828 285.156 228.493 284.855 229.031 284.254C229.578 283.652 229.851 282.841 229.851 281.82C229.851 280.854 229.591 280.089 229.072 279.523C228.552 278.958 227.919 278.676 227.171 278.676C226.679 278.676 226.091 278.771 225.408 278.963L225.832 275.832C226.871 275.859 227.664 275.636 228.21 275.162C228.757 274.679 229.031 274.041 229.031 273.248C229.031 272.574 228.83 272.036 228.429 271.635C228.028 271.234 227.495 271.033 226.83 271.033C226.173 271.033 225.613 271.261 225.148 271.717C224.683 272.173 224.401 272.838 224.3 273.713L220.759 273.111C221.005 271.899 221.375 270.933 221.867 270.213C222.368 269.484 223.061 268.914 223.945 268.504C224.838 268.085 225.836 267.875 226.939 267.875C228.826 267.875 230.339 268.477 231.478 269.68C232.417 270.664 232.886 271.776 232.886 273.016C232.886 274.775 231.925 276.178 230.001 277.227C231.15 277.473 232.066 278.024 232.75 278.881C233.442 279.738 233.789 280.772 233.789 281.984C233.789 283.743 233.146 285.243 231.861 286.482C230.576 287.722 228.976 288.342 227.062 288.342C225.248 288.342 223.744 287.822 222.55 286.783C221.356 285.735 220.664 284.368 220.472 282.682ZM236.281 283.365L240 282.955C240.091 283.712 240.328 284.272 240.711 284.637C241.094 285.001 241.6 285.184 242.229 285.184C243.022 285.184 243.696 284.819 244.252 284.09C244.808 283.361 245.163 281.848 245.318 279.551C244.352 280.672 243.145 281.232 241.695 281.232C240.119 281.232 238.756 280.626 237.607 279.414C236.468 278.193 235.898 276.607 235.898 274.656C235.898 272.624 236.5 270.988 237.703 269.748C238.915 268.499 240.456 267.875 242.324 267.875C244.357 267.875 246.025 268.663 247.328 270.24C248.632 271.808 249.283 274.392 249.283 277.992C249.283 281.656 248.604 284.299 247.246 285.922C245.888 287.544 244.12 288.355 241.941 288.355C240.374 288.355 239.107 287.941 238.141 287.111C237.175 286.273 236.555 285.024 236.281 283.365ZM244.977 274.971C244.977 273.731 244.689 272.77 244.115 272.086C243.55 271.402 242.894 271.061 242.147 271.061C241.436 271.061 240.843 271.343 240.369 271.908C239.904 272.464 239.672 273.38 239.672 274.656C239.672 275.951 239.927 276.903 240.438 277.514C240.948 278.115 241.586 278.416 242.352 278.416C243.09 278.416 243.71 278.124 244.211 277.541C244.721 276.958 244.977 276.101 244.977 274.971ZM251.653 282.682L255.372 282.23C255.49 283.178 255.809 283.903 256.329 284.404C256.848 284.906 257.477 285.156 258.215 285.156C259.008 285.156 259.674 284.855 260.211 284.254C260.758 283.652 261.032 282.841 261.032 281.82C261.032 280.854 260.772 280.089 260.252 279.523C259.733 278.958 259.099 278.676 258.352 278.676C257.86 278.676 257.272 278.771 256.588 278.963L257.012 275.832C258.051 275.859 258.844 275.636 259.391 275.162C259.938 274.679 260.211 274.041 260.211 273.248C260.211 272.574 260.011 272.036 259.61 271.635C259.209 271.234 258.676 271.033 258.01 271.033C257.354 271.033 256.793 271.261 256.329 271.717C255.864 272.173 255.581 272.838 255.481 273.713L251.94 273.111C252.186 271.899 252.555 270.933 253.047 270.213C253.549 269.484 254.241 268.914 255.126 268.504C256.019 268.085 257.017 267.875 258.12 267.875C260.006 267.875 261.519 268.477 262.659 269.68C263.598 270.664 264.067 271.776 264.067 273.016C264.067 274.775 263.105 276.178 261.182 277.227C262.331 277.473 263.247 278.024 263.93 278.881C264.623 279.738 264.969 280.772 264.969 281.984C264.969 283.743 264.327 285.243 263.042 286.482C261.756 287.722 260.157 288.342 258.243 288.342C256.429 288.342 254.925 287.822 253.731 286.783C252.537 285.735 251.844 284.368 251.653 282.682ZM274.913 288V283.967H266.71V280.604L275.405 267.875H278.632V280.59H281.12V283.967H278.632V288H274.913ZM274.913 280.59V273.74L270.306 280.59H274.913Z" fill="#FEFEE6"/>
<g filter="url(#filter3_d)">
<path fill-rule="evenodd" clip-rule="evenodd" d="M72 203C37.2061 203 9 231.206 9 266C9 300.794 37.2061 329 72 329C106.794 329 135 300.794 135 266C135 231.206 106.794 203 72 203Z" fill="white"/>
</g>
<path fill-rule="evenodd" clip-rule="evenodd" d="M72 203C37.2061 203 9 231.206 9 266C9 300.794 37.2061 329 72 329C106.794 329 135 300.794 135 266C135 231.206 106.794 203 72 203Z" fill="#C23934" stroke="white" stroke-opacity="0.25" stroke-width="6"/>
<path d="M181.531 234.142H172.288V241.7H183.025V244H169.476V222.672H182.879V224.986H172.288V231.842H181.531V234.142ZM193.767 230.582C193.357 230.514 192.913 230.479 192.434 230.479C190.657 230.479 189.451 231.236 188.816 232.75V244H186.106V228.15H188.743L188.787 229.981C189.675 228.565 190.935 227.857 192.566 227.857C193.093 227.857 193.494 227.926 193.767 228.062V230.582ZM203.938 230.582C203.527 230.514 203.083 230.479 202.605 230.479C200.827 230.479 199.621 231.236 198.986 232.75V244H196.276V228.15H198.913L198.957 229.981C199.846 228.565 201.105 227.857 202.736 227.857C203.264 227.857 203.664 227.926 203.938 228.062V230.582ZM205.436 235.929C205.436 234.376 205.739 232.979 206.344 231.739C206.959 230.499 207.809 229.542 208.893 228.868C209.987 228.194 211.232 227.857 212.628 227.857C214.787 227.857 216.53 228.604 217.858 230.099C219.196 231.593 219.865 233.58 219.865 236.061V236.251C219.865 237.794 219.567 239.181 218.971 240.411C218.385 241.632 217.541 242.584 216.437 243.268C215.343 243.951 214.084 244.293 212.658 244.293C210.509 244.293 208.766 243.546 207.428 242.052C206.1 240.558 205.436 238.58 205.436 236.119V235.929ZM208.161 236.251C208.161 238.009 208.566 239.42 209.376 240.484C210.197 241.549 211.291 242.081 212.658 242.081C214.035 242.081 215.128 241.544 215.939 240.47C216.75 239.386 217.155 237.872 217.155 235.929C217.155 234.19 216.74 232.784 215.91 231.71C215.089 230.626 213.996 230.084 212.628 230.084C211.291 230.084 210.211 230.616 209.391 231.681C208.571 232.745 208.161 234.269 208.161 236.251ZM230.929 230.582C230.519 230.514 230.074 230.479 229.596 230.479C227.818 230.479 226.612 231.236 225.978 232.75V244H223.268V228.15H225.904L225.948 229.981C226.837 228.565 228.097 227.857 229.728 227.857C230.255 227.857 230.655 227.926 230.929 228.062V230.582Z" fill="#FEFEE6"/>
<path d="M590.119 283.395H587.48L586.496 289H583.994L584.979 283.395H581.875V281.043H585.389L586.072 277.16H582.9V274.781H586.496L587.494 269.094H589.982L588.984 274.781H591.637L592.635 269.094H595.137L594.139 274.781H597.133V277.16H593.715L593.031 281.043H596.094V283.395H592.621L591.637 289H589.135L590.119 283.395ZM587.891 281.043H590.529L591.213 277.16H588.561L587.891 281.043ZM611.438 280.373H603.563V285.705H612.805V289H599.461V269.094H612.778V272.416H603.563V277.16H611.438V280.373ZM615.216 289V269.094H621.341C623.091 269.094 624.654 269.49 626.03 270.283C627.416 271.067 628.496 272.188 629.271 273.646C630.045 275.096 630.433 276.745 630.433 278.596V279.512C630.433 281.362 630.05 283.007 629.284 284.447C628.528 285.887 627.457 287.004 626.071 287.797C624.686 288.59 623.123 288.991 621.382 289H615.216ZM619.317 272.416V285.705H621.3C622.904 285.705 624.13 285.181 624.978 284.133C625.825 283.085 626.258 281.585 626.276 279.635V278.582C626.276 276.559 625.857 275.027 625.019 273.988C624.18 272.94 622.954 272.416 621.341 272.416H619.317ZM646.542 271.309L638.845 289H634.675L642.386 272.293H632.488V269.094H646.542V271.309ZM662.488 280.77C662.488 283.522 661.919 285.628 660.779 287.086C659.64 288.544 657.972 289.273 655.775 289.273C653.606 289.273 651.947 288.558 650.799 287.127C649.65 285.696 649.063 283.645 649.035 280.975V277.311C649.035 274.531 649.609 272.421 650.758 270.98C651.915 269.54 653.579 268.82 655.748 268.82C657.917 268.82 659.576 269.536 660.725 270.967C661.873 272.389 662.461 274.435 662.488 277.105V280.77ZM658.537 276.75C658.537 275.1 658.309 273.902 657.854 273.154C657.407 272.398 656.705 272.02 655.748 272.02C654.818 272.02 654.13 272.38 653.684 273.1C653.246 273.811 653.014 274.927 652.986 276.449V281.289C652.986 282.911 653.205 284.119 653.643 284.912C654.089 285.696 654.8 286.088 655.775 286.088C656.742 286.088 657.439 285.71 657.867 284.953C658.296 284.197 658.519 283.039 658.537 281.48V276.75ZM676.862 281.508H679.118V284.693H676.862V289H672.911V284.693H664.749L664.571 282.205L672.87 269.094H676.862V281.508ZM668.508 281.508H672.911V274.48L672.651 274.932L668.508 281.508ZM685.274 277.297H687.38C688.383 277.297 689.125 277.046 689.608 276.545C690.092 276.044 690.333 275.378 690.333 274.549C690.333 273.747 690.092 273.122 689.608 272.676C689.134 272.229 688.478 272.006 687.64 272.006C686.883 272.006 686.25 272.215 685.739 272.635C685.229 273.045 684.974 273.583 684.974 274.248H681.022C681.022 273.209 681.3 272.279 681.856 271.459C682.422 270.63 683.205 269.982 684.208 269.518C685.22 269.053 686.332 268.82 687.544 268.82C689.649 268.82 691.299 269.326 692.493 270.338C693.687 271.34 694.284 272.726 694.284 274.494C694.284 275.406 694.006 276.244 693.45 277.01C692.894 277.775 692.165 278.363 691.263 278.773C692.384 279.174 693.218 279.776 693.765 280.578C694.321 281.38 694.599 282.328 694.599 283.422C694.599 285.19 693.952 286.607 692.657 287.674C691.372 288.74 689.668 289.273 687.544 289.273C685.557 289.273 683.93 288.749 682.663 287.701C681.405 286.653 680.776 285.268 680.776 283.545H684.728C684.728 284.292 685.006 284.903 685.562 285.377C686.127 285.851 686.819 286.088 687.64 286.088C688.578 286.088 689.312 285.842 689.841 285.35C690.379 284.848 690.647 284.188 690.647 283.367C690.647 281.38 689.554 280.387 687.366 280.387H685.274V277.297Z" fill="#FEFEE6"/>
<g filter="url(#filter4_d)">
<path fill-rule="evenodd" clip-rule="evenodd" d="M474 204C439.206 204 411 232.206 411 267V267C411 301.794 439.206 330 474 330V330C508.794 330 537 301.794 537 267V267C537 232.206 508.794 204 474 204V204Z" fill="white"/>
</g>
<path fill-rule="evenodd" clip-rule="evenodd" d="M474 204C439.206 204 411 232.206 411 267V267C411 301.794 439.206 330 474 330V330C508.794 330 537 301.794 537 267V267C537 232.206 508.794 204 474 204V204Z" fill="#ED7043" stroke="white" stroke-opacity="0.25" stroke-width="6"/>
<path d="M588.075 237.276L588.485 240.089L589.086 237.555L593.305 222.672H595.678L599.794 237.555L600.38 240.133L600.834 237.262L604.145 222.672H606.972L601.801 244H599.237L594.843 228.458L594.506 226.832L594.169 228.458L589.613 244H587.05L581.894 222.672H584.706L588.075 237.276ZM618.973 244C618.817 243.688 618.69 243.131 618.592 242.33C617.333 243.639 615.829 244.293 614.081 244.293C612.518 244.293 611.234 243.854 610.228 242.975C609.232 242.086 608.734 240.963 608.734 239.605C608.734 237.955 609.359 236.676 610.609 235.768C611.869 234.85 613.636 234.391 615.912 234.391H618.548V233.146C618.548 232.198 618.265 231.446 617.699 230.89C617.132 230.323 616.297 230.04 615.194 230.04C614.227 230.04 613.417 230.284 612.762 230.772C612.108 231.261 611.781 231.852 611.781 232.545H609.056C609.056 231.754 609.334 230.992 609.891 230.26C610.458 229.518 611.219 228.932 612.176 228.502C613.143 228.072 614.203 227.857 615.355 227.857C617.181 227.857 618.612 228.316 619.647 229.234C620.682 230.143 621.219 231.397 621.258 232.999V240.294C621.258 241.749 621.444 242.906 621.815 243.766V244H618.973ZM614.476 241.935C615.326 241.935 616.131 241.715 616.893 241.275C617.655 240.836 618.207 240.265 618.548 239.562V236.31H616.424C613.104 236.31 611.444 237.281 611.444 239.225C611.444 240.074 611.727 240.738 612.293 241.217C612.86 241.695 613.587 241.935 614.476 241.935ZM633.172 230.582C632.762 230.514 632.317 230.479 631.839 230.479C630.062 230.479 628.855 231.236 628.221 232.75V244H625.511V228.15H628.147L628.191 229.981C629.08 228.565 630.34 227.857 631.971 227.857C632.498 227.857 632.898 227.926 633.172 228.062V230.582ZM638.245 228.15L638.333 230.143C639.543 228.619 641.126 227.857 643.079 227.857C646.428 227.857 648.118 229.747 648.147 233.526V244H645.437V233.512C645.427 232.369 645.164 231.524 644.646 230.978C644.138 230.431 643.342 230.157 642.258 230.157C641.379 230.157 640.608 230.392 639.944 230.86C639.28 231.329 638.762 231.944 638.391 232.706V244H635.681V228.15H638.245ZM655.183 244H652.473V228.15H655.183V244ZM652.253 223.946C652.253 223.507 652.385 223.136 652.648 222.833C652.922 222.53 653.322 222.379 653.85 222.379C654.377 222.379 654.777 222.53 655.051 222.833C655.324 223.136 655.461 223.507 655.461 223.946C655.461 224.386 655.324 224.752 655.051 225.045C654.777 225.338 654.377 225.484 653.85 225.484C653.322 225.484 652.922 225.338 652.648 225.045C652.385 224.752 652.253 224.386 652.253 223.946ZM662.101 228.15L662.189 230.143C663.4 228.619 664.982 227.857 666.935 227.857C670.285 227.857 671.974 229.747 672.003 233.526V244H669.293V233.512C669.284 232.369 669.02 231.524 668.502 230.978C667.995 230.431 667.199 230.157 666.115 230.157C665.236 230.157 664.464 230.392 663.8 230.86C663.136 231.329 662.619 231.944 662.248 232.706V244H659.538V228.15H662.101ZM675.45 235.943C675.45 233.473 676.022 231.51 677.164 230.055C678.307 228.59 679.82 227.857 681.705 227.857C683.639 227.857 685.147 228.541 686.231 229.908L686.363 228.15H688.839V243.619C688.839 245.67 688.229 247.286 687.008 248.468C685.797 249.649 684.166 250.24 682.115 250.24C680.973 250.24 679.855 249.996 678.761 249.508C677.667 249.02 676.832 248.351 676.256 247.501L677.662 245.875C678.824 247.311 680.245 248.028 681.925 248.028C683.243 248.028 684.269 247.657 685.001 246.915C685.743 246.173 686.114 245.128 686.114 243.78V242.418C685.03 243.668 683.551 244.293 681.676 244.293C679.82 244.293 678.316 243.546 677.164 242.052C676.022 240.558 675.45 238.521 675.45 235.943ZM678.175 236.251C678.175 238.038 678.541 239.444 679.273 240.47C680.006 241.485 681.031 241.993 682.35 241.993C684.059 241.993 685.314 241.217 686.114 239.664V232.428C685.284 230.914 684.039 230.157 682.379 230.157C681.061 230.157 680.03 230.67 679.288 231.695C678.546 232.721 678.175 234.239 678.175 236.251Z" fill="#FEFEE6"/>
<path d="M981.105 283.01H979.246V280.002H981.707L982.527 275.969H979.246V272.947H983.143L984.223 267.615H987.285L986.205 272.947H989.227L990.279 267.615H993.451L992.357 272.947H994.244V275.969H991.742L990.922 280.002H994.244V283.01H990.307L989.227 288.342H986.178L987.23 283.01H984.195L983.115 288.342H980.025L981.105 283.01ZM985.604 275.969L984.797 280.002H987.832L988.625 275.969H985.604ZM1003.31 288V283.967H995.11V280.604L1003.81 267.875H1007.03V280.59H1009.52V283.967H1007.03V288H1003.31ZM1003.31 280.59V273.74L998.706 280.59H1003.31ZM1012.23 267.957H1020.24C1021.83 267.957 1023.01 268.025 1023.78 268.162C1024.57 268.29 1025.27 268.563 1025.88 268.982C1026.5 269.402 1027.01 269.962 1027.42 270.664C1027.83 271.357 1028.04 272.136 1028.04 273.002C1028.04 273.941 1027.78 274.802 1027.27 275.586C1026.77 276.37 1026.09 276.958 1025.22 277.35C1026.44 277.705 1027.38 278.311 1028.04 279.168C1028.69 280.025 1029.02 281.032 1029.02 282.189C1029.02 283.101 1028.81 283.99 1028.38 284.855C1027.96 285.712 1027.38 286.4 1026.64 286.92C1025.91 287.43 1025.01 287.745 1023.93 287.863C1023.26 287.936 1021.63 287.982 1019.05 288H1012.23V267.957ZM1016.28 271.293V275.928H1018.93C1020.51 275.928 1021.49 275.905 1021.87 275.859C1022.56 275.777 1023.11 275.54 1023.5 275.148C1023.9 274.747 1024.1 274.223 1024.1 273.576C1024.1 272.956 1023.93 272.455 1023.58 272.072C1023.24 271.68 1022.74 271.443 1022.06 271.361C1021.66 271.316 1020.51 271.293 1018.6 271.293H1016.28ZM1016.28 279.264V284.623H1020.02C1021.48 284.623 1022.41 284.582 1022.8 284.5C1023.4 284.391 1023.89 284.126 1024.26 283.707C1024.65 283.279 1024.84 282.709 1024.84 281.998C1024.84 281.396 1024.69 280.886 1024.4 280.467C1024.11 280.048 1023.68 279.742 1023.13 279.551C1022.58 279.359 1021.39 279.264 1019.55 279.264H1016.28ZM1045.28 280.631L1049.2 281.875C1048.6 284.062 1047.6 285.689 1046.2 286.756C1044.8 287.813 1043.03 288.342 1040.88 288.342C1038.22 288.342 1036.03 287.435 1034.32 285.621C1032.6 283.798 1031.75 281.31 1031.75 278.156C1031.75 274.82 1032.61 272.232 1034.33 270.391C1036.05 268.54 1038.32 267.615 1041.12 267.615C1043.58 267.615 1045.57 268.34 1047.1 269.789C1048.01 270.646 1048.69 271.876 1049.15 273.48L1045.14 274.438C1044.91 273.398 1044.41 272.578 1043.65 271.977C1042.91 271.375 1041.99 271.074 1040.92 271.074C1039.43 271.074 1038.23 271.607 1037.3 272.674C1036.38 273.74 1035.92 275.467 1035.92 277.855C1035.92 280.389 1036.37 282.194 1037.28 283.27C1038.19 284.345 1039.38 284.883 1040.84 284.883C1041.91 284.883 1042.84 284.541 1043.61 283.857C1044.39 283.174 1044.94 282.098 1045.28 280.631ZM1070.77 288H1066.37L1064.62 283.447H1056.61L1054.95 288H1050.66L1058.46 267.957H1062.74L1070.77 288ZM1063.32 280.07L1060.56 272.633L1057.85 280.07H1063.32ZM1075.38 277.186C1074.39 276.766 1073.66 276.192 1073.21 275.463C1072.76 274.725 1072.54 273.918 1072.54 273.043C1072.54 271.548 1073.06 270.313 1074.1 269.338C1075.14 268.363 1076.63 267.875 1078.55 267.875C1080.46 267.875 1081.93 268.363 1082.98 269.338C1084.04 270.313 1084.57 271.548 1084.57 273.043C1084.57 273.973 1084.33 274.802 1083.84 275.531C1083.36 276.251 1082.68 276.803 1081.81 277.186C1082.92 277.632 1083.76 278.284 1084.34 279.141C1084.92 279.997 1085.21 280.986 1085.21 282.107C1085.21 283.958 1084.62 285.462 1083.43 286.619C1082.26 287.777 1080.69 288.355 1078.73 288.355C1076.91 288.355 1075.39 287.877 1074.18 286.92C1072.75 285.79 1072.03 284.24 1072.03 282.271C1072.03 281.187 1072.3 280.193 1072.84 279.291C1073.38 278.38 1074.22 277.678 1075.38 277.186ZM1076.17 273.316C1076.17 274.082 1076.39 274.679 1076.82 275.107C1077.25 275.536 1077.83 275.75 1078.55 275.75C1079.28 275.75 1079.87 275.536 1080.3 275.107C1080.74 274.67 1080.96 274.068 1080.96 273.303C1080.96 272.583 1080.74 272.008 1080.3 271.58C1079.87 271.143 1079.31 270.924 1078.59 270.924C1077.86 270.924 1077.27 271.143 1076.83 271.58C1076.39 272.018 1076.17 272.596 1076.17 273.316ZM1075.82 281.902C1075.82 282.96 1076.09 283.785 1076.63 284.377C1077.17 284.969 1077.85 285.266 1078.66 285.266C1079.46 285.266 1080.11 284.983 1080.63 284.418C1081.15 283.844 1081.41 283.019 1081.41 281.943C1081.41 281.005 1081.15 280.253 1080.62 279.688C1080.09 279.113 1079.42 278.826 1078.61 278.826C1077.67 278.826 1076.97 279.15 1076.5 279.797C1076.05 280.444 1075.82 281.146 1075.82 281.902ZM1097.51 288H1093.67V273.521C1092.26 274.834 1090.61 275.805 1088.7 276.434V272.947C1089.7 272.619 1090.79 271.999 1091.97 271.088C1093.15 270.167 1093.95 269.096 1094.39 267.875H1097.51V288Z" fill="#FEFEE6"/>
<g filter="url(#filter5_d)">
<path fill-rule="evenodd" clip-rule="evenodd" d="M872 204C837.206 204 809 232.206 809 267C809 301.794 837.206 330 872 330C906.794 330 935 301.794 935 267C935 232.206 906.794 204 872 204Z" fill="white"/>
</g>
<path fill-rule="evenodd" clip-rule="evenodd" d="M872 204C837.206 204 809 232.206 809 267C809 301.794 837.206 330 872 330C906.794 330 935 301.794 935 267C935 232.206 906.794 204 872 204Z" fill="#4BCA81" stroke="white" stroke-opacity="0.25" stroke-width="6"/>
<path d="M987.76 234.493C985.348 233.8 983.59 232.95 982.486 231.944C981.393 230.929 980.846 229.679 980.846 228.194C980.846 226.515 981.515 225.128 982.853 224.034C984.2 222.931 985.948 222.379 988.097 222.379C989.562 222.379 990.865 222.662 992.008 223.229C993.16 223.795 994.049 224.576 994.674 225.572C995.309 226.568 995.626 227.657 995.626 228.839H992.799C992.799 227.55 992.389 226.539 991.568 225.807C990.748 225.064 989.591 224.693 988.097 224.693C986.71 224.693 985.626 225.001 984.845 225.616C984.073 226.222 983.688 227.066 983.688 228.15C983.688 229.02 984.054 229.757 984.786 230.362C985.528 230.958 986.783 231.505 988.551 232.003C990.328 232.501 991.715 233.053 992.711 233.658C993.717 234.254 994.459 234.952 994.938 235.753C995.426 236.554 995.67 237.496 995.67 238.58C995.67 240.309 994.996 241.695 993.648 242.74C992.301 243.775 990.499 244.293 988.243 244.293C986.778 244.293 985.411 244.015 984.142 243.458C982.872 242.892 981.891 242.12 981.197 241.144C980.514 240.167 980.172 239.059 980.172 237.818H982.999C982.999 239.107 983.473 240.128 984.42 240.88C985.377 241.622 986.651 241.993 988.243 241.993C989.728 241.993 990.865 241.69 991.656 241.085C992.447 240.479 992.843 239.654 992.843 238.609C992.843 237.564 992.477 236.759 991.744 236.192C991.012 235.616 989.684 235.05 987.76 234.493ZM1008.65 242.433C1007.6 243.673 1006.05 244.293 1004.01 244.293C1002.32 244.293 1001.03 243.805 1000.14 242.828C999.263 241.842 998.819 240.387 998.809 238.463V228.15H1001.52V238.39C1001.52 240.792 1002.5 241.993 1004.45 241.993C1006.52 241.993 1007.9 241.222 1008.58 239.679V228.15H1011.29V244H1008.71L1008.65 242.433ZM1021.78 242.081C1022.75 242.081 1023.59 241.788 1024.32 241.202C1025.04 240.616 1025.44 239.884 1025.52 239.005H1028.08C1028.03 239.913 1027.72 240.777 1027.14 241.598C1026.57 242.418 1025.8 243.072 1024.83 243.561C1023.87 244.049 1022.86 244.293 1021.78 244.293C1019.62 244.293 1017.91 243.575 1016.63 242.14C1015.36 240.694 1014.72 238.722 1014.72 236.222V235.768C1014.72 234.225 1015 232.853 1015.57 231.651C1016.14 230.45 1016.95 229.518 1018 228.854C1019.07 228.189 1020.32 227.857 1021.77 227.857C1023.54 227.857 1025.02 228.39 1026.19 229.454C1027.37 230.519 1028 231.9 1028.08 233.6H1025.52C1025.44 232.574 1025.05 231.734 1024.35 231.08C1023.65 230.416 1022.79 230.084 1021.77 230.084C1020.39 230.084 1019.32 230.582 1018.56 231.578C1017.81 232.564 1017.43 233.995 1017.43 235.87V236.383C1017.43 238.209 1017.81 239.615 1018.56 240.602C1019.31 241.588 1020.39 242.081 1021.78 242.081ZM1037.49 242.081C1038.46 242.081 1039.3 241.788 1040.02 241.202C1040.75 240.616 1041.15 239.884 1041.23 239.005H1043.79C1043.74 239.913 1043.43 240.777 1042.85 241.598C1042.27 242.418 1041.5 243.072 1040.54 243.561C1039.58 244.049 1038.56 244.293 1037.49 244.293C1035.33 244.293 1033.61 243.575 1032.33 242.14C1031.06 240.694 1030.43 238.722 1030.43 236.222V235.768C1030.43 234.225 1030.71 232.853 1031.28 231.651C1031.85 230.45 1032.66 229.518 1033.71 228.854C1034.77 228.189 1036.03 227.857 1037.48 227.857C1039.25 227.857 1040.73 228.39 1041.9 229.454C1043.08 230.519 1043.71 231.9 1043.79 233.6H1041.23C1041.15 232.574 1040.76 231.734 1040.05 231.08C1039.36 230.416 1038.5 230.084 1037.48 230.084C1036.1 230.084 1035.03 230.582 1034.27 231.578C1033.52 232.564 1033.14 233.995 1033.14 235.87V236.383C1033.14 238.209 1033.52 239.615 1034.27 240.602C1035.02 241.588 1036.09 242.081 1037.49 242.081ZM1053.42 244.293C1051.27 244.293 1049.52 243.59 1048.17 242.184C1046.83 240.768 1046.15 238.878 1046.15 236.515V236.017C1046.15 234.444 1046.45 233.043 1047.04 231.812C1047.65 230.572 1048.49 229.605 1049.56 228.912C1050.65 228.209 1051.82 227.857 1053.08 227.857C1055.14 227.857 1056.74 228.536 1057.88 229.894C1059.03 231.251 1059.6 233.194 1059.6 235.724V236.852H1048.86C1048.9 238.414 1049.35 239.679 1050.22 240.646C1051.1 241.603 1052.22 242.081 1053.56 242.081C1054.52 242.081 1055.33 241.886 1056 241.495C1056.66 241.104 1057.24 240.587 1057.74 239.942L1059.39 241.231C1058.07 243.272 1056.07 244.293 1053.42 244.293ZM1053.08 230.084C1051.99 230.084 1051.07 230.484 1050.33 231.285C1049.58 232.076 1049.13 233.189 1048.95 234.625H1056.89V234.42C1056.81 233.043 1056.44 231.979 1055.78 231.227C1055.11 230.465 1054.21 230.084 1053.08 230.084ZM1071.98 239.796C1071.98 239.063 1071.7 238.497 1071.15 238.097C1070.6 237.687 1069.64 237.335 1068.26 237.042C1066.89 236.749 1065.8 236.397 1064.99 235.987C1064.19 235.577 1063.6 235.089 1063.21 234.522C1062.83 233.956 1062.64 233.282 1062.64 232.501C1062.64 231.202 1063.18 230.104 1064.28 229.205C1065.38 228.307 1066.79 227.857 1068.49 227.857C1070.29 227.857 1071.75 228.321 1072.86 229.249C1073.98 230.177 1074.54 231.363 1074.54 232.809H1071.82C1071.82 232.066 1071.5 231.427 1070.87 230.89C1070.24 230.353 1069.45 230.084 1068.49 230.084C1067.51 230.084 1066.74 230.299 1066.18 230.729C1065.62 231.158 1065.35 231.72 1065.35 232.413C1065.35 233.067 1065.6 233.561 1066.12 233.893C1066.64 234.225 1067.57 234.542 1068.92 234.845C1070.28 235.147 1071.38 235.509 1072.22 235.929C1073.06 236.349 1073.68 236.856 1074.08 237.452C1074.49 238.038 1074.69 238.756 1074.69 239.605C1074.69 241.021 1074.12 242.159 1072.99 243.019C1071.86 243.868 1070.39 244.293 1068.58 244.293C1067.31 244.293 1066.19 244.068 1065.21 243.619C1064.24 243.17 1063.47 242.545 1062.91 241.744C1062.37 240.934 1062.09 240.06 1062.09 239.122H1064.8C1064.85 240.03 1065.21 240.753 1065.89 241.29C1066.57 241.817 1067.47 242.081 1068.58 242.081C1069.61 242.081 1070.43 241.876 1071.04 241.466C1071.67 241.046 1071.98 240.489 1071.98 239.796ZM1087.45 239.796C1087.45 239.063 1087.18 238.497 1086.62 238.097C1086.07 237.687 1085.11 237.335 1083.73 237.042C1082.37 236.749 1081.28 236.397 1080.47 235.987C1079.67 235.577 1079.07 235.089 1078.68 234.522C1078.3 233.956 1078.11 233.282 1078.11 232.501C1078.11 231.202 1078.66 230.104 1079.75 229.205C1080.85 228.307 1082.26 227.857 1083.97 227.857C1085.76 227.857 1087.22 228.321 1088.33 229.249C1089.46 230.177 1090.02 231.363 1090.02 232.809H1087.29C1087.29 232.066 1086.98 231.427 1086.34 230.89C1085.72 230.353 1084.92 230.084 1083.97 230.084C1082.98 230.084 1082.21 230.299 1081.65 230.729C1081.1 231.158 1080.82 231.72 1080.82 232.413C1080.82 233.067 1081.08 233.561 1081.59 233.893C1082.11 234.225 1083.04 234.542 1084.39 234.845C1085.75 235.147 1086.85 235.509 1087.69 235.929C1088.53 236.349 1089.15 236.856 1089.55 237.452C1089.96 238.038 1090.16 238.756 1090.16 239.605C1090.16 241.021 1089.6 242.159 1088.46 243.019C1087.33 243.868 1085.86 244.293 1084.06 244.293C1082.79 244.293 1081.66 244.068 1080.69 243.619C1079.71 243.17 1078.94 242.545 1078.39 241.744C1077.84 240.934 1077.57 240.06 1077.57 239.122H1080.28C1080.33 240.03 1080.69 240.753 1081.36 241.29C1082.04 241.817 1082.94 242.081 1084.06 242.081C1085.08 242.081 1085.9 241.876 1086.52 241.466C1087.14 241.046 1087.45 240.489 1087.45 239.796Z" fill="#FEFEE6"/>
<path d="M1406.12 88.3945H1403.48L1402.5 94H1399.99L1400.98 88.3945H1397.88V86.043H1401.39L1402.07 82.1602H1398.9V79.7812H1402.5L1403.49 74.0938H1405.98L1404.98 79.7812H1407.64L1408.63 74.0938H1411.14L1410.14 79.7812H1413.13V82.1602H1409.71L1409.03 86.043H1412.09V88.3945H1408.62L1407.64 94H1405.13L1406.12 88.3945ZM1403.89 86.043H1406.53L1407.21 82.1602H1404.56L1403.89 86.043ZM1419.06 82.2969H1421.16C1422.17 82.2969 1422.91 82.0462 1423.39 81.5449C1423.87 81.0436 1424.12 80.3783 1424.12 79.5488C1424.12 78.7467 1423.87 78.1224 1423.39 77.6758C1422.92 77.2292 1422.26 77.0059 1421.42 77.0059C1420.67 77.0059 1420.03 77.2155 1419.52 77.6348C1419.01 78.0449 1418.76 78.5827 1418.76 79.248H1414.81C1414.81 78.209 1415.08 77.2793 1415.64 76.459C1416.2 75.6296 1416.99 74.9824 1417.99 74.5176C1419 74.0527 1420.11 73.8203 1421.33 73.8203C1423.43 73.8203 1425.08 74.3262 1426.28 75.3379C1427.47 76.3405 1428.07 77.7259 1428.07 79.4941C1428.07 80.4056 1427.79 81.2441 1427.23 82.0098C1426.68 82.7754 1425.95 83.3633 1425.05 83.7734C1426.17 84.1745 1427 84.776 1427.55 85.5781C1428.1 86.3802 1428.38 87.3281 1428.38 88.4219C1428.38 90.1901 1427.73 91.6074 1426.44 92.6738C1425.15 93.7402 1423.45 94.2734 1421.33 94.2734C1419.34 94.2734 1417.71 93.7493 1416.45 92.7012C1415.19 91.653 1414.56 90.2676 1414.56 88.5449H1418.51C1418.51 89.2923 1418.79 89.903 1419.34 90.377C1419.91 90.8509 1420.6 91.0879 1421.42 91.0879C1422.36 91.0879 1423.09 90.8418 1423.62 90.3496C1424.16 89.8483 1424.43 89.1875 1424.43 88.3672C1424.43 86.3802 1423.34 85.3867 1421.15 85.3867H1419.06V82.2969ZM1447.17 87.3691C1447.02 89.5111 1446.22 91.1973 1444.79 92.4277C1443.37 93.6582 1441.49 94.2734 1439.16 94.2734C1436.61 94.2734 1434.6 93.4167 1433.13 91.7031C1431.67 89.9805 1430.94 87.6198 1430.94 84.6211V83.4043C1430.94 81.4902 1431.28 79.804 1431.95 78.3457C1432.63 76.8874 1433.59 75.7708 1434.84 74.9961C1436.1 74.2122 1437.56 73.8203 1439.21 73.8203C1441.51 73.8203 1443.36 74.4355 1444.76 75.666C1446.17 76.8965 1446.98 78.6237 1447.2 80.8477H1443.1C1443 79.5625 1442.64 78.6328 1442.02 78.0586C1441.41 77.4753 1440.47 77.1836 1439.21 77.1836C1437.85 77.1836 1436.82 77.6758 1436.14 78.6602C1435.46 79.6354 1435.12 81.153 1435.1 83.2129V84.7168C1435.1 86.8678 1435.42 88.4401 1436.07 89.4336C1436.73 90.4271 1437.76 90.9238 1439.16 90.9238C1440.43 90.9238 1441.37 90.6367 1441.99 90.0625C1442.62 89.4792 1442.98 88.5814 1443.07 87.3691H1447.17ZM1460.16 73.8887V77.1426H1459.78C1457.99 77.1699 1456.55 77.6348 1455.46 78.5371C1454.38 79.4395 1453.72 80.6927 1453.51 82.2969C1454.56 81.2214 1455.9 80.6836 1457.51 80.6836C1459.24 80.6836 1460.62 81.3034 1461.64 82.543C1462.66 83.7826 1463.17 85.4141 1463.17 87.4375C1463.17 88.7318 1462.89 89.903 1462.32 90.9512C1461.77 91.9993 1460.97 92.8151 1459.94 93.3984C1458.92 93.9818 1457.77 94.2734 1456.47 94.2734C1454.38 94.2734 1452.68 93.5443 1451.39 92.0859C1450.1 90.6276 1449.46 88.6816 1449.46 86.248V84.8262C1449.46 82.666 1449.86 80.7611 1450.68 79.1113C1451.5 77.4525 1452.67 76.1719 1454.19 75.2695C1455.72 74.3581 1457.49 73.8978 1459.51 73.8887H1460.16ZM1456.31 83.8555C1455.67 83.8555 1455.09 84.0241 1454.57 84.3613C1454.05 84.6895 1453.67 85.127 1453.42 85.6738V86.877C1453.42 88.1986 1453.68 89.2331 1454.2 89.9805C1454.72 90.7188 1455.45 91.0879 1456.39 91.0879C1457.24 91.0879 1457.92 90.7552 1458.44 90.0898C1458.97 89.4154 1459.23 88.5449 1459.23 87.4785C1459.23 86.3939 1458.97 85.5189 1458.44 84.8535C1457.91 84.1882 1457.2 83.8555 1456.31 83.8555ZM1465.95 94V74.0938H1472.92C1475.34 74.0938 1477.17 74.5586 1478.42 75.4883C1479.67 76.4089 1480.29 77.7624 1480.29 79.5488C1480.29 80.5241 1480.04 81.3854 1479.54 82.1328C1479.04 82.8711 1478.34 83.4134 1477.45 83.7598C1478.47 84.015 1479.27 84.5299 1479.86 85.3047C1480.45 86.0794 1480.74 87.0273 1480.74 88.1484C1480.74 90.0625 1480.13 91.5117 1478.91 92.4961C1477.69 93.4805 1475.95 93.9818 1473.69 94H1465.95ZM1470.05 85.332V90.7051H1473.57C1474.53 90.7051 1475.28 90.4772 1475.82 90.0215C1476.37 89.5566 1476.64 88.9186 1476.64 88.1074C1476.64 86.2845 1475.7 85.3594 1473.81 85.332H1470.05ZM1470.05 82.4336H1473.09C1475.16 82.3971 1476.19 81.5723 1476.19 79.959C1476.19 79.0566 1475.93 78.4095 1475.4 78.0176C1474.88 77.6165 1474.05 77.416 1472.92 77.416H1470.05V82.4336ZM1495.81 85.373H1487.94V90.7051H1497.18V94H1483.84V74.0938H1497.15V77.416H1487.94V82.1602H1495.81V85.373ZM1508.77 94H1504.82V78.7695L1500.1 80.2324V77.0195L1508.34 74.0664H1508.77V94Z" fill="#FEFEE6"/>
<g filter="url(#filter6_d)">
<path fill-rule="evenodd" clip-rule="evenodd" d="M1290 9C1255.21 9 1227 37.2061 1227 72C1227 106.794 1255.21 135 1290 135C1324.79 135 1353 106.794 1353 72C1353 37.2061 1324.79 9 1290 9Z" fill="white"/>
</g>
<path fill-rule="evenodd" clip-rule="evenodd" d="M1290 9C1255.21 9 1227 37.2061 1227 72C1227 106.794 1255.21 135 1290 135C1324.79 135 1353 106.794 1353 72C1353 37.2061 1324.79 9 1290 9Z" fill="#3C6BE1" stroke="white" stroke-opacity="0.25" stroke-width="6"/>
<path d="M1414.74 40.3721H1409.73V49H1406.91V27.6719H1413.97C1416.37 27.6719 1418.22 28.2188 1419.5 29.3125C1420.8 30.4062 1421.45 31.998 1421.45 34.0879C1421.45 35.416 1421.09 36.5732 1420.37 37.5596C1419.66 38.5459 1418.66 39.2832 1417.38 39.7715L1422.39 48.8242V49H1419.37L1414.74 40.3721ZM1409.73 38.0723H1414.06C1415.45 38.0723 1416.56 37.7109 1417.38 36.9883C1418.21 36.2656 1418.63 35.2988 1418.63 34.0879C1418.63 32.7695 1418.23 31.7588 1417.44 31.0557C1416.66 30.3525 1415.52 29.9961 1414.04 29.9863H1409.73V38.0723ZM1424.27 40.9287C1424.27 39.376 1424.57 37.9795 1425.18 36.7393C1425.79 35.499 1426.64 34.542 1427.73 33.8682C1428.82 33.1943 1430.07 32.8574 1431.46 32.8574C1433.62 32.8574 1435.36 33.6045 1436.69 35.0986C1438.03 36.5928 1438.7 38.5801 1438.7 41.0605V41.251C1438.7 42.7939 1438.4 44.1807 1437.8 45.4111C1437.22 46.6318 1436.37 47.584 1435.27 48.2676C1434.18 48.9512 1432.92 49.293 1431.49 49.293C1429.34 49.293 1427.6 48.5459 1426.26 47.0518C1424.93 45.5576 1424.27 43.5801 1424.27 41.1191V40.9287ZM1426.99 41.251C1426.99 43.0088 1427.4 44.4199 1428.21 45.4844C1429.03 46.5488 1430.12 47.0811 1431.49 47.0811C1432.87 47.0811 1433.96 46.5439 1434.77 45.4697C1435.58 44.3857 1435.99 42.8721 1435.99 40.9287C1435.99 39.1904 1435.57 37.7842 1434.74 36.71C1433.92 35.626 1432.83 35.084 1431.46 35.084C1430.12 35.084 1429.04 35.6162 1428.22 36.6807C1427.4 37.7451 1426.99 39.2686 1426.99 41.251ZM1447.05 45.0303L1450.74 33.1504H1453.64L1447.27 51.4463C1446.29 54.083 1444.72 55.4014 1442.57 55.4014L1442.06 55.3574L1441.05 55.167V52.9697L1441.78 53.0283C1442.7 53.0283 1443.41 52.8428 1443.92 52.4717C1444.44 52.1006 1444.86 51.4219 1445.19 50.4355L1445.79 48.8242L1440.14 33.1504H1443.1L1447.05 45.0303ZM1465.63 49C1465.47 48.6875 1465.35 48.1309 1465.25 47.3301C1463.99 48.6387 1462.49 49.293 1460.74 49.293C1459.18 49.293 1457.89 48.8535 1456.89 47.9746C1455.89 47.0859 1455.39 45.9629 1455.39 44.6055C1455.39 42.9551 1456.02 41.6758 1457.27 40.7676C1458.53 39.8496 1460.29 39.3906 1462.57 39.3906H1465.21V38.1455C1465.21 37.1982 1464.92 36.4463 1464.36 35.8896C1463.79 35.3232 1462.96 35.04 1461.85 35.04C1460.88 35.04 1460.07 35.2842 1459.42 35.7725C1458.77 36.2607 1458.44 36.8516 1458.44 37.5449H1455.71C1455.71 36.7539 1455.99 35.9922 1456.55 35.2598C1457.12 34.5176 1457.88 33.9316 1458.83 33.502C1459.8 33.0723 1460.86 32.8574 1462.01 32.8574C1463.84 32.8574 1465.27 33.3164 1466.3 34.2344C1467.34 35.1426 1467.88 36.3975 1467.92 37.999V45.2939C1467.92 46.749 1468.1 47.9062 1468.47 48.7656V49H1465.63ZM1461.13 46.9346C1461.98 46.9346 1462.79 46.7148 1463.55 46.2754C1464.31 45.8359 1464.86 45.2646 1465.21 44.5615V41.3096H1463.08C1459.76 41.3096 1458.1 42.2812 1458.1 44.2246C1458.1 45.0742 1458.38 45.7383 1458.95 46.2168C1459.52 46.6953 1460.25 46.9346 1461.13 46.9346ZM1475.11 49H1472.4V26.5H1475.11V49ZM1487.34 49V27.6719H1494.31C1496.63 27.6719 1498.36 28.1504 1499.53 29.1074C1500.7 30.0645 1501.28 31.4805 1501.28 33.3555C1501.28 34.3516 1501 35.2354 1500.43 36.0068C1499.87 36.7686 1499.1 37.3594 1498.12 37.7793C1499.27 38.1016 1500.18 38.7168 1500.84 39.625C1501.52 40.5234 1501.86 41.5977 1501.86 42.8477C1501.86 44.7617 1501.23 46.2656 1499.99 47.3594C1498.75 48.4531 1497 49 1494.74 49H1487.34ZM1490.15 39.0244V46.7002H1494.79C1496.1 46.7002 1497.13 46.3633 1497.89 45.6895C1498.65 45.0059 1499.03 44.0684 1499.03 42.877C1499.03 40.3086 1497.63 39.0244 1494.84 39.0244H1490.15ZM1490.15 36.7686H1494.4C1495.63 36.7686 1496.61 36.4609 1497.34 35.8457C1498.09 35.2305 1498.46 34.3955 1498.46 33.3408C1498.46 32.1689 1498.11 31.3193 1497.43 30.792C1496.75 30.2549 1495.71 29.9863 1494.31 29.9863H1490.15V36.7686ZM1508.55 49H1505.84V26.5H1508.55V49ZM1522.69 47.4326C1521.64 48.6729 1520.09 49.293 1518.05 49.293C1516.36 49.293 1515.07 48.8047 1514.18 47.8281C1513.3 46.8418 1512.86 45.3867 1512.85 43.4629V33.1504H1515.56V43.3896C1515.56 45.792 1516.54 46.9932 1518.49 46.9932C1520.56 46.9932 1521.94 46.2217 1522.62 44.6787V33.1504H1525.33V49H1522.75L1522.69 47.4326ZM1536.04 49.293C1533.89 49.293 1532.15 48.5898 1530.8 47.1836C1529.45 45.7676 1528.78 43.8779 1528.78 41.5146V41.0166C1528.78 39.4443 1529.08 38.043 1529.67 36.8125C1530.28 35.5723 1531.12 34.6055 1532.19 33.9121C1533.27 33.209 1534.45 32.8574 1535.71 32.8574C1537.77 32.8574 1539.37 33.5361 1540.51 34.8936C1541.65 36.251 1542.22 38.1943 1542.22 40.7236V41.8516H1531.49C1531.53 43.4141 1531.98 44.6787 1532.85 45.6455C1533.73 46.6025 1534.84 47.0811 1536.19 47.0811C1537.15 47.0811 1537.96 46.8857 1538.62 46.4951C1539.29 46.1045 1539.87 45.5869 1540.36 44.9424L1542.02 46.2314C1540.69 48.2725 1538.7 49.293 1536.04 49.293ZM1535.71 35.084C1534.61 35.084 1533.69 35.4844 1532.95 36.2852C1532.21 37.0762 1531.75 38.1895 1531.58 39.625H1539.51V39.4199C1539.44 38.043 1539.07 36.9785 1538.4 36.2266C1537.74 35.4648 1536.84 35.084 1535.71 35.084Z" fill="#FEFEE6"/>
</g>
<defs>
<filter id="filter0_d" x="-5" y="2" width="154" height="154" filterUnits="userSpaceOnUse" color-interpolation-filters="sRGB">
<feFlood flood-opacity="0" result="BackgroundImageFix"/>
<feColorMatrix in="SourceAlpha" type="matrix" values="0 0 0 0 0 0 0 0 0 0 0 0 0 0 0 0 0 0 127 0"/>
<feOffset dy="8"/>
<feGaussianBlur stdDeviation="7"/>
<feColorMatrix type="matrix" values="0 0 0 0 0.0235294 0 0 0 0 0.109804 0 0 0 0 0.247059 0 0 0 0.3 0"/>
<feBlend mode="normal" in2="BackgroundImageFix" result="effect1_dropShadow"/>
<feBlend mode="normal" in="SourceGraphic" in2="effect1_dropShadow" result="shape"/>
</filter>
<filter id="filter1_d" x="397" y="3" width="154" height="154" filterUnits="userSpaceOnUse" color-interpolation-filters="sRGB">
<feFlood flood-opacity="0" result="BackgroundImageFix"/>
<feColorMatrix in="SourceAlpha" type="matrix" values="0 0 0 0 0 0 0 0 0 0 0 0 0 0 0 0 0 0 127 0"/>
<feOffset dy="8"/>
<feGaussianBlur stdDeviation="7"/>
<feColorMatrix type="matrix" values="0 0 0 0 0.0235294 0 0 0 0 0.109804 0 0 0 0 0.247059 0 0 0 0.3 0"/>
<feBlend mode="normal" in2="BackgroundImageFix" result="effect1_dropShadow"/>
<feBlend mode="normal" in="SourceGraphic" in2="effect1_dropShadow" result="shape"/>
</filter>
<filter id="filter2_d" x="795" y="3" width="154" height="154" filterUnits="userSpaceOnUse" color-interpolation-filters="sRGB">
<feFlood flood-opacity="0" result="BackgroundImageFix"/>
<feColorMatrix in="SourceAlpha" type="matrix" values="0 0 0 0 0 0 0 0 0 0 0 0 0 0 0 0 0 0 127 0"/>
<feOffset dy="8"/>
<feGaussianBlur stdDeviation="7"/>
<feColorMatrix type="matrix" values="0 0 0 0 0.0235294 0 0 0 0 0.109804 0 0 0 0 0.247059 0 0 0 0.3 0"/>
<feBlend mode="normal" in2="BackgroundImageFix" result="effect1_dropShadow"/>
<feBlend mode="normal" in="SourceGraphic" in2="effect1_dropShadow" result="shape"/>
</filter>
<filter id="filter3_d" x="-5" y="197" width="154" height="154" filterUnits="userSpaceOnUse" color-interpolation-filters="sRGB">
<feFlood flood-opacity="0" result="BackgroundImageFix"/>
<feColorMatrix in="SourceAlpha" type="matrix" values="0 0 0 0 0 0 0 0 0 0 0 0 0 0 0 0 0 0 127 0"/>
<feOffset dy="8"/>
<feGaussianBlur stdDeviation="7"/>
<feColorMatrix type="matrix" values="0 0 0 0 0.0235294 0 0 0 0 0.109804 0 0 0 0 0.247059 0 0 0 0.3 0"/>
<feBlend mode="normal" in2="BackgroundImageFix" result="effect1_dropShadow"/>
<feBlend mode="normal" in="SourceGraphic" in2="effect1_dropShadow" result="shape"/>
</filter>
<filter id="filter4_d" x="397" y="198" width="154" height="154" filterUnits="userSpaceOnUse" color-interpolation-filters="sRGB">
<feFlood flood-opacity="0" result="BackgroundImageFix"/>
<feColorMatrix in="SourceAlpha" type="matrix" values="0 0 0 0 0 0 0 0 0 0 0 0 0 0 0 0 0 0 127 0"/>
<feOffset dy="8"/>
<feGaussianBlur stdDeviation="7"/>
<feColorMatrix type="matrix" values="0 0 0 0 0.0235294 0 0 0 0 0.109804 0 0 0 0 0.247059 0 0 0 0.3 0"/>
<feBlend mode="normal" in2="BackgroundImageFix" result="effect1_dropShadow"/>
<feBlend mode="normal" in="SourceGraphic" in2="effect1_dropShadow" result="shape"/>
</filter>
<filter id="filter5_d" x="795" y="198" width="154" height="154" filterUnits="userSpaceOnUse" color-interpolation-filters="sRGB">
<feFlood flood-opacity="0" result="BackgroundImageFix"/>
<feColorMatrix in="SourceAlpha" type="matrix" values="0 0 0 0 0 0 0 0 0 0 0 0 0 0 0 0 0 0 127 0"/>
<feOffset dy="8"/>
<feGaussianBlur stdDeviation="7"/>
<feColorMatrix type="matrix" values="0 0 0 0 0.0235294 0 0 0 0 0.109804 0 0 0 0 0.247059 0 0 0 0.3 0"/>
<feBlend mode="normal" in2="BackgroundImageFix" result="effect1_dropShadow"/>
<feBlend mode="normal" in="SourceGraphic" in2="effect1_dropShadow" result="shape"/>
</filter>
<filter id="filter6_d" x="1213" y="3" width="154" height="154" filterUnits="userSpaceOnUse" color-interpolation-filters="sRGB">
<feFlood flood-opacity="0" result="BackgroundImageFix"/>
<feColorMatrix in="SourceAlpha" type="matrix" values="0 0 0 0 0 0 0 0 0 0 0 0 0 0 0 0 0 0 127 0"/>
<feOffset dy="8"/>
<feGaussianBlur stdDeviation="7"/>
<feColorMatrix type="matrix" values="0 0 0 0 0.0235294 0 0 0 0 0.109804 0 0 0 0 0.247059 0 0 0 0.3 0"/>
<feBlend mode="normal" in2="BackgroundImageFix" result="effect1_dropShadow"/>
<feBlend mode="normal" in="SourceGraphic" in2="effect1_dropShadow" result="shape"/>
</filter>
<clipPath id="clip0">
<rect width="1545" height="337" fill="white"/>
</clipPath>
</defs>
</svg>
