<svg width="1554" height="373" viewBox="0 0 1554 373" fill="none" xmlns="http://www.w3.org/2000/svg">
<rect width="1554" height="373" fill="white"/>
<path d="M50.0391 98.5234H33.2344V136H12.1406V33.625H50.1797C62.2734 33.625 71.6016 36.3203 78.1641 41.7109C84.7266 47.1016 88.0078 54.7188 88.0078 64.5625C88.0078 71.5469 86.4844 77.3828 83.4375 82.0703C80.4375 86.7109 75.8672 90.4141 69.7266 93.1797L91.875 135.016V136H69.2344L50.0391 98.5234ZM33.2344 81.4375H50.25C55.5469 81.4375 59.6484 80.1016 62.5547 77.4297C65.4609 74.7109 66.9141 70.9844 66.9141 66.25C66.9141 61.4219 65.5312 57.625 62.7656 54.8594C60.0469 52.0938 55.8516 50.7109 50.1797 50.7109H33.2344V81.4375ZM99.6138 97.2578C99.6138 89.7109 101.067 82.9844 103.973 77.0781C106.879 71.1719 111.051 66.6016 116.489 63.3672C121.973 60.1328 128.325 58.5156 135.543 58.5156C145.809 58.5156 154.176 61.6563 160.645 67.9375C167.161 74.2188 170.793 82.75 171.543 93.5312L171.684 98.7344C171.684 110.406 168.426 119.781 161.911 126.859C155.395 133.891 146.653 137.406 135.684 137.406C124.715 137.406 115.95 133.891 109.387 126.859C102.872 119.828 99.6138 110.266 99.6138 98.1719V97.2578ZM119.934 98.7344C119.934 105.953 121.293 111.484 124.012 115.328C126.731 119.125 130.622 121.023 135.684 121.023C140.606 121.023 144.45 119.148 147.215 115.398C149.981 111.602 151.364 105.555 151.364 97.2578C151.364 90.1797 149.981 84.6953 147.215 80.8047C144.45 76.9141 140.559 74.9688 135.543 74.9688C130.575 74.9688 126.731 76.9141 124.012 80.8047C121.293 84.6484 119.934 90.625 119.934 98.7344ZM252.759 98.6641C252.759 110.852 250.157 120.367 244.954 127.211C239.751 134.008 232.485 137.406 223.157 137.406C214.907 137.406 208.321 134.242 203.399 127.914L202.485 136H184.204V28H204.524V66.7422C209.212 61.2578 215.376 58.5156 223.017 58.5156C232.298 58.5156 239.563 61.9375 244.813 68.7812C250.11 75.5781 252.759 85.1641 252.759 97.5391V98.6641ZM232.438 97.1875C232.438 89.5 231.22 83.8984 228.782 80.3828C226.345 76.8203 222.712 75.0391 217.884 75.0391C211.415 75.0391 206.962 77.6875 204.524 82.9844V113.008C207.009 118.352 211.509 121.023 218.024 121.023C224.587 121.023 228.899 117.789 230.962 111.32C231.946 108.227 232.438 103.516 232.438 97.1875ZM262.185 97.2578C262.185 89.7109 263.638 82.9844 266.544 77.0781C269.451 71.1719 273.623 66.6016 279.06 63.3672C284.544 60.1328 290.896 58.5156 298.115 58.5156C308.38 58.5156 316.748 61.6563 323.216 67.9375C329.732 74.2188 333.365 82.75 334.115 93.5312L334.255 98.7344C334.255 110.406 330.998 119.781 324.482 126.859C317.966 133.891 309.224 137.406 298.255 137.406C287.287 137.406 278.521 133.891 271.959 126.859C265.443 119.828 262.185 110.266 262.185 98.1719V97.2578ZM282.505 98.7344C282.505 105.953 283.865 111.484 286.584 115.328C289.302 119.125 293.193 121.023 298.255 121.023C303.177 121.023 307.021 119.148 309.787 115.398C312.552 111.602 313.935 105.555 313.935 97.2578C313.935 90.1797 312.552 84.6953 309.787 80.8047C307.021 76.9141 303.13 74.9688 298.115 74.9688C293.146 74.9688 289.302 76.9141 286.584 80.8047C283.865 84.6484 282.505 90.625 282.505 98.7344ZM371.104 41.2188V59.9219H384.111V74.8281H371.104V112.797C371.104 115.609 371.643 117.625 372.721 118.844C373.799 120.062 375.861 120.672 378.908 120.672C381.158 120.672 383.15 120.508 384.885 120.18V135.578C380.9 136.797 376.799 137.406 372.58 137.406C358.33 137.406 351.064 130.211 350.783 115.82V74.8281H339.674V59.9219H350.783V41.2188H371.104ZM390.163 97.2578C390.163 89.7109 391.616 82.9844 394.522 77.0781C397.428 71.1719 401.6 66.6016 407.038 63.3672C412.522 60.1328 418.874 58.5156 426.092 58.5156C436.358 58.5156 444.725 61.6563 451.194 67.9375C457.71 74.2188 461.342 82.75 462.092 93.5312L462.233 98.7344C462.233 110.406 458.975 119.781 452.46 126.859C445.944 133.891 437.202 137.406 426.233 137.406C415.264 137.406 406.499 133.891 399.936 126.859C393.42 119.828 390.163 110.266 390.163 98.1719V97.2578ZM410.483 98.7344C410.483 105.953 411.842 111.484 414.561 115.328C417.28 119.125 421.17 121.023 426.233 121.023C431.155 121.023 434.999 119.148 437.764 115.398C440.53 111.602 441.913 105.555 441.913 97.2578C441.913 90.1797 440.53 84.6953 437.764 80.8047C434.999 76.9141 431.108 74.9688 426.092 74.9688C421.124 74.9688 417.28 76.9141 414.561 80.8047C411.842 84.6484 410.483 90.625 410.483 98.7344Z" fill="#1B314D"/>
<path d="M26.8047 234.094H12.5078L9.29688 243H4.65625L17.6875 208.875H21.625L34.6797 243H30.0625L26.8047 234.094ZM13.8672 230.391H25.4688L19.6562 214.43L13.8672 230.391ZM39.2778 243V208.875H50.4341C54.1372 208.875 56.9185 209.641 58.7778 211.172C60.6528 212.703 61.5903 214.969 61.5903 217.969C61.5903 219.562 61.1372 220.977 60.231 222.211C59.3247 223.43 58.0903 224.375 56.5278 225.047C58.3716 225.562 59.8247 226.547 60.8872 228C61.9653 229.438 62.5044 231.156 62.5044 233.156C62.5044 236.219 61.5122 238.625 59.5278 240.375C57.5435 242.125 54.7388 243 51.1138 243H39.2778ZM43.7778 227.039V239.32H51.2075C53.3013 239.32 54.9497 238.781 56.1528 237.703C57.3716 236.609 57.981 235.109 57.981 233.203C57.981 229.094 55.7466 227.039 51.2778 227.039H43.7778ZM43.7778 223.43H50.5747C52.5435 223.43 54.1138 222.938 55.2857 221.953C56.4732 220.969 57.0669 219.633 57.0669 217.945C57.0669 216.07 56.52 214.711 55.4263 213.867C54.3325 213.008 52.6685 212.578 50.4341 212.578H43.7778V223.43ZM94.2901 232.172C93.8682 235.781 92.5322 238.57 90.2822 240.539C88.0479 242.492 85.0713 243.469 81.3526 243.469C77.3213 243.469 74.0869 242.023 71.6494 239.133C69.2276 236.242 68.0166 232.375 68.0166 227.531V224.25C68.0166 221.078 68.5791 218.289 69.7041 215.883C70.8447 213.477 72.4541 211.633 74.5322 210.352C76.6104 209.055 79.0166 208.406 81.751 208.406C85.376 208.406 88.2822 209.422 90.4697 211.453C92.6572 213.469 93.9307 216.266 94.2901 219.844H89.7666C89.376 217.125 88.5244 215.156 87.2119 213.938C85.9151 212.719 84.0947 212.109 81.751 212.109C78.876 212.109 76.6182 213.172 74.9776 215.297C73.3526 217.422 72.5401 220.445 72.5401 224.367V227.672C72.5401 231.375 73.3135 234.32 74.8604 236.508C76.4072 238.695 78.5713 239.789 81.3526 239.789C83.8526 239.789 85.7666 239.227 87.0947 238.102C88.4385 236.961 89.3291 234.984 89.7666 232.172H94.2901ZM100.459 243V208.875H110.091C113.06 208.875 115.685 209.531 117.966 210.844C120.248 212.156 122.005 214.023 123.24 216.445C124.49 218.867 125.123 221.648 125.138 224.789V226.969C125.138 230.188 124.513 233.008 123.263 235.43C122.029 237.852 120.255 239.711 117.943 241.008C115.646 242.305 112.966 242.969 109.904 243H100.459ZM104.959 212.578V239.32H109.693C113.162 239.32 115.857 238.242 117.779 236.086C119.716 233.93 120.685 230.859 120.685 226.875V224.883C120.685 221.008 119.771 218 117.943 215.859C116.13 213.703 113.552 212.609 110.209 212.578H104.959ZM151.252 227.227H136.463V239.32H153.643V243H131.963V208.875H153.408V212.578H136.463V223.547H151.252V227.227ZM178.069 227.93H163.749V243H159.249V208.875H180.389V212.578H163.749V224.25H178.069V227.93ZM210.98 238.523C209.823 240.18 208.206 241.422 206.128 242.25C204.065 243.062 201.659 243.469 198.909 243.469C196.128 243.469 193.659 242.82 191.503 241.523C189.347 240.211 187.675 238.352 186.487 235.945C185.315 233.539 184.714 230.75 184.683 227.578V224.602C184.683 219.461 185.878 215.477 188.269 212.648C190.675 209.82 194.05 208.406 198.394 208.406C201.956 208.406 204.823 209.32 206.995 211.148C209.167 212.961 210.495 215.539 210.98 218.883H206.48C205.636 214.367 202.948 212.109 198.417 212.109C195.401 212.109 193.112 213.172 191.55 215.297C190.003 217.406 189.222 220.469 189.206 224.484V227.273C189.206 231.102 190.081 234.148 191.831 236.414C193.581 238.664 195.948 239.789 198.933 239.789C200.62 239.789 202.097 239.602 203.362 239.227C204.628 238.852 205.675 238.219 206.503 237.328V229.664H198.605V226.008H210.98V238.523ZM244.734 243H240.21V227.227H223.007V243H218.507V208.875H223.007V223.547H240.21V208.875H244.734V243ZM257.559 243H253.059V208.875H257.559V243ZM280.11 208.875H284.633V233.039C284.633 236.305 283.649 238.859 281.68 240.703C279.727 242.547 277.118 243.469 273.852 243.469C270.461 243.469 267.821 242.602 265.93 240.867C264.04 239.133 263.094 236.703 263.094 233.578H267.594C267.594 235.531 268.126 237.055 269.188 238.148C270.266 239.242 271.821 239.789 273.852 239.789C275.711 239.789 277.211 239.203 278.352 238.031C279.508 236.859 280.094 235.219 280.11 233.109V208.875ZM300.974 227.133L296.802 231.469V243H292.302V208.875H296.802V225.75L311.966 208.875H317.403L303.974 223.945L318.458 243H313.067L300.974 227.133ZM326.923 239.32H343.095V243H322.4V208.875H326.923V239.32ZM354.045 208.875L365.201 236.719L376.357 208.875H382.193V243H377.693V229.711L378.115 215.367L366.912 243H363.467L352.287 215.438L352.732 229.711V243H348.232V208.875H354.045ZM416.37 243H411.846L394.667 216.703V243H390.143V208.875H394.667L411.893 235.289V208.875H416.37V243ZM450.616 227.039C450.616 230.383 450.054 233.305 448.929 235.805C447.804 238.289 446.21 240.188 444.148 241.5C442.085 242.812 439.679 243.469 436.929 243.469C434.241 243.469 431.858 242.812 429.78 241.5C427.702 240.172 426.085 238.289 424.929 235.852C423.788 233.398 423.202 230.562 423.171 227.344V224.883C423.171 221.602 423.741 218.703 424.882 216.188C426.023 213.672 427.632 211.75 429.71 210.422C431.804 209.078 434.194 208.406 436.882 208.406C439.616 208.406 442.023 209.07 444.101 210.398C446.194 211.711 447.804 213.625 448.929 216.141C450.054 218.641 450.616 221.555 450.616 224.883V227.039ZM446.14 224.836C446.14 220.789 445.327 217.688 443.702 215.531C442.077 213.359 439.804 212.273 436.882 212.273C434.038 212.273 431.796 213.359 430.155 215.531C428.53 217.688 427.694 220.688 427.648 224.531V227.039C427.648 230.961 428.468 234.047 430.108 236.297C431.765 238.531 434.038 239.648 436.929 239.648C439.835 239.648 442.085 238.594 443.679 236.484C445.273 234.359 446.093 231.32 446.14 227.367V224.836ZM461.871 229.641V243H457.371V208.875H469.957C473.691 208.875 476.613 209.828 478.722 211.734C480.847 213.641 481.91 216.164 481.91 219.305C481.91 222.617 480.871 225.172 478.793 226.969C476.73 228.75 473.769 229.641 469.91 229.641H461.871ZM461.871 225.961H469.957C472.363 225.961 474.207 225.398 475.488 224.273C476.769 223.133 477.41 221.492 477.41 219.352C477.41 217.32 476.769 215.695 475.488 214.477C474.207 213.258 472.449 212.625 470.214 212.578H461.871V225.961ZM513.719 227.039C513.719 230.336 513.195 233.18 512.149 235.57C511.102 237.945 509.633 239.805 507.742 241.148L513.836 245.93L510.766 248.766L503.57 243.047C502.445 243.328 501.258 243.469 500.008 243.469C497.32 243.469 494.938 242.812 492.859 241.5C490.781 240.172 489.164 238.289 488.008 235.852C486.867 233.398 486.281 230.562 486.25 227.344V224.883C486.25 221.602 486.82 218.703 487.961 216.188C489.102 213.672 490.711 211.75 492.789 210.422C494.883 209.078 497.274 208.406 499.961 208.406C502.711 208.406 505.125 209.07 507.203 210.398C509.297 211.727 510.906 213.641 512.031 216.141C513.156 218.625 513.719 221.531 513.719 224.859V227.039ZM509.219 224.836C509.219 220.82 508.414 217.727 506.805 215.555C505.211 213.367 502.93 212.273 499.961 212.273C497.133 212.273 494.899 213.359 493.258 215.531C491.633 217.688 490.797 220.688 490.75 224.531V227.039C490.75 230.945 491.563 234.023 493.188 236.273C494.828 238.523 497.102 239.648 500.008 239.648C502.914 239.648 505.164 238.594 506.758 236.484C508.352 234.359 509.172 231.32 509.219 227.367V224.836ZM533.176 229.195H525.161V243H520.637V208.875H531.934C535.778 208.875 538.731 209.75 540.794 211.5C542.872 213.25 543.911 215.797 543.911 219.141C543.911 221.266 543.333 223.117 542.176 224.695C541.036 226.273 539.442 227.453 537.395 228.234L545.411 242.719V243H540.583L533.176 229.195ZM525.161 225.516H532.075C534.309 225.516 536.083 224.938 537.395 223.781C538.723 222.625 539.387 221.078 539.387 219.141C539.387 217.031 538.755 215.414 537.489 214.289C536.239 213.164 534.426 212.594 532.051 212.578H525.161V225.516ZM560.298 227.789C556.439 226.68 553.626 225.32 551.86 223.711C550.11 222.086 549.235 220.086 549.235 217.711C549.235 215.023 550.306 212.805 552.446 211.055C554.603 209.289 557.4 208.406 560.837 208.406C563.181 208.406 565.267 208.859 567.095 209.766C568.939 210.672 570.36 211.922 571.36 213.516C572.376 215.109 572.884 216.852 572.884 218.742H568.36C568.36 216.68 567.704 215.062 566.392 213.891C565.079 212.703 563.228 212.109 560.837 212.109C558.618 212.109 556.884 212.602 555.634 213.586C554.4 214.555 553.782 215.906 553.782 217.641C553.782 219.031 554.368 220.211 555.54 221.18C556.728 222.133 558.735 223.008 561.564 223.805C564.407 224.602 566.626 225.484 568.22 226.453C569.829 227.406 571.017 228.523 571.782 229.805C572.564 231.086 572.954 232.594 572.954 234.328C572.954 237.094 571.876 239.312 569.72 240.984C567.564 242.641 564.681 243.469 561.071 243.469C558.728 243.469 556.54 243.023 554.509 242.133C552.478 241.227 550.907 239.992 549.798 238.43C548.704 236.867 548.157 235.094 548.157 233.109H552.681C552.681 235.172 553.439 236.805 554.954 238.008C556.485 239.195 558.525 239.789 561.071 239.789C563.446 239.789 565.267 239.305 566.532 238.336C567.798 237.367 568.431 236.047 568.431 234.375C568.431 232.703 567.845 231.414 566.673 230.508C565.501 229.586 563.376 228.68 560.298 227.789ZM602.326 212.578H591.357V243H586.88V212.578H575.935V208.875H602.326V212.578ZM631.416 208.875V232.078C631.401 235.297 630.385 237.93 628.369 239.977C626.369 242.023 623.651 243.172 620.213 243.422L619.018 243.469C615.283 243.469 612.307 242.461 610.088 240.445C607.869 238.43 606.744 235.656 606.713 232.125V208.875H611.166V231.984C611.166 234.453 611.846 236.375 613.205 237.75C614.565 239.109 616.502 239.789 619.018 239.789C621.565 239.789 623.51 239.109 624.854 237.75C626.213 236.391 626.893 234.477 626.893 232.008V208.875H631.416ZM649.819 237.023L659.569 208.875H664.491L651.835 243H647.85L635.217 208.875H640.116L649.819 237.023ZM676.448 232.242L677.105 236.742L678.066 232.688L684.816 208.875H688.612L695.198 232.688L696.136 236.812L696.862 232.219L702.159 208.875H706.683L698.409 243H694.308L687.276 218.133L686.737 215.531L686.198 218.133L678.909 243H674.808L666.558 208.875H671.058L676.448 232.242ZM722.836 221.953L731.015 208.875H736.312L725.531 225.797L736.57 243H731.226L722.836 229.688L714.398 243H709.078L720.14 225.797L709.336 208.875H714.609L722.836 221.953ZM752.207 226.008L761.113 208.875H766.223L754.457 230.273V243H749.957V230.273L738.192 208.875H743.348L752.207 226.008ZM774.008 239.32H793.532V243H768.688V239.625L787.391 212.578H768.993V208.875H792.782V212.18L774.008 239.32ZM22.9375 305C22.6875 304.5 22.4844 303.609 22.3281 302.328C20.3125 304.422 17.9062 305.469 15.1094 305.469C12.6094 305.469 10.5547 304.766 8.94531 303.359C7.35156 301.938 6.55469 300.141 6.55469 297.969C6.55469 295.328 7.55469 293.281 9.55469 291.828C11.5703 290.359 14.3984 289.625 18.0391 289.625H22.2578V287.633C22.2578 286.117 21.8047 284.914 20.8984 284.023C19.9922 283.117 18.6562 282.664 16.8906 282.664C15.3438 282.664 14.0469 283.055 13 283.836C11.9531 284.617 11.4297 285.562 11.4297 286.672H7.07031C7.07031 285.406 7.51562 284.188 8.40625 283.016C9.3125 281.828 10.5312 280.891 12.0625 280.203C13.6094 279.516 15.3047 279.172 17.1484 279.172C20.0703 279.172 22.3594 279.906 24.0156 281.375C25.6719 282.828 26.5312 284.836 26.5938 287.398V299.07C26.5938 301.398 26.8906 303.25 27.4844 304.625V305H22.9375ZM15.7422 301.695C17.1016 301.695 18.3906 301.344 19.6094 300.641C20.8281 299.938 21.7109 299.023 22.2578 297.898V292.695H18.8594C13.5469 292.695 10.8906 294.25 10.8906 297.359C10.8906 298.719 11.3438 299.781 12.25 300.547C13.1562 301.312 14.3203 301.695 15.7422 301.695ZM54.8638 292.602C54.8638 296.477 53.9732 299.594 52.1919 301.953C50.4107 304.297 48.02 305.469 45.02 305.469C41.8169 305.469 39.3403 304.336 37.5903 302.07L37.3794 305H33.395V269H37.731V282.43C39.481 280.258 41.895 279.172 44.9732 279.172C48.0513 279.172 50.4653 280.336 52.2153 282.664C53.981 284.992 54.8638 288.18 54.8638 292.227V292.602ZM50.5278 292.109C50.5278 289.156 49.9575 286.875 48.8169 285.266C47.6763 283.656 46.0357 282.852 43.895 282.852C41.0357 282.852 38.981 284.18 37.731 286.836V297.805C39.0591 300.461 41.1294 301.789 43.9419 301.789C46.02 301.789 47.6372 300.984 48.7935 299.375C49.9497 297.766 50.5278 295.344 50.5278 292.109ZM70.5244 301.93C72.0713 301.93 73.4229 301.461 74.5791 300.523C75.7354 299.586 76.376 298.414 76.501 297.008H80.6026C80.5244 298.461 80.0244 299.844 79.1026 301.156C78.1807 302.469 76.9463 303.516 75.3994 304.297C73.8682 305.078 72.2432 305.469 70.5244 305.469C67.0713 305.469 64.3213 304.32 62.2744 302.023C60.2432 299.711 59.2276 296.555 59.2276 292.555V291.828C59.2276 289.359 59.6807 287.164 60.5869 285.242C61.4932 283.32 62.7901 281.828 64.4776 280.766C66.1807 279.703 68.1885 279.172 70.501 279.172C73.3447 279.172 75.7041 280.023 77.5791 281.727C79.4697 283.43 80.4776 285.641 80.6026 288.359H76.501C76.376 286.719 75.751 285.375 74.626 284.328C73.5166 283.266 72.1416 282.734 70.501 282.734C68.2979 282.734 66.5869 283.531 65.3682 285.125C64.1651 286.703 63.5635 288.992 63.5635 291.992V292.812C63.5635 295.734 64.1651 297.984 65.3682 299.562C66.5713 301.141 68.2901 301.93 70.5244 301.93ZM84.4273 292.109C84.4273 288.219 85.3491 285.094 87.1929 282.734C89.0366 280.359 91.4507 279.172 94.4351 279.172C97.4038 279.172 99.7554 280.188 101.49 282.219V269H105.826V305H101.841L101.63 302.281C99.896 304.406 97.4819 305.469 94.3882 305.469C91.4507 305.469 89.0523 304.266 87.1929 301.859C85.3491 299.453 84.4273 296.312 84.4273 292.438V292.109ZM88.7632 292.602C88.7632 295.477 89.3569 297.727 90.5444 299.352C91.7319 300.977 93.3726 301.789 95.4663 301.789C98.2163 301.789 100.224 300.555 101.49 298.086V286.438C100.193 284.047 98.2007 282.852 95.5132 282.852C93.3882 282.852 91.7319 283.672 90.5444 285.312C89.3569 286.953 88.7632 289.383 88.7632 292.602ZM123.104 305.469C119.666 305.469 116.869 304.344 114.713 302.094C112.557 299.828 111.479 296.805 111.479 293.023V292.227C111.479 289.711 111.955 287.469 112.908 285.5C113.877 283.516 115.221 281.969 116.939 280.859C118.674 279.734 120.549 279.172 122.564 279.172C125.861 279.172 128.424 280.258 130.252 282.43C132.08 284.602 132.994 287.711 132.994 291.758V293.562H115.814C115.877 296.062 116.604 298.086 117.994 299.633C119.4 301.164 121.182 301.93 123.338 301.93C124.869 301.93 126.166 301.617 127.229 300.992C128.291 300.367 129.221 299.539 130.018 298.508L132.666 300.57C130.541 303.836 127.354 305.469 123.104 305.469ZM122.564 282.734C120.814 282.734 119.346 283.375 118.158 284.656C116.971 285.922 116.236 287.703 115.955 290H128.658V289.672C128.533 287.469 127.939 285.766 126.877 284.562C125.814 283.344 124.377 282.734 122.564 282.734ZM140.17 305V282.992H136.163V279.641H140.17V277.039C140.17 274.32 140.897 272.219 142.35 270.734C143.803 269.25 145.858 268.508 148.514 268.508C149.514 268.508 150.506 268.641 151.491 268.906L151.256 272.422C150.522 272.281 149.741 272.211 148.913 272.211C147.506 272.211 146.42 272.625 145.655 273.453C144.889 274.266 144.506 275.438 144.506 276.969V279.641H149.92V282.992H144.506V305H140.17ZM153.136 292.109C153.136 288.156 154.05 285.016 155.878 282.688C157.706 280.344 160.128 279.172 163.144 279.172C166.237 279.172 168.651 280.266 170.386 282.453L170.597 279.641H174.558V304.391C174.558 307.672 173.581 310.258 171.628 312.148C169.69 314.039 167.081 314.984 163.8 314.984C161.972 314.984 160.183 314.594 158.433 313.812C156.683 313.031 155.347 311.961 154.425 310.602L156.675 308C158.534 310.297 160.808 311.445 163.495 311.445C165.605 311.445 167.245 310.852 168.417 309.664C169.605 308.477 170.198 306.805 170.198 304.648V302.469C168.464 304.469 166.097 305.469 163.097 305.469C160.128 305.469 157.722 304.273 155.878 301.883C154.05 299.492 153.136 296.234 153.136 292.109ZM157.495 292.602C157.495 295.461 158.081 297.711 159.253 299.352C160.425 300.977 162.065 301.789 164.175 301.789C166.909 301.789 168.917 300.547 170.198 298.062V286.484C168.87 284.062 166.878 282.852 164.222 282.852C162.112 282.852 160.464 283.672 159.276 285.312C158.089 286.953 157.495 289.383 157.495 292.602ZM185.46 282.711C187.382 280.352 189.882 279.172 192.96 279.172C198.32 279.172 201.023 282.195 201.07 288.242V305H196.734V288.219C196.718 286.391 196.296 285.039 195.468 284.164C194.656 283.289 193.382 282.852 191.648 282.852C190.242 282.852 189.007 283.227 187.945 283.977C186.882 284.727 186.054 285.711 185.46 286.93V305H181.125V269H185.46V282.711ZM212.277 305H207.941V279.641H212.277V305ZM207.59 272.914C207.59 272.211 207.801 271.617 208.223 271.133C208.66 270.648 209.301 270.406 210.145 270.406C210.988 270.406 211.629 270.648 212.066 271.133C212.504 271.617 212.723 272.211 212.723 272.914C212.723 273.617 212.504 274.203 212.066 274.672C211.629 275.141 210.988 275.375 210.145 275.375C209.301 275.375 208.66 275.141 208.223 274.672C207.801 274.203 207.59 273.617 207.59 272.914ZM223.719 279.641V307.93C223.719 312.805 221.508 315.242 217.086 315.242C216.133 315.242 215.251 315.102 214.438 314.82V311.352C214.938 311.477 215.594 311.539 216.407 311.539C217.376 311.539 218.11 311.273 218.61 310.742C219.126 310.227 219.383 309.32 219.383 308.023V279.641H223.719ZM218.938 272.914C218.938 272.227 219.149 271.641 219.571 271.156C220.008 270.656 220.641 270.406 221.469 270.406C222.313 270.406 222.954 270.648 223.391 271.133C223.829 271.617 224.047 272.211 224.047 272.914C224.047 273.617 223.829 274.203 223.391 274.672C222.954 275.141 222.313 275.375 221.469 275.375C220.626 275.375 219.993 275.141 219.571 274.672C219.149 274.203 218.938 273.617 218.938 272.914ZM237.81 293.258L235.091 296.094V305H230.755V269H235.091V290.773L237.411 287.984L245.31 279.641H250.583L240.716 290.234L251.732 305H246.646L237.81 293.258ZM259.775 305H255.439V269H259.775V305ZM270.818 279.641L270.936 282.453C272.795 280.266 275.303 279.172 278.459 279.172C282.006 279.172 284.42 280.531 285.701 283.25C286.545 282.031 287.639 281.047 288.982 280.297C290.342 279.547 291.943 279.172 293.787 279.172C299.35 279.172 302.178 282.117 302.272 288.008V305H297.936V288.266C297.936 286.453 297.522 285.102 296.693 284.211C295.865 283.305 294.475 282.852 292.522 282.852C290.912 282.852 289.576 283.336 288.514 284.305C287.451 285.258 286.834 286.547 286.662 288.172V305H282.303V288.383C282.303 284.695 280.498 282.852 276.889 282.852C274.045 282.852 272.1 284.062 271.053 286.484V305H266.717V279.641H270.818ZM312.94 279.641L313.081 282.828C315.018 280.391 317.549 279.172 320.674 279.172C326.034 279.172 328.737 282.195 328.784 288.242V305H324.448V288.219C324.432 286.391 324.01 285.039 323.182 284.164C322.37 283.289 321.096 282.852 319.362 282.852C317.956 282.852 316.721 283.227 315.659 283.977C314.596 284.727 313.768 285.711 313.174 286.93V305H308.838V279.641H312.94ZM334.179 292.086C334.179 289.602 334.663 287.367 335.632 285.383C336.616 283.398 337.976 281.867 339.71 280.789C341.46 279.711 343.452 279.172 345.687 279.172C349.14 279.172 351.929 280.367 354.054 282.758C356.194 285.148 357.265 288.328 357.265 292.297V292.602C357.265 295.07 356.788 297.289 355.835 299.258C354.898 301.211 353.546 302.734 351.78 303.828C350.03 304.922 348.015 305.469 345.733 305.469C342.296 305.469 339.507 304.273 337.366 301.883C335.241 299.492 334.179 296.328 334.179 292.391V292.086ZM338.538 292.602C338.538 295.414 339.187 297.672 340.483 299.375C341.796 301.078 343.546 301.93 345.733 301.93C347.937 301.93 349.687 301.07 350.983 299.352C352.28 297.617 352.929 295.195 352.929 292.086C352.929 289.305 352.265 287.055 350.937 285.336C349.624 283.602 347.874 282.734 345.687 282.734C343.546 282.734 341.819 283.586 340.507 285.289C339.194 286.992 338.538 289.43 338.538 292.602ZM384.129 292.602C384.129 296.461 383.246 299.57 381.48 301.93C379.714 304.289 377.324 305.469 374.308 305.469C371.23 305.469 368.808 304.492 367.043 302.539V314.75H362.707V279.641H366.668L366.879 282.453C368.644 280.266 371.097 279.172 374.238 279.172C377.285 279.172 379.691 280.32 381.457 282.617C383.238 284.914 384.129 288.109 384.129 292.203V292.602ZM379.793 292.109C379.793 289.25 379.183 286.992 377.964 285.336C376.746 283.68 375.074 282.852 372.949 282.852C370.324 282.852 368.355 284.016 367.043 286.344V298.461C368.339 300.773 370.324 301.93 372.996 301.93C375.074 301.93 376.722 301.109 377.941 299.469C379.175 297.812 379.793 295.359 379.793 292.109ZM388.609 292.109C388.609 288.125 389.524 284.977 391.352 282.664C393.18 280.336 395.633 279.172 398.711 279.172C401.711 279.172 404.078 280.18 405.813 282.195L406 279.641H409.984V314.75H405.649V302.656C403.899 304.531 401.57 305.469 398.664 305.469C395.602 305.469 393.156 304.281 391.328 301.906C389.516 299.516 388.609 296.352 388.609 292.414V292.109ZM392.945 292.602C392.945 295.508 393.555 297.789 394.774 299.445C396.008 301.102 397.664 301.93 399.742 301.93C402.32 301.93 404.289 300.789 405.649 298.508V286.086C404.274 283.852 402.32 282.734 399.789 282.734C397.695 282.734 396.031 283.57 394.797 285.242C393.563 286.898 392.945 289.352 392.945 292.602ZM429.208 283.531C428.551 283.422 427.84 283.367 427.075 283.367C424.231 283.367 422.301 284.578 421.286 287V305H416.95V279.641H421.169L421.239 282.57C422.661 280.305 424.676 279.172 427.286 279.172C428.129 279.172 428.77 279.281 429.208 279.5V283.531ZM447.985 298.273C447.985 297.102 447.54 296.195 446.65 295.555C445.775 294.898 444.235 294.336 442.032 293.867C439.845 293.398 438.103 292.836 436.806 292.18C435.525 291.523 434.571 290.742 433.946 289.836C433.337 288.93 433.032 287.852 433.032 286.602C433.032 284.523 433.907 282.766 435.657 281.328C437.423 279.891 439.673 279.172 442.407 279.172C445.282 279.172 447.61 279.914 449.392 281.398C451.189 282.883 452.087 284.781 452.087 287.094H447.728C447.728 285.906 447.22 284.883 446.204 284.023C445.204 283.164 443.939 282.734 442.407 282.734C440.829 282.734 439.595 283.078 438.704 283.766C437.814 284.453 437.368 285.352 437.368 286.461C437.368 287.508 437.782 288.297 438.61 288.828C439.439 289.359 440.931 289.867 443.087 290.352C445.259 290.836 447.017 291.414 448.36 292.086C449.704 292.758 450.696 293.57 451.337 294.523C451.993 295.461 452.321 296.609 452.321 297.969C452.321 300.234 451.415 302.055 449.603 303.43C447.79 304.789 445.439 305.469 442.548 305.469C440.517 305.469 438.72 305.109 437.157 304.391C435.595 303.672 434.368 302.672 433.478 301.391C432.603 300.094 432.165 298.695 432.165 297.195H436.501C436.579 298.648 437.157 299.805 438.235 300.664C439.329 301.508 440.767 301.93 442.548 301.93C444.189 301.93 445.501 301.602 446.485 300.945C447.485 300.273 447.985 299.383 447.985 298.273ZM463.857 273.5V279.641H468.591V282.992H463.857V298.719C463.857 299.734 464.068 300.5 464.49 301.016C464.912 301.516 465.63 301.766 466.646 301.766C467.146 301.766 467.834 301.672 468.709 301.484V305C467.568 305.312 466.459 305.469 465.38 305.469C463.443 305.469 461.982 304.883 460.998 303.711C460.013 302.539 459.521 300.875 459.521 298.719V282.992H454.904V279.641H459.521V273.5H463.857ZM489.338 302.492C487.651 304.477 485.174 305.469 481.908 305.469C479.205 305.469 477.143 304.688 475.721 303.125C474.315 301.547 473.604 299.219 473.588 296.141V279.641H477.924V296.023C477.924 299.867 479.486 301.789 482.611 301.789C485.924 301.789 488.127 300.555 489.221 298.086V279.641H493.557V305H489.432L489.338 302.492ZM508.538 299.117L514.819 279.641H519.249L510.155 305H506.85L497.663 279.641H502.092L508.538 299.117ZM545.878 299.023L550.753 279.641H555.089L547.706 305H544.191L538.026 285.781L532.026 305H528.511L521.151 279.641H525.464L530.456 298.625L536.362 279.641H539.855L545.878 299.023ZM568.031 288.898L573.656 279.641H578.718L570.422 292.18L578.976 305H573.961L568.101 295.508L562.242 305H557.203L565.757 292.18L557.461 279.641H562.476L568.031 288.898ZM591.637 298.648L597.543 279.641H602.184L591.988 308.914C590.41 313.133 587.902 315.242 584.465 315.242L583.645 315.172L582.027 314.867V311.352L583.199 311.445C584.668 311.445 585.809 311.148 586.621 310.555C587.449 309.961 588.129 308.875 588.66 307.297L589.621 304.719L580.574 279.641H585.309L591.637 298.648ZM610.157 301.461H624.993V305H604.86V301.812L618.852 283.227H605.071V279.641H624.29V282.711L610.157 301.461ZM16.8145 355H13.5449V333.326L6.98828 335.734V332.781L16.3047 329.283H16.8145V355ZM43.1157 355H26.3462V352.662L35.2056 342.818C36.5181 341.33 37.4204 340.123 37.9126 339.197C38.4165 338.26 38.6685 337.293 38.6685 336.297C38.6685 334.961 38.2642 333.865 37.4556 333.01C36.647 332.154 35.5689 331.727 34.2212 331.727C32.604 331.727 31.3442 332.189 30.4419 333.115C29.5513 334.029 29.106 335.307 29.106 336.947H25.854C25.854 334.592 26.6099 332.688 28.1216 331.234C29.645 329.781 31.6782 329.055 34.2212 329.055C36.6001 329.055 38.481 329.682 39.8638 330.936C41.2466 332.178 41.938 333.836 41.938 335.91C41.938 338.43 40.3325 341.43 37.1216 344.91L30.2661 352.346H43.1157V355ZM51.294 340.621H53.7373C55.2725 340.598 56.4795 340.193 57.3584 339.408C58.2373 338.623 58.6768 337.562 58.6768 336.227C58.6768 333.227 57.1826 331.727 54.1943 331.727C52.7881 331.727 51.6631 332.131 50.8193 332.939C49.9873 333.736 49.5713 334.797 49.5713 336.121H46.3193C46.3193 334.094 47.0576 332.412 48.5342 331.076C50.0225 329.729 51.9092 329.055 54.1943 329.055C56.6084 329.055 58.501 329.693 59.8721 330.971C61.2432 332.248 61.9287 334.023 61.9287 336.297C61.9287 337.41 61.5654 338.488 60.8389 339.531C60.124 340.574 59.1455 341.354 57.9033 341.869C59.3096 342.314 60.3936 343.053 61.1553 344.084C61.9287 345.115 62.3154 346.375 62.3154 347.863C62.3154 350.16 61.5654 351.982 60.0654 353.33C58.5654 354.678 56.6143 355.352 54.2119 355.352C51.8096 355.352 49.8526 354.701 48.3408 353.4C46.8408 352.1 46.0908 350.383 46.0908 348.25H49.3604C49.3604 349.598 49.7998 350.676 50.6787 351.484C51.5576 352.293 52.7354 352.697 54.2119 352.697C55.7822 352.697 56.9834 352.287 57.8154 351.467C58.6475 350.646 59.0635 349.469 59.0635 347.934C59.0635 346.445 58.6065 345.303 57.6924 344.506C56.7783 343.709 55.46 343.299 53.7373 343.275H51.294V340.621ZM80.5132 346.404H84.064V349.059H80.5132V355H77.2437V349.059H65.5894V347.143L77.0503 329.406H80.5132V346.404ZM69.2808 346.404H77.2437V333.854L76.8569 334.557L69.2808 346.404ZM88.4981 342.168L89.7989 329.406H102.912V332.412H92.5586L91.7852 339.391C93.0391 338.652 94.4629 338.283 96.0567 338.283C98.3887 338.283 100.24 339.057 101.611 340.604C102.982 342.139 103.668 344.219 103.668 346.844C103.668 349.48 102.953 351.561 101.523 353.084C100.105 354.596 98.1192 355.352 95.5645 355.352C93.3028 355.352 91.4571 354.725 90.0274 353.471C88.5977 352.217 87.7832 350.482 87.584 348.268H90.6602C90.8594 349.732 91.3809 350.84 92.2246 351.59C93.0684 352.328 94.1817 352.697 95.5645 352.697C97.0762 352.697 98.2598 352.182 99.1153 351.15C99.9824 350.119 100.416 348.695 100.416 346.879C100.416 345.168 99.9473 343.797 99.0098 342.766C98.084 341.723 96.8477 341.201 95.3008 341.201C93.8828 341.201 92.7696 341.512 91.961 342.133L91.0996 342.836L88.4981 342.168ZM119.985 329.389V332.148H119.387C116.856 332.195 114.84 332.945 113.34 334.398C111.84 335.852 110.973 337.896 110.739 340.533C112.086 338.986 113.926 338.213 116.258 338.213C118.485 338.213 120.26 338.998 121.585 340.568C122.92 342.139 123.588 344.166 123.588 346.65C123.588 349.287 122.868 351.396 121.426 352.979C119.997 354.561 118.075 355.352 115.661 355.352C113.211 355.352 111.225 354.414 109.702 352.539C108.178 350.652 107.417 348.227 107.417 345.262V344.014C107.417 339.303 108.418 335.705 110.422 333.221C112.438 330.725 115.432 329.447 119.405 329.389H119.985ZM115.713 340.92C114.6 340.92 113.575 341.254 112.637 341.922C111.7 342.59 111.049 343.428 110.686 344.436V345.631C110.686 347.74 111.161 349.439 112.11 350.729C113.059 352.018 114.243 352.662 115.661 352.662C117.126 352.662 118.274 352.123 119.106 351.045C119.95 349.967 120.372 348.555 120.372 346.809C120.372 345.051 119.944 343.633 119.088 342.555C118.245 341.465 117.12 340.92 115.713 340.92ZM143.966 331.234L133.366 355H129.956L140.521 332.078H126.669V329.406H143.966V331.234ZM163.183 336.086C163.183 337.363 162.843 338.5 162.164 339.496C161.496 340.492 160.587 341.271 159.439 341.834C160.775 342.408 161.83 343.246 162.603 344.348C163.388 345.449 163.781 346.697 163.781 348.092C163.781 350.307 163.031 352.07 161.531 353.383C160.043 354.695 158.08 355.352 155.642 355.352C153.181 355.352 151.207 354.695 149.718 353.383C148.242 352.059 147.503 350.295 147.503 348.092C147.503 346.709 147.878 345.461 148.628 344.348C149.39 343.234 150.439 342.391 151.775 341.816C150.638 341.254 149.742 340.475 149.085 339.479C148.429 338.482 148.101 337.352 148.101 336.086C148.101 333.93 148.793 332.219 150.175 330.953C151.558 329.688 153.38 329.055 155.642 329.055C157.892 329.055 159.709 329.688 161.091 330.953C162.486 332.219 163.183 333.93 163.183 336.086ZM160.529 348.021C160.529 346.592 160.072 345.426 159.158 344.523C158.255 343.621 157.072 343.17 155.607 343.17C154.142 343.17 152.964 343.615 152.074 344.506C151.195 345.396 150.755 346.568 150.755 348.021C150.755 349.475 151.183 350.617 152.039 351.449C152.906 352.281 154.107 352.697 155.642 352.697C157.166 352.697 158.361 352.281 159.228 351.449C160.095 350.605 160.529 349.463 160.529 348.021ZM155.642 331.727C154.365 331.727 153.328 332.125 152.531 332.922C151.746 333.707 151.353 334.779 151.353 336.139C151.353 337.439 151.74 338.494 152.513 339.303C153.298 340.1 154.341 340.498 155.642 340.498C156.943 340.498 157.98 340.1 158.753 339.303C159.539 338.494 159.931 337.439 159.931 336.139C159.931 334.838 159.527 333.777 158.718 332.957C157.91 332.137 156.884 331.727 155.642 331.727ZM180.344 343.75C179.664 344.559 178.85 345.209 177.9 345.701C176.963 346.193 175.932 346.439 174.807 346.439C173.33 346.439 172.041 346.076 170.939 345.35C169.85 344.623 169.006 343.604 168.408 342.291C167.811 340.967 167.512 339.508 167.512 337.914C167.512 336.203 167.834 334.662 168.479 333.291C169.135 331.92 170.061 330.871 171.256 330.145C172.451 329.418 173.846 329.055 175.439 329.055C177.971 329.055 179.963 330.004 181.416 331.902C182.881 333.789 183.613 336.367 183.613 339.637V340.586C183.613 345.566 182.629 349.205 180.66 351.502C178.691 353.787 175.721 354.959 171.748 355.018H171.115V352.275H171.801C174.484 352.229 176.547 351.531 177.988 350.184C179.43 348.824 180.215 346.68 180.344 343.75ZM175.334 343.75C176.424 343.75 177.426 343.416 178.34 342.748C179.266 342.08 179.939 341.254 180.361 340.27V338.969C180.361 336.836 179.898 335.102 178.973 333.766C178.047 332.43 176.875 331.762 175.457 331.762C174.027 331.762 172.879 332.312 172.012 333.414C171.145 334.504 170.711 335.945 170.711 337.738C170.711 339.484 171.127 340.926 171.959 342.062C172.803 343.188 173.928 343.75 175.334 343.75ZM204.149 344.084C204.149 347.893 203.499 350.723 202.198 352.574C200.897 354.426 198.864 355.352 196.098 355.352C193.368 355.352 191.346 354.449 190.034 352.645C188.721 350.828 188.042 348.121 187.995 344.523V340.182C187.995 336.42 188.645 333.625 189.946 331.797C191.247 329.969 193.286 329.055 196.063 329.055C198.817 329.055 200.844 329.939 202.145 331.709C203.446 333.467 204.114 336.186 204.149 339.865V344.084ZM200.897 339.637C200.897 336.883 200.51 334.879 199.737 333.625C198.963 332.359 197.739 331.727 196.063 331.727C194.399 331.727 193.186 332.354 192.424 333.607C191.663 334.861 191.27 336.789 191.247 339.391V344.594C191.247 347.359 191.645 349.404 192.442 350.729C193.251 352.041 194.469 352.697 196.098 352.697C197.704 352.697 198.893 352.076 199.667 350.834C200.452 349.592 200.862 347.635 200.897 344.963V339.637ZM212.292 347.775H209.357L209.128 329.406H212.538L212.292 347.775ZM209.005 353.365C209.005 352.838 209.163 352.398 209.48 352.047C209.808 351.684 210.288 351.502 210.921 351.502C211.554 351.502 212.034 351.684 212.362 352.047C212.69 352.398 212.855 352.838 212.855 353.365C212.855 353.893 212.69 354.332 212.362 354.684C212.034 355.023 211.554 355.193 210.921 355.193C210.288 355.193 209.808 355.023 209.48 354.684C209.163 354.332 209.005 353.893 209.005 353.365ZM246.029 346.176C245.888 349.012 245.185 351.25 243.919 352.891C242.654 354.531 240.961 355.352 238.839 355.352C236.648 355.352 235.242 354.367 234.621 352.398C233.988 353.395 233.261 354.139 232.441 354.631C231.632 355.111 230.794 355.352 229.927 355.352C228.263 355.352 227.003 354.672 226.148 353.312C225.293 351.953 224.976 350.072 225.199 347.67C225.375 345.736 225.814 344.014 226.517 342.502C227.232 340.979 228.146 339.783 229.259 338.916C230.384 338.049 231.562 337.615 232.793 337.615C233.742 337.615 234.591 337.744 235.341 338.002C236.091 338.248 236.935 338.74 237.873 339.479L236.959 349.217C236.736 351.924 237.486 353.277 239.209 353.277C240.533 353.277 241.605 352.621 242.425 351.309C243.246 349.996 243.691 348.285 243.761 346.176C243.984 341.617 243.134 338.143 241.212 335.752C239.302 333.361 236.39 332.166 232.476 332.166C230.121 332.166 228.029 332.752 226.201 333.924C224.373 335.084 222.931 336.766 221.877 338.969C220.822 341.172 220.23 343.715 220.101 346.598C219.961 349.504 220.312 352.029 221.156 354.174C222 356.307 223.283 357.936 225.005 359.061C226.74 360.197 228.832 360.766 231.281 360.766C232.336 360.766 233.39 360.637 234.445 360.379C235.511 360.121 236.396 359.787 237.099 359.377L237.75 361.398C237.023 361.855 236.056 362.23 234.849 362.523C233.654 362.816 232.441 362.963 231.211 362.963C228.281 362.963 225.761 362.301 223.652 360.977C221.543 359.664 219.961 357.766 218.906 355.281C217.863 352.809 217.412 349.914 217.552 346.598C217.693 343.375 218.414 340.48 219.714 337.914C221.015 335.336 222.779 333.35 225.005 331.955C227.232 330.549 229.746 329.846 232.546 329.846C235.464 329.846 237.966 330.502 240.052 331.814C242.138 333.127 243.691 335.02 244.711 337.492C245.73 339.965 246.169 342.859 246.029 346.176ZM227.994 347.67C227.83 349.334 227.982 350.611 228.451 351.502C228.931 352.393 229.687 352.838 230.718 352.838C231.421 352.838 232.095 352.539 232.74 351.941C233.396 351.344 233.935 350.488 234.357 349.375L234.375 349.217L235.183 340.375C234.527 340.035 233.824 339.865 233.074 339.865C231.703 339.865 230.566 340.562 229.664 341.957C228.773 343.352 228.216 345.256 227.994 347.67ZM261.273 347.793H256.633L255.227 355H252.713L254.119 347.793H249.918V345.385H254.576L255.789 339.162H251.254V336.719H256.264L257.705 329.406H260.219L258.777 336.719H263.418L264.859 329.406H267.391L265.949 336.719H269.535V339.162H265.475L264.262 345.385H268.217V347.793H263.805L262.398 355H259.867L261.273 347.793ZM257.09 345.385H261.731L262.943 339.162H258.303L257.09 345.385ZM285.061 348.408C285.061 347.33 284.68 346.422 283.919 345.684C283.169 344.945 281.897 344.277 280.104 343.68C277.608 342.918 275.786 341.928 274.637 340.709C273.501 339.479 272.932 337.92 272.932 336.033C272.932 334.111 273.489 332.535 274.602 331.305C275.727 330.074 277.268 329.342 279.225 329.107V325.258H281.844V329.125C283.813 329.395 285.342 330.221 286.432 331.604C287.534 332.986 288.085 334.879 288.085 337.281H284.85C284.85 335.629 284.458 334.316 283.672 333.344C282.887 332.371 281.827 331.885 280.491 331.885C279.096 331.885 278.03 332.248 277.292 332.975C276.553 333.689 276.184 334.691 276.184 335.98C276.184 337.176 276.571 338.131 277.344 338.846C278.129 339.549 279.413 340.193 281.194 340.779C282.987 341.354 284.381 341.992 285.378 342.695C286.385 343.387 287.124 344.195 287.592 345.121C288.073 346.047 288.313 347.131 288.313 348.373C288.313 350.354 287.715 351.947 286.52 353.154C285.336 354.361 283.672 355.076 281.528 355.299V358.656H278.926V355.299C276.747 355.1 275.036 354.326 273.794 352.979C272.563 351.619 271.948 349.779 271.948 347.459H275.2C275.2 349.088 275.628 350.342 276.483 351.221C277.338 352.1 278.551 352.539 280.122 352.539C281.657 352.539 282.864 352.17 283.743 351.432C284.622 350.693 285.061 349.686 285.061 348.408ZM292.079 334.328C292.079 332.793 292.566 331.527 293.538 330.531C294.523 329.535 295.782 329.037 297.317 329.037C298.876 329.037 300.136 329.541 301.097 330.549C302.069 331.545 302.556 332.84 302.556 334.434V335.682C302.556 337.229 302.064 338.494 301.079 339.479C300.107 340.451 298.864 340.938 297.353 340.938C295.829 340.938 294.569 340.451 293.573 339.479C292.577 338.494 292.079 337.188 292.079 335.559V334.328ZM294.505 335.682C294.505 336.596 294.763 337.352 295.278 337.949C295.794 338.535 296.485 338.828 297.353 338.828C298.185 338.828 298.853 338.541 299.357 337.967C299.872 337.393 300.13 336.607 300.13 335.611V334.328C300.13 333.414 299.878 332.658 299.374 332.061C298.87 331.463 298.185 331.164 297.317 331.164C296.45 331.164 295.765 331.463 295.261 332.061C294.757 332.658 294.505 333.438 294.505 334.398V335.682ZM304.542 348.725C304.542 347.189 305.028 345.93 306.001 344.945C306.985 343.949 308.245 343.451 309.78 343.451C311.316 343.451 312.575 343.943 313.56 344.928C314.544 345.912 315.036 347.219 315.036 348.848V350.096C315.036 351.631 314.544 352.896 313.56 353.893C312.587 354.877 311.339 355.369 309.816 355.369C308.292 355.369 307.032 354.883 306.036 353.91C305.04 352.926 304.542 351.619 304.542 349.99V348.725ZM306.968 350.096C306.968 351.021 307.226 351.783 307.741 352.381C308.257 352.967 308.948 353.26 309.816 353.26C310.659 353.26 311.333 352.973 311.837 352.398C312.341 351.812 312.593 351.021 312.593 350.025V348.725C312.593 347.799 312.335 347.043 311.819 346.457C311.316 345.871 310.636 345.578 309.78 345.578C308.948 345.578 308.269 345.871 307.741 346.457C307.226 347.031 306.968 347.811 306.968 348.795V350.096ZM298.091 353.066L296.245 351.906L308.743 331.902L310.589 333.062L298.091 353.066ZM324.093 333.713L320.754 342.186H317.73L322.986 329.406H325.218L330.457 342.186H327.451L324.093 333.713ZM333.432 348.127C333.432 346.896 333.772 345.766 334.451 344.734C335.143 343.703 336.455 342.502 338.389 341.131C337.252 339.748 336.49 338.635 336.104 337.791C335.717 336.947 335.524 336.109 335.524 335.277C335.524 333.332 336.098 331.809 337.246 330.707C338.395 329.605 339.953 329.055 341.922 329.055C343.68 329.055 345.133 329.57 346.281 330.602C347.43 331.621 348.004 332.91 348.004 334.469C348.004 335.5 347.74 336.455 347.213 337.334C346.697 338.201 345.789 339.115 344.488 340.076L342.608 341.465L348.303 348.268C349.1 346.744 349.498 345.051 349.498 343.188H352.434C352.434 346.176 351.713 348.654 350.272 350.623L353.928 355H350.025L348.32 352.979C347.453 353.752 346.434 354.344 345.262 354.754C344.102 355.152 342.918 355.352 341.711 355.352C339.215 355.352 337.211 354.689 335.699 353.365C334.188 352.041 333.432 350.295 333.432 348.127ZM341.711 352.697C343.434 352.697 345.01 352.041 346.44 350.729L340.199 343.258L339.619 343.68C337.662 345.121 336.684 346.604 336.684 348.127C336.684 349.51 337.129 350.617 338.02 351.449C338.922 352.281 340.152 352.697 341.711 352.697ZM338.775 335.172C338.775 336.297 339.467 337.703 340.85 339.391L342.924 337.932C343.721 337.369 344.266 336.836 344.559 336.332C344.852 335.816 344.998 335.195 344.998 334.469C344.998 333.684 344.705 333.033 344.119 332.518C343.533 331.99 342.795 331.727 341.904 331.727C340.943 331.727 340.182 332.055 339.619 332.711C339.057 333.355 338.775 334.176 338.775 335.172ZM359.856 337.721L354.547 336.139L355.356 333.484L360.665 335.453L360.506 329.406H363.196L363.02 335.541L368.241 333.607L369.049 336.279L363.653 337.879L367.133 342.643L364.954 344.295L361.684 339.232L358.52 344.172L356.323 342.572L359.856 337.721ZM371.901 344.611C371.901 341.963 372.253 339.42 372.956 336.982C373.671 334.545 374.732 332.33 376.138 330.338C377.544 328.346 379.003 326.939 380.515 326.119L381.183 328.264C379.472 329.576 378.066 331.58 376.964 334.275C375.874 336.971 375.276 339.988 375.171 343.328L375.153 344.822C375.153 349.346 375.98 353.271 377.632 356.6C378.628 358.592 379.812 360.15 381.183 361.275L380.515 363.262C378.956 362.395 377.468 360.941 376.05 358.902C373.284 354.918 371.901 350.154 371.901 344.611ZM391.839 344.787C391.839 347.4 391.494 349.908 390.802 352.311C390.123 354.701 389.074 356.91 387.656 358.938C386.25 360.965 384.773 362.406 383.226 363.262L382.541 361.275C384.345 359.893 385.793 357.748 386.882 354.842C387.984 351.924 388.546 348.689 388.57 345.139V344.576C388.57 342.115 388.312 339.83 387.796 337.721C387.281 335.6 386.56 333.701 385.634 332.025C384.72 330.35 383.689 329.043 382.541 328.105L383.226 326.119C384.773 326.975 386.244 328.404 387.638 330.408C389.045 332.412 390.093 334.621 390.785 337.035C391.488 339.449 391.839 342.033 391.839 344.787Z" fill="#1B314D" fill-opacity="0.8"/>
<path d="M962.439 129.562H979.291V132H959.533V97.875H962.439V129.562ZM987.334 132H984.522V106.641H987.334V132ZM984.03 99.3047C984.03 98.7734 984.202 98.3281 984.545 97.9688C984.889 97.5938 985.358 97.4062 985.952 97.4062C986.545 97.4062 987.014 97.5938 987.358 97.9688C987.717 98.3281 987.897 98.7734 987.897 99.3047C987.897 99.8359 987.717 100.281 987.358 100.641C987.014 101 986.545 101.18 985.952 101.18C985.358 101.18 984.889 101 984.545 100.641C984.202 100.281 984.03 99.8359 984.03 99.3047ZM993.854 119.086C993.854 115.117 994.729 111.977 996.479 109.664C998.245 107.336 1000.64 106.172 1003.65 106.172C1007.1 106.172 1009.73 107.547 1011.53 110.297L1011.67 106.641H1014.29V131.484C1014.29 134.75 1013.38 137.336 1011.55 139.242C1009.72 141.148 1007.24 142.102 1004.12 142.102C1002.35 142.102 1000.67 141.703 999.057 140.906C997.464 140.125 996.206 139.078 995.284 137.766L996.854 136.078C998.839 138.516 1001.2 139.734 1003.93 139.734C1006.28 139.734 1008.1 139.039 1009.42 137.648C1010.73 136.273 1011.41 134.359 1011.46 131.906V128.719C1009.66 131.219 1007.04 132.469 1003.6 132.469C1000.67 132.469 998.307 131.297 996.526 128.953C994.745 126.609 993.854 123.445 993.854 119.461V119.086ZM996.69 119.578C996.69 122.812 997.339 125.367 998.636 127.242C999.932 129.102 1001.76 130.031 1004.12 130.031C1007.57 130.031 1010.02 128.484 1011.46 125.391V113.602C1010.8 111.977 1009.85 110.742 1008.62 109.898C1007.39 109.039 1005.9 108.609 1004.17 108.609C1001.81 108.609 999.972 109.539 998.659 111.398C997.347 113.242 996.69 115.969 996.69 119.578ZM1024.4 110.93C1025.32 109.414 1026.5 108.242 1027.94 107.414C1029.37 106.586 1030.94 106.172 1032.65 106.172C1035.37 106.172 1037.39 106.938 1038.72 108.469C1040.05 110 1040.72 112.297 1040.73 115.359V132H1037.94V115.336C1037.93 113.07 1037.44 111.383 1036.49 110.273C1035.55 109.164 1034.05 108.609 1031.97 108.609C1030.23 108.609 1028.69 109.156 1027.35 110.25C1026.02 111.328 1025.04 112.789 1024.4 114.633V132H1021.61V96H1024.4V110.93ZM1052.32 100.148V106.641H1057.57V108.938H1052.32V125.836C1052.32 127.242 1052.57 128.289 1053.07 128.977C1053.58 129.664 1054.43 130.008 1055.62 130.008C1056.09 130.008 1056.85 129.93 1057.89 129.773L1058.01 132.07C1057.28 132.336 1056.28 132.469 1055.01 132.469C1053.09 132.469 1051.69 131.914 1050.82 130.805C1049.94 129.68 1049.5 128.031 1049.5 125.859V108.938H1044.84V106.641H1049.5V100.148H1052.32ZM1146.26 118.195H1138.25V132H1133.72V97.875H1145.02C1148.86 97.875 1151.82 98.75 1153.88 100.5C1155.96 102.25 1157 104.797 1157 108.141C1157 110.266 1156.42 112.117 1155.26 113.695C1154.12 115.273 1152.53 116.453 1150.48 117.234L1158.5 131.719V132H1153.67L1146.26 118.195ZM1138.25 114.516H1145.16C1147.39 114.516 1149.17 113.938 1150.48 112.781C1151.81 111.625 1152.47 110.078 1152.47 108.141C1152.47 106.031 1151.84 104.414 1150.57 103.289C1149.32 102.164 1147.51 101.594 1145.14 101.578H1138.25V114.516ZM1173.17 132.469C1169.73 132.469 1166.94 131.344 1164.78 129.094C1162.62 126.828 1161.55 123.805 1161.55 120.023V119.227C1161.55 116.711 1162.02 114.469 1162.98 112.5C1163.95 110.516 1165.29 108.969 1167.01 107.859C1168.74 106.734 1170.62 106.172 1172.63 106.172C1175.93 106.172 1178.49 107.258 1180.32 109.43C1182.15 111.602 1183.06 114.711 1183.06 118.758V120.562H1165.88C1165.95 123.062 1166.67 125.086 1168.06 126.633C1169.47 128.164 1171.25 128.93 1173.41 128.93C1174.94 128.93 1176.23 128.617 1177.3 127.992C1178.36 127.367 1179.29 126.539 1180.09 125.508L1182.73 127.57C1180.61 130.836 1177.42 132.469 1173.17 132.469ZM1172.63 109.734C1170.88 109.734 1169.41 110.375 1168.23 111.656C1167.04 112.922 1166.3 114.703 1166.02 117H1178.73V116.672C1178.6 114.469 1178.01 112.766 1176.95 111.562C1175.88 110.344 1174.45 109.734 1172.63 109.734ZM1187.07 119.109C1187.07 115.156 1187.99 112.016 1189.82 109.688C1191.64 107.344 1194.07 106.172 1197.08 106.172C1200.18 106.172 1202.59 107.266 1204.32 109.453L1204.54 106.641H1208.5V131.391C1208.5 134.672 1207.52 137.258 1205.57 139.148C1203.63 141.039 1201.02 141.984 1197.74 141.984C1195.91 141.984 1194.12 141.594 1192.37 140.812C1190.62 140.031 1189.29 138.961 1188.36 137.602L1190.61 135C1192.47 137.297 1194.75 138.445 1197.43 138.445C1199.54 138.445 1201.18 137.852 1202.36 136.664C1203.54 135.477 1204.14 133.805 1204.14 131.648V129.469C1202.4 131.469 1200.04 132.469 1197.04 132.469C1194.07 132.469 1191.66 131.273 1189.82 128.883C1187.99 126.492 1187.07 123.234 1187.07 119.109ZM1191.43 119.602C1191.43 122.461 1192.02 124.711 1193.19 126.352C1194.36 127.977 1196 128.789 1198.11 128.789C1200.85 128.789 1202.86 127.547 1204.14 125.062V113.484C1202.81 111.062 1200.82 109.852 1198.16 109.852C1196.05 109.852 1194.4 110.672 1193.22 112.312C1192.03 113.953 1191.43 116.383 1191.43 119.602ZM1230.72 129.492C1229.03 131.477 1226.56 132.469 1223.29 132.469C1220.59 132.469 1218.52 131.688 1217.1 130.125C1215.7 128.547 1214.99 126.219 1214.97 123.141V106.641H1219.31V123.023C1219.31 126.867 1220.87 128.789 1223.99 128.789C1227.31 128.789 1229.51 127.555 1230.6 125.086V106.641H1234.94V132H1230.81L1230.72 129.492ZM1246.26 132H1241.93V96H1246.26V132ZM1268.88 132C1268.63 131.5 1268.43 130.609 1268.28 129.328C1266.26 131.422 1263.85 132.469 1261.06 132.469C1258.56 132.469 1256.5 131.766 1254.89 130.359C1253.3 128.938 1252.5 127.141 1252.5 124.969C1252.5 122.328 1253.5 120.281 1255.5 118.828C1257.52 117.359 1260.35 116.625 1263.99 116.625H1268.21V114.633C1268.21 113.117 1267.75 111.914 1266.85 111.023C1265.94 110.117 1264.6 109.664 1262.84 109.664C1261.29 109.664 1259.99 110.055 1258.95 110.836C1257.9 111.617 1257.38 112.562 1257.38 113.672H1253.02C1253.02 112.406 1253.46 111.188 1254.35 110.016C1255.26 108.828 1256.48 107.891 1258.01 107.203C1259.56 106.516 1261.25 106.172 1263.1 106.172C1266.02 106.172 1268.31 106.906 1269.96 108.375C1271.62 109.828 1272.48 111.836 1272.54 114.398V126.07C1272.54 128.398 1272.84 130.25 1273.43 131.625V132H1268.88ZM1261.69 128.695C1263.05 128.695 1264.34 128.344 1265.56 127.641C1266.78 126.938 1267.66 126.023 1268.21 124.898V119.695H1264.81C1259.49 119.695 1256.84 121.25 1256.84 124.359C1256.84 125.719 1257.29 126.781 1258.2 127.547C1259.1 128.312 1260.27 128.695 1261.69 128.695ZM1291.6 110.531C1290.94 110.422 1290.23 110.367 1289.47 110.367C1286.62 110.367 1284.69 111.578 1283.68 114V132H1279.34V106.641H1283.56L1283.63 109.57C1285.05 107.305 1287.07 106.172 1289.68 106.172C1290.52 106.172 1291.16 106.281 1291.6 106.5V110.531ZM1365.44 132V97.875H1377.39C1381.53 97.875 1384.67 98.6719 1386.81 100.266C1388.95 101.844 1390.02 104.164 1390.02 107.227C1390.02 108.898 1389.59 110.375 1388.73 111.656C1387.87 112.922 1386.68 113.852 1385.15 114.445C1386.9 114.883 1388.27 115.766 1389.27 117.094C1390.29 118.422 1390.79 120.047 1390.79 121.969C1390.79 125.25 1389.75 127.734 1387.65 129.422C1385.56 131.109 1382.58 131.969 1378.7 132H1365.44ZM1372.47 117.141V126.352H1378.49C1380.15 126.352 1381.44 125.961 1382.36 125.18C1383.29 124.383 1383.76 123.289 1383.76 121.898C1383.76 118.773 1382.15 117.188 1378.91 117.141H1372.47ZM1372.47 112.172H1377.67C1381.22 112.109 1382.99 110.695 1382.99 107.93C1382.99 106.383 1382.54 105.273 1381.63 104.602C1380.74 103.914 1379.33 103.57 1377.39 103.57H1372.47V112.172ZM1394.6 119.086C1394.6 116.57 1395.08 114.328 1396.05 112.359C1397.02 110.391 1398.41 108.867 1400.22 107.789C1402.05 106.711 1404.17 106.172 1406.57 106.172C1409.99 106.172 1412.78 107.219 1414.94 109.312C1417.11 111.406 1418.32 114.25 1418.57 117.844L1418.62 119.578C1418.62 123.469 1417.53 126.594 1415.36 128.953C1413.19 131.297 1410.28 132.469 1406.62 132.469C1402.96 132.469 1400.04 131.297 1397.85 128.953C1395.68 126.609 1394.6 123.422 1394.6 119.391V119.086ZM1401.37 119.578C1401.37 121.984 1401.82 123.828 1402.73 125.109C1403.64 126.375 1404.93 127.008 1406.62 127.008C1408.26 127.008 1409.54 126.383 1410.46 125.133C1411.39 123.867 1411.85 121.852 1411.85 119.086C1411.85 116.727 1411.39 114.898 1410.46 113.602C1409.54 112.305 1408.24 111.656 1406.57 111.656C1404.92 111.656 1403.64 112.305 1402.73 113.602C1401.82 114.883 1401.37 116.875 1401.37 119.578ZM1429.94 132H1423.15V96H1429.94V132ZM1434.5 119.133C1434.5 115.18 1435.38 112.031 1437.14 109.688C1438.93 107.344 1441.35 106.172 1444.43 106.172C1446.9 106.172 1448.94 107.094 1450.55 108.938V96H1457.35V132H1451.23L1450.9 129.305C1449.21 131.414 1447.04 132.469 1444.39 132.469C1441.4 132.469 1439 131.297 1437.19 128.953C1435.39 126.594 1434.5 123.32 1434.5 119.133ZM1441.27 119.625C1441.27 122 1441.68 123.82 1442.51 125.086C1443.34 126.352 1444.54 126.984 1446.12 126.984C1448.21 126.984 1449.69 126.102 1450.55 124.336V114.328C1449.71 112.562 1448.25 111.68 1446.17 111.68C1442.9 111.68 1441.27 114.328 1441.27 119.625Z" fill="#1B314D"/>
</svg>
