<svg width="1554" height="373" viewBox="0 0 1554 373" fill="none" xmlns="http://www.w3.org/2000/svg">
<g clip-path="url(#clip0)">
<path d="M39.0391 98.5234H22.2344V136H1.14062V33.625H39.1797C51.2734 33.625 60.6016 36.3203 67.1641 41.7109C73.7266 47.1016 77.0078 54.7188 77.0078 64.5625C77.0078 71.5469 75.4844 77.3828 72.4375 82.0703C69.4375 86.7109 64.8672 90.4141 58.7266 93.1797L80.875 135.016V136H58.2344L39.0391 98.5234ZM22.2344 81.4375H39.25C44.5469 81.4375 48.6484 80.1016 51.5547 77.4297C54.4609 74.7109 55.9141 70.9844 55.9141 66.25C55.9141 61.4219 54.5312 57.625 51.7656 54.8594C49.0469 52.0938 44.8516 50.7109 39.1797 50.7109H22.2344V81.4375ZM88.6138 97.2578C88.6138 89.7109 90.0669 82.9844 92.9732 77.0781C95.8794 71.1719 100.051 66.6016 105.489 63.3672C110.973 60.1328 117.325 58.5156 124.543 58.5156C134.809 58.5156 143.176 61.6563 149.645 67.9375C156.161 74.2188 159.793 82.75 160.543 93.5312L160.684 98.7344C160.684 110.406 157.426 119.781 150.911 126.859C144.395 133.891 135.653 137.406 124.684 137.406C113.715 137.406 104.95 133.891 98.3872 126.859C91.8716 119.828 88.6138 110.266 88.6138 98.1719V97.2578ZM108.934 98.7344C108.934 105.953 110.293 111.484 113.012 115.328C115.731 119.125 119.622 121.023 124.684 121.023C129.606 121.023 133.45 119.148 136.215 115.398C138.981 111.602 140.364 105.555 140.364 97.2578C140.364 90.1797 138.981 84.6953 136.215 80.8047C133.45 76.9141 129.559 74.9688 124.543 74.9688C119.575 74.9688 115.731 76.9141 113.012 80.8047C110.293 84.6484 108.934 90.625 108.934 98.7344ZM241.759 98.6641C241.759 110.852 239.157 120.367 233.954 127.211C228.751 134.008 221.485 137.406 212.157 137.406C203.907 137.406 197.321 134.242 192.399 127.914L191.485 136H173.204V28H193.524V66.7422C198.212 61.2578 204.376 58.5156 212.017 58.5156C221.298 58.5156 228.563 61.9375 233.813 68.7812C239.11 75.5781 241.759 85.1641 241.759 97.5391V98.6641ZM221.438 97.1875C221.438 89.5 220.22 83.8984 217.782 80.3828C215.345 76.8203 211.712 75.0391 206.884 75.0391C200.415 75.0391 195.962 77.6875 193.524 82.9844V113.008C196.009 118.352 200.509 121.023 207.024 121.023C213.587 121.023 217.899 117.789 219.962 111.32C220.946 108.227 221.438 103.516 221.438 97.1875ZM251.185 97.2578C251.185 89.7109 252.638 82.9844 255.544 77.0781C258.451 71.1719 262.623 66.6016 268.06 63.3672C273.544 60.1328 279.896 58.5156 287.115 58.5156C297.38 58.5156 305.748 61.6563 312.216 67.9375C318.732 74.2188 322.365 82.75 323.115 93.5312L323.255 98.7344C323.255 110.406 319.998 119.781 313.482 126.859C306.966 133.891 298.224 137.406 287.255 137.406C276.287 137.406 267.521 133.891 260.959 126.859C254.443 119.828 251.185 110.266 251.185 98.1719V97.2578ZM271.505 98.7344C271.505 105.953 272.865 111.484 275.584 115.328C278.302 119.125 282.193 121.023 287.255 121.023C292.177 121.023 296.021 119.148 298.787 115.398C301.552 111.602 302.935 105.555 302.935 97.2578C302.935 90.1797 301.552 84.6953 298.787 80.8047C296.021 76.9141 292.13 74.9688 287.115 74.9688C282.146 74.9688 278.302 76.9141 275.584 80.8047C272.865 84.6484 271.505 90.625 271.505 98.7344ZM360.104 41.2188V59.9219H373.111V74.8281H360.104V112.797C360.104 115.609 360.643 117.625 361.721 118.844C362.799 120.062 364.861 120.672 367.908 120.672C370.158 120.672 372.15 120.508 373.885 120.18V135.578C369.9 136.797 365.799 137.406 361.58 137.406C347.33 137.406 340.064 130.211 339.783 115.82V74.8281H328.674V59.9219H339.783V41.2188H360.104ZM379.163 97.2578C379.163 89.7109 380.616 82.9844 383.522 77.0781C386.428 71.1719 390.6 66.6016 396.038 63.3672C401.522 60.1328 407.874 58.5156 415.092 58.5156C425.358 58.5156 433.725 61.6563 440.194 67.9375C446.71 74.2188 450.342 82.75 451.092 93.5312L451.233 98.7344C451.233 110.406 447.975 119.781 441.46 126.859C434.944 133.891 426.202 137.406 415.233 137.406C404.264 137.406 395.499 133.891 388.936 126.859C382.42 119.828 379.163 110.266 379.163 98.1719V97.2578ZM399.483 98.7344C399.483 105.953 400.842 111.484 403.561 115.328C406.28 119.125 410.17 121.023 415.233 121.023C420.155 121.023 423.999 119.148 426.764 115.398C429.53 111.602 430.913 105.555 430.913 97.2578C430.913 90.1797 429.53 84.6953 426.764 80.8047C423.999 76.9141 420.108 74.9688 415.092 74.9688C410.124 74.9688 406.28 76.9141 403.561 80.8047C400.842 84.6484 399.483 90.625 399.483 98.7344Z" fill="#FEFEE6"/>
<path d="M22.8047 234.094H8.50781L5.29688 243H0.65625L13.6875 208.875H17.625L30.6797 243H26.0625L22.8047 234.094ZM9.86719 230.391H21.4688L15.6562 214.43L9.86719 230.391ZM35.2778 243V208.875H46.4341C50.1372 208.875 52.9185 209.641 54.7778 211.172C56.6528 212.703 57.5903 214.969 57.5903 217.969C57.5903 219.562 57.1372 220.977 56.231 222.211C55.3247 223.43 54.0903 224.375 52.5278 225.047C54.3716 225.562 55.8247 226.547 56.8872 228C57.9653 229.438 58.5044 231.156 58.5044 233.156C58.5044 236.219 57.5122 238.625 55.5278 240.375C53.5435 242.125 50.7388 243 47.1138 243H35.2778ZM39.7778 227.039V239.32H47.2075C49.3013 239.32 50.9497 238.781 52.1528 237.703C53.3716 236.609 53.981 235.109 53.981 233.203C53.981 229.094 51.7466 227.039 47.2778 227.039H39.7778ZM39.7778 223.43H46.5747C48.5435 223.43 50.1138 222.938 51.2857 221.953C52.4732 220.969 53.0669 219.633 53.0669 217.945C53.0669 216.07 52.52 214.711 51.4263 213.867C50.3325 213.008 48.6685 212.578 46.4341 212.578H39.7778V223.43ZM90.2901 232.172C89.8682 235.781 88.5322 238.57 86.2822 240.539C84.0479 242.492 81.0713 243.469 77.3526 243.469C73.3213 243.469 70.0869 242.023 67.6494 239.133C65.2276 236.242 64.0166 232.375 64.0166 227.531V224.25C64.0166 221.078 64.5791 218.289 65.7041 215.883C66.8447 213.477 68.4541 211.633 70.5322 210.352C72.6104 209.055 75.0166 208.406 77.751 208.406C81.376 208.406 84.2822 209.422 86.4697 211.453C88.6572 213.469 89.9307 216.266 90.2901 219.844H85.7666C85.376 217.125 84.5244 215.156 83.2119 213.938C81.9151 212.719 80.0947 212.109 77.751 212.109C74.876 212.109 72.6182 213.172 70.9776 215.297C69.3526 217.422 68.5401 220.445 68.5401 224.367V227.672C68.5401 231.375 69.3135 234.32 70.8604 236.508C72.4072 238.695 74.5713 239.789 77.3526 239.789C79.8526 239.789 81.7666 239.227 83.0947 238.102C84.4385 236.961 85.3291 234.984 85.7666 232.172H90.2901ZM96.4585 243V208.875H106.091C109.06 208.875 111.685 209.531 113.966 210.844C116.248 212.156 118.005 214.023 119.24 216.445C120.49 218.867 121.123 221.648 121.138 224.789V226.969C121.138 230.188 120.513 233.008 119.263 235.43C118.029 237.852 116.255 239.711 113.943 241.008C111.646 242.305 108.966 242.969 105.904 243H96.4585ZM100.959 212.578V239.32H105.693C109.162 239.32 111.857 238.242 113.779 236.086C115.716 233.93 116.685 230.859 116.685 226.875V224.883C116.685 221.008 115.771 218 113.943 215.859C112.13 213.703 109.552 212.609 106.209 212.578H100.959ZM147.252 227.227H132.463V239.32H149.643V243H127.963V208.875H149.408V212.578H132.463V223.547H147.252V227.227ZM174.069 227.93H159.749V243H155.249V208.875H176.389V212.578H159.749V224.25H174.069V227.93ZM206.98 238.523C205.823 240.18 204.206 241.422 202.128 242.25C200.065 243.062 197.659 243.469 194.909 243.469C192.128 243.469 189.659 242.82 187.503 241.523C185.347 240.211 183.675 238.352 182.487 235.945C181.315 233.539 180.714 230.75 180.683 227.578V224.602C180.683 219.461 181.878 215.477 184.269 212.648C186.675 209.82 190.05 208.406 194.394 208.406C197.956 208.406 200.823 209.32 202.995 211.148C205.167 212.961 206.495 215.539 206.98 218.883H202.48C201.636 214.367 198.948 212.109 194.417 212.109C191.401 212.109 189.112 213.172 187.55 215.297C186.003 217.406 185.222 220.469 185.206 224.484V227.273C185.206 231.102 186.081 234.148 187.831 236.414C189.581 238.664 191.948 239.789 194.933 239.789C196.62 239.789 198.097 239.602 199.362 239.227C200.628 238.852 201.675 238.219 202.503 237.328V229.664H194.605V226.008H206.98V238.523ZM240.734 243H236.21V227.227H219.007V243H214.507V208.875H219.007V223.547H236.21V208.875H240.734V243ZM253.559 243H249.059V208.875H253.559V243ZM276.11 208.875H280.633V233.039C280.633 236.305 279.649 238.859 277.68 240.703C275.727 242.547 273.118 243.469 269.852 243.469C266.461 243.469 263.821 242.602 261.93 240.867C260.04 239.133 259.094 236.703 259.094 233.578H263.594C263.594 235.531 264.126 237.055 265.188 238.148C266.266 239.242 267.821 239.789 269.852 239.789C271.711 239.789 273.211 239.203 274.352 238.031C275.508 236.859 276.094 235.219 276.11 233.109V208.875ZM296.974 227.133L292.802 231.469V243H288.302V208.875H292.802V225.75L307.966 208.875H313.403L299.974 223.945L314.458 243H309.067L296.974 227.133ZM322.923 239.32H339.095V243H318.4V208.875H322.923V239.32ZM350.045 208.875L361.201 236.719L372.357 208.875H378.193V243H373.693V229.711L374.115 215.367L362.912 243H359.467L348.287 215.438L348.732 229.711V243H344.232V208.875H350.045ZM412.37 243H407.846L390.667 216.703V243H386.143V208.875H390.667L407.893 235.289V208.875H412.37V243ZM446.616 227.039C446.616 230.383 446.054 233.305 444.929 235.805C443.804 238.289 442.21 240.188 440.148 241.5C438.085 242.812 435.679 243.469 432.929 243.469C430.241 243.469 427.858 242.812 425.78 241.5C423.702 240.172 422.085 238.289 420.929 235.852C419.788 233.398 419.202 230.562 419.171 227.344V224.883C419.171 221.602 419.741 218.703 420.882 216.188C422.023 213.672 423.632 211.75 425.71 210.422C427.804 209.078 430.194 208.406 432.882 208.406C435.616 208.406 438.023 209.07 440.101 210.398C442.194 211.711 443.804 213.625 444.929 216.141C446.054 218.641 446.616 221.555 446.616 224.883V227.039ZM442.14 224.836C442.14 220.789 441.327 217.688 439.702 215.531C438.077 213.359 435.804 212.273 432.882 212.273C430.038 212.273 427.796 213.359 426.155 215.531C424.53 217.688 423.694 220.688 423.648 224.531V227.039C423.648 230.961 424.468 234.047 426.108 236.297C427.765 238.531 430.038 239.648 432.929 239.648C435.835 239.648 438.085 238.594 439.679 236.484C441.273 234.359 442.093 231.32 442.14 227.367V224.836ZM457.871 229.641V243H453.371V208.875H465.957C469.691 208.875 472.613 209.828 474.722 211.734C476.847 213.641 477.91 216.164 477.91 219.305C477.91 222.617 476.871 225.172 474.793 226.969C472.73 228.75 469.769 229.641 465.91 229.641H457.871ZM457.871 225.961H465.957C468.363 225.961 470.207 225.398 471.488 224.273C472.769 223.133 473.41 221.492 473.41 219.352C473.41 217.32 472.769 215.695 471.488 214.477C470.207 213.258 468.449 212.625 466.214 212.578H457.871V225.961ZM509.719 227.039C509.719 230.336 509.195 233.18 508.149 235.57C507.102 237.945 505.633 239.805 503.742 241.148L509.836 245.93L506.766 248.766L499.57 243.047C498.445 243.328 497.258 243.469 496.008 243.469C493.32 243.469 490.938 242.812 488.859 241.5C486.781 240.172 485.164 238.289 484.008 235.852C482.867 233.398 482.281 230.562 482.25 227.344V224.883C482.25 221.602 482.82 218.703 483.961 216.188C485.102 213.672 486.711 211.75 488.789 210.422C490.883 209.078 493.274 208.406 495.961 208.406C498.711 208.406 501.125 209.07 503.203 210.398C505.297 211.727 506.906 213.641 508.031 216.141C509.156 218.625 509.719 221.531 509.719 224.859V227.039ZM505.219 224.836C505.219 220.82 504.414 217.727 502.805 215.555C501.211 213.367 498.93 212.273 495.961 212.273C493.133 212.273 490.899 213.359 489.258 215.531C487.633 217.688 486.797 220.688 486.75 224.531V227.039C486.75 230.945 487.563 234.023 489.188 236.273C490.828 238.523 493.102 239.648 496.008 239.648C498.914 239.648 501.164 238.594 502.758 236.484C504.352 234.359 505.172 231.32 505.219 227.367V224.836ZM529.176 229.195H521.161V243H516.637V208.875H527.934C531.778 208.875 534.731 209.75 536.794 211.5C538.872 213.25 539.911 215.797 539.911 219.141C539.911 221.266 539.333 223.117 538.176 224.695C537.036 226.273 535.442 227.453 533.395 228.234L541.411 242.719V243H536.583L529.176 229.195ZM521.161 225.516H528.075C530.309 225.516 532.083 224.938 533.395 223.781C534.723 222.625 535.387 221.078 535.387 219.141C535.387 217.031 534.755 215.414 533.489 214.289C532.239 213.164 530.426 212.594 528.051 212.578H521.161V225.516ZM556.298 227.789C552.439 226.68 549.626 225.32 547.86 223.711C546.11 222.086 545.235 220.086 545.235 217.711C545.235 215.023 546.306 212.805 548.446 211.055C550.603 209.289 553.4 208.406 556.837 208.406C559.181 208.406 561.267 208.859 563.095 209.766C564.939 210.672 566.36 211.922 567.36 213.516C568.376 215.109 568.884 216.852 568.884 218.742H564.36C564.36 216.68 563.704 215.062 562.392 213.891C561.079 212.703 559.228 212.109 556.837 212.109C554.618 212.109 552.884 212.602 551.634 213.586C550.4 214.555 549.782 215.906 549.782 217.641C549.782 219.031 550.368 220.211 551.54 221.18C552.728 222.133 554.735 223.008 557.564 223.805C560.407 224.602 562.626 225.484 564.22 226.453C565.829 227.406 567.017 228.523 567.782 229.805C568.564 231.086 568.954 232.594 568.954 234.328C568.954 237.094 567.876 239.312 565.72 240.984C563.564 242.641 560.681 243.469 557.071 243.469C554.728 243.469 552.54 243.023 550.509 242.133C548.478 241.227 546.907 239.992 545.798 238.43C544.704 236.867 544.157 235.094 544.157 233.109H548.681C548.681 235.172 549.439 236.805 550.954 238.008C552.485 239.195 554.525 239.789 557.071 239.789C559.446 239.789 561.267 239.305 562.532 238.336C563.798 237.367 564.431 236.047 564.431 234.375C564.431 232.703 563.845 231.414 562.673 230.508C561.501 229.586 559.376 228.68 556.298 227.789ZM598.326 212.578H587.357V243H582.88V212.578H571.935V208.875H598.326V212.578ZM627.416 208.875V232.078C627.401 235.297 626.385 237.93 624.369 239.977C622.369 242.023 619.651 243.172 616.213 243.422L615.018 243.469C611.283 243.469 608.307 242.461 606.088 240.445C603.869 238.43 602.744 235.656 602.713 232.125V208.875H607.166V231.984C607.166 234.453 607.846 236.375 609.205 237.75C610.565 239.109 612.502 239.789 615.018 239.789C617.565 239.789 619.51 239.109 620.854 237.75C622.213 236.391 622.893 234.477 622.893 232.008V208.875H627.416ZM645.819 237.023L655.569 208.875H660.491L647.835 243H643.85L631.217 208.875H636.116L645.819 237.023ZM672.448 232.242L673.105 236.742L674.066 232.688L680.816 208.875H684.612L691.198 232.688L692.136 236.812L692.862 232.219L698.159 208.875H702.683L694.409 243H690.308L683.276 218.133L682.737 215.531L682.198 218.133L674.909 243H670.808L662.558 208.875H667.058L672.448 232.242ZM718.836 221.953L727.015 208.875H732.312L721.531 225.797L732.57 243H727.226L718.836 229.688L710.398 243H705.078L716.14 225.797L705.336 208.875H710.609L718.836 221.953ZM748.207 226.008L757.113 208.875H762.223L750.457 230.273V243H745.957V230.273L734.192 208.875H739.348L748.207 226.008ZM770.008 239.32H789.532V243H764.688V239.625L783.391 212.578H764.993V208.875H788.782V212.18L770.008 239.32ZM18.9375 305C18.6875 304.5 18.4844 303.609 18.3281 302.328C16.3125 304.422 13.9062 305.469 11.1094 305.469C8.60938 305.469 6.55469 304.766 4.94531 303.359C3.35156 301.938 2.55469 300.141 2.55469 297.969C2.55469 295.328 3.55469 293.281 5.55469 291.828C7.57031 290.359 10.3984 289.625 14.0391 289.625H18.2578V287.633C18.2578 286.117 17.8047 284.914 16.8984 284.023C15.9922 283.117 14.6562 282.664 12.8906 282.664C11.3438 282.664 10.0469 283.055 9 283.836C7.95312 284.617 7.42969 285.562 7.42969 286.672H3.07031C3.07031 285.406 3.51562 284.188 4.40625 283.016C5.3125 281.828 6.53125 280.891 8.0625 280.203C9.60938 279.516 11.3047 279.172 13.1484 279.172C16.0703 279.172 18.3594 279.906 20.0156 281.375C21.6719 282.828 22.5312 284.836 22.5938 287.398V299.07C22.5938 301.398 22.8906 303.25 23.4844 304.625V305H18.9375ZM11.7422 301.695C13.1016 301.695 14.3906 301.344 15.6094 300.641C16.8281 299.938 17.7109 299.023 18.2578 297.898V292.695H14.8594C9.54688 292.695 6.89062 294.25 6.89062 297.359C6.89062 298.719 7.34375 299.781 8.25 300.547C9.15625 301.312 10.3203 301.695 11.7422 301.695ZM50.8638 292.602C50.8638 296.477 49.9732 299.594 48.1919 301.953C46.4107 304.297 44.02 305.469 41.02 305.469C37.8169 305.469 35.3403 304.336 33.5903 302.07L33.3794 305H29.395V269H33.731V282.43C35.481 280.258 37.895 279.172 40.9732 279.172C44.0513 279.172 46.4653 280.336 48.2153 282.664C49.981 284.992 50.8638 288.18 50.8638 292.227V292.602ZM46.5278 292.109C46.5278 289.156 45.9575 286.875 44.8169 285.266C43.6763 283.656 42.0357 282.852 39.895 282.852C37.0357 282.852 34.981 284.18 33.731 286.836V297.805C35.0591 300.461 37.1294 301.789 39.9419 301.789C42.02 301.789 43.6372 300.984 44.7935 299.375C45.9497 297.766 46.5278 295.344 46.5278 292.109ZM66.5244 301.93C68.0713 301.93 69.4229 301.461 70.5791 300.523C71.7354 299.586 72.376 298.414 72.501 297.008H76.6026C76.5244 298.461 76.0244 299.844 75.1026 301.156C74.1807 302.469 72.9463 303.516 71.3994 304.297C69.8682 305.078 68.2432 305.469 66.5244 305.469C63.0713 305.469 60.3213 304.32 58.2744 302.023C56.2432 299.711 55.2276 296.555 55.2276 292.555V291.828C55.2276 289.359 55.6807 287.164 56.5869 285.242C57.4932 283.32 58.7901 281.828 60.4776 280.766C62.1807 279.703 64.1885 279.172 66.501 279.172C69.3447 279.172 71.7041 280.023 73.5791 281.727C75.4697 283.43 76.4776 285.641 76.6026 288.359H72.501C72.376 286.719 71.751 285.375 70.626 284.328C69.5166 283.266 68.1416 282.734 66.501 282.734C64.2979 282.734 62.5869 283.531 61.3682 285.125C60.1651 286.703 59.5635 288.992 59.5635 291.992V292.812C59.5635 295.734 60.1651 297.984 61.3682 299.562C62.5713 301.141 64.2901 301.93 66.5244 301.93ZM80.4273 292.109C80.4273 288.219 81.3491 285.094 83.1929 282.734C85.0366 280.359 87.4507 279.172 90.4351 279.172C93.4038 279.172 95.7554 280.188 97.4898 282.219V269H101.826V305H97.8413L97.6304 302.281C95.896 304.406 93.4819 305.469 90.3882 305.469C87.4507 305.469 85.0523 304.266 83.1929 301.859C81.3491 299.453 80.4273 296.312 80.4273 292.438V292.109ZM84.7632 292.602C84.7632 295.477 85.3569 297.727 86.5444 299.352C87.7319 300.977 89.3726 301.789 91.4663 301.789C94.2163 301.789 96.2241 300.555 97.4898 298.086V286.438C96.1929 284.047 94.2007 282.852 91.5132 282.852C89.3882 282.852 87.7319 283.672 86.5444 285.312C85.3569 286.953 84.7632 289.383 84.7632 292.602ZM119.104 305.469C115.666 305.469 112.869 304.344 110.713 302.094C108.557 299.828 107.479 296.805 107.479 293.023V292.227C107.479 289.711 107.955 287.469 108.908 285.5C109.877 283.516 111.221 281.969 112.939 280.859C114.674 279.734 116.549 279.172 118.564 279.172C121.861 279.172 124.424 280.258 126.252 282.43C128.08 284.602 128.994 287.711 128.994 291.758V293.562H111.814C111.877 296.062 112.604 298.086 113.994 299.633C115.4 301.164 117.182 301.93 119.338 301.93C120.869 301.93 122.166 301.617 123.229 300.992C124.291 300.367 125.221 299.539 126.018 298.508L128.666 300.57C126.541 303.836 123.354 305.469 119.104 305.469ZM118.564 282.734C116.814 282.734 115.346 283.375 114.158 284.656C112.971 285.922 112.236 287.703 111.955 290H124.658V289.672C124.533 287.469 123.939 285.766 122.877 284.562C121.814 283.344 120.377 282.734 118.564 282.734ZM136.17 305V282.992H132.163V279.641H136.17V277.039C136.17 274.32 136.897 272.219 138.35 270.734C139.803 269.25 141.858 268.508 144.514 268.508C145.514 268.508 146.506 268.641 147.491 268.906L147.256 272.422C146.522 272.281 145.741 272.211 144.913 272.211C143.506 272.211 142.42 272.625 141.655 273.453C140.889 274.266 140.506 275.438 140.506 276.969V279.641H145.92V282.992H140.506V305H136.17ZM149.136 292.109C149.136 288.156 150.05 285.016 151.878 282.688C153.706 280.344 156.128 279.172 159.144 279.172C162.237 279.172 164.651 280.266 166.386 282.453L166.597 279.641H170.558V304.391C170.558 307.672 169.581 310.258 167.628 312.148C165.69 314.039 163.081 314.984 159.8 314.984C157.972 314.984 156.183 314.594 154.433 313.812C152.683 313.031 151.347 311.961 150.425 310.602L152.675 308C154.534 310.297 156.808 311.445 159.495 311.445C161.605 311.445 163.245 310.852 164.417 309.664C165.605 308.477 166.198 306.805 166.198 304.648V302.469C164.464 304.469 162.097 305.469 159.097 305.469C156.128 305.469 153.722 304.273 151.878 301.883C150.05 299.492 149.136 296.234 149.136 292.109ZM153.495 292.602C153.495 295.461 154.081 297.711 155.253 299.352C156.425 300.977 158.065 301.789 160.175 301.789C162.909 301.789 164.917 300.547 166.198 298.062V286.484C164.87 284.062 162.878 282.852 160.222 282.852C158.112 282.852 156.464 283.672 155.276 285.312C154.089 286.953 153.495 289.383 153.495 292.602ZM181.46 282.711C183.382 280.352 185.882 279.172 188.96 279.172C194.32 279.172 197.023 282.195 197.07 288.242V305H192.734V288.219C192.718 286.391 192.296 285.039 191.468 284.164C190.656 283.289 189.382 282.852 187.648 282.852C186.242 282.852 185.007 283.227 183.945 283.977C182.882 284.727 182.054 285.711 181.46 286.93V305H177.125V269H181.46V282.711ZM208.277 305H203.941V279.641H208.277V305ZM203.59 272.914C203.59 272.211 203.801 271.617 204.223 271.133C204.66 270.648 205.301 270.406 206.145 270.406C206.988 270.406 207.629 270.648 208.066 271.133C208.504 271.617 208.723 272.211 208.723 272.914C208.723 273.617 208.504 274.203 208.066 274.672C207.629 275.141 206.988 275.375 206.145 275.375C205.301 275.375 204.66 275.141 204.223 274.672C203.801 274.203 203.59 273.617 203.59 272.914ZM219.719 279.641V307.93C219.719 312.805 217.508 315.242 213.086 315.242C212.133 315.242 211.251 315.102 210.438 314.82V311.352C210.938 311.477 211.594 311.539 212.407 311.539C213.376 311.539 214.11 311.273 214.61 310.742C215.126 310.227 215.383 309.32 215.383 308.023V279.641H219.719ZM214.938 272.914C214.938 272.227 215.149 271.641 215.571 271.156C216.008 270.656 216.641 270.406 217.469 270.406C218.313 270.406 218.954 270.648 219.391 271.133C219.829 271.617 220.047 272.211 220.047 272.914C220.047 273.617 219.829 274.203 219.391 274.672C218.954 275.141 218.313 275.375 217.469 275.375C216.626 275.375 215.993 275.141 215.571 274.672C215.149 274.203 214.938 273.617 214.938 272.914ZM233.81 293.258L231.091 296.094V305H226.755V269H231.091V290.773L233.411 287.984L241.31 279.641H246.583L236.716 290.234L247.732 305H242.646L233.81 293.258ZM255.775 305H251.439V269H255.775V305ZM266.818 279.641L266.936 282.453C268.795 280.266 271.303 279.172 274.459 279.172C278.006 279.172 280.42 280.531 281.701 283.25C282.545 282.031 283.639 281.047 284.982 280.297C286.342 279.547 287.943 279.172 289.787 279.172C295.35 279.172 298.178 282.117 298.272 288.008V305H293.936V288.266C293.936 286.453 293.522 285.102 292.693 284.211C291.865 283.305 290.475 282.852 288.522 282.852C286.912 282.852 285.576 283.336 284.514 284.305C283.451 285.258 282.834 286.547 282.662 288.172V305H278.303V288.383C278.303 284.695 276.498 282.852 272.889 282.852C270.045 282.852 268.1 284.062 267.053 286.484V305H262.717V279.641H266.818ZM308.94 279.641L309.081 282.828C311.018 280.391 313.549 279.172 316.674 279.172C322.034 279.172 324.737 282.195 324.784 288.242V305H320.448V288.219C320.432 286.391 320.01 285.039 319.182 284.164C318.37 283.289 317.096 282.852 315.362 282.852C313.956 282.852 312.721 283.227 311.659 283.977C310.596 284.727 309.768 285.711 309.174 286.93V305H304.838V279.641H308.94ZM330.179 292.086C330.179 289.602 330.663 287.367 331.632 285.383C332.616 283.398 333.976 281.867 335.71 280.789C337.46 279.711 339.452 279.172 341.687 279.172C345.14 279.172 347.929 280.367 350.054 282.758C352.194 285.148 353.265 288.328 353.265 292.297V292.602C353.265 295.07 352.788 297.289 351.835 299.258C350.898 301.211 349.546 302.734 347.78 303.828C346.03 304.922 344.015 305.469 341.733 305.469C338.296 305.469 335.507 304.273 333.366 301.883C331.241 299.492 330.179 296.328 330.179 292.391V292.086ZM334.538 292.602C334.538 295.414 335.187 297.672 336.483 299.375C337.796 301.078 339.546 301.93 341.733 301.93C343.937 301.93 345.687 301.07 346.983 299.352C348.28 297.617 348.929 295.195 348.929 292.086C348.929 289.305 348.265 287.055 346.937 285.336C345.624 283.602 343.874 282.734 341.687 282.734C339.546 282.734 337.819 283.586 336.507 285.289C335.194 286.992 334.538 289.43 334.538 292.602ZM380.129 292.602C380.129 296.461 379.246 299.57 377.48 301.93C375.714 304.289 373.324 305.469 370.308 305.469C367.23 305.469 364.808 304.492 363.043 302.539V314.75H358.707V279.641H362.668L362.879 282.453C364.644 280.266 367.097 279.172 370.238 279.172C373.285 279.172 375.691 280.32 377.457 282.617C379.238 284.914 380.129 288.109 380.129 292.203V292.602ZM375.793 292.109C375.793 289.25 375.183 286.992 373.964 285.336C372.746 283.68 371.074 282.852 368.949 282.852C366.324 282.852 364.355 284.016 363.043 286.344V298.461C364.339 300.773 366.324 301.93 368.996 301.93C371.074 301.93 372.722 301.109 373.941 299.469C375.175 297.812 375.793 295.359 375.793 292.109ZM384.609 292.109C384.609 288.125 385.524 284.977 387.352 282.664C389.18 280.336 391.633 279.172 394.711 279.172C397.711 279.172 400.078 280.18 401.813 282.195L402 279.641H405.984V314.75H401.649V302.656C399.899 304.531 397.57 305.469 394.664 305.469C391.602 305.469 389.156 304.281 387.328 301.906C385.516 299.516 384.609 296.352 384.609 292.414V292.109ZM388.945 292.602C388.945 295.508 389.555 297.789 390.774 299.445C392.008 301.102 393.664 301.93 395.742 301.93C398.32 301.93 400.289 300.789 401.649 298.508V286.086C400.274 283.852 398.32 282.734 395.789 282.734C393.695 282.734 392.031 283.57 390.797 285.242C389.563 286.898 388.945 289.352 388.945 292.602ZM425.208 283.531C424.551 283.422 423.84 283.367 423.075 283.367C420.231 283.367 418.301 284.578 417.286 287V305H412.95V279.641H417.169L417.239 282.57C418.661 280.305 420.676 279.172 423.286 279.172C424.129 279.172 424.77 279.281 425.208 279.5V283.531ZM443.985 298.273C443.985 297.102 443.54 296.195 442.65 295.555C441.775 294.898 440.235 294.336 438.032 293.867C435.845 293.398 434.103 292.836 432.806 292.18C431.525 291.523 430.571 290.742 429.946 289.836C429.337 288.93 429.032 287.852 429.032 286.602C429.032 284.523 429.907 282.766 431.657 281.328C433.423 279.891 435.673 279.172 438.407 279.172C441.282 279.172 443.61 279.914 445.392 281.398C447.189 282.883 448.087 284.781 448.087 287.094H443.728C443.728 285.906 443.22 284.883 442.204 284.023C441.204 283.164 439.939 282.734 438.407 282.734C436.829 282.734 435.595 283.078 434.704 283.766C433.814 284.453 433.368 285.352 433.368 286.461C433.368 287.508 433.782 288.297 434.61 288.828C435.439 289.359 436.931 289.867 439.087 290.352C441.259 290.836 443.017 291.414 444.36 292.086C445.704 292.758 446.696 293.57 447.337 294.523C447.993 295.461 448.321 296.609 448.321 297.969C448.321 300.234 447.415 302.055 445.603 303.43C443.79 304.789 441.439 305.469 438.548 305.469C436.517 305.469 434.72 305.109 433.157 304.391C431.595 303.672 430.368 302.672 429.478 301.391C428.603 300.094 428.165 298.695 428.165 297.195H432.501C432.579 298.648 433.157 299.805 434.235 300.664C435.329 301.508 436.767 301.93 438.548 301.93C440.189 301.93 441.501 301.602 442.485 300.945C443.485 300.273 443.985 299.383 443.985 298.273ZM459.857 273.5V279.641H464.591V282.992H459.857V298.719C459.857 299.734 460.068 300.5 460.49 301.016C460.912 301.516 461.63 301.766 462.646 301.766C463.146 301.766 463.834 301.672 464.709 301.484V305C463.568 305.312 462.459 305.469 461.38 305.469C459.443 305.469 457.982 304.883 456.998 303.711C456.013 302.539 455.521 300.875 455.521 298.719V282.992H450.904V279.641H455.521V273.5H459.857ZM485.338 302.492C483.651 304.477 481.174 305.469 477.908 305.469C475.205 305.469 473.143 304.688 471.721 303.125C470.315 301.547 469.604 299.219 469.588 296.141V279.641H473.924V296.023C473.924 299.867 475.486 301.789 478.611 301.789C481.924 301.789 484.127 300.555 485.221 298.086V279.641H489.557V305H485.432L485.338 302.492ZM504.538 299.117L510.819 279.641H515.249L506.155 305H502.85L493.663 279.641H498.092L504.538 299.117ZM541.878 299.023L546.753 279.641H551.089L543.706 305H540.191L534.026 285.781L528.026 305H524.511L517.151 279.641H521.464L526.456 298.625L532.362 279.641H535.855L541.878 299.023ZM564.031 288.898L569.656 279.641H574.718L566.422 292.18L574.976 305H569.961L564.101 295.508L558.242 305H553.203L561.757 292.18L553.461 279.641H558.476L564.031 288.898ZM587.637 298.648L593.543 279.641H598.184L587.988 308.914C586.41 313.133 583.902 315.242 580.465 315.242L579.645 315.172L578.027 314.867V311.352L579.199 311.445C580.668 311.445 581.809 311.148 582.621 310.555C583.449 309.961 584.129 308.875 584.66 307.297L585.621 304.719L576.574 279.641H581.309L587.637 298.648ZM606.157 301.461H620.993V305H600.86V301.812L614.852 283.227H601.071V279.641H620.29V282.711L606.157 301.461ZM12.8145 355H9.54492V333.326L2.98828 335.734V332.781L12.3047 329.283H12.8145V355ZM39.1157 355H22.3462V352.662L31.2056 342.818C32.5181 341.33 33.4204 340.123 33.9126 339.197C34.4165 338.26 34.6685 337.293 34.6685 336.297C34.6685 334.961 34.2642 333.865 33.4556 333.01C32.647 332.154 31.5689 331.727 30.2212 331.727C28.604 331.727 27.3442 332.189 26.4419 333.115C25.5513 334.029 25.106 335.307 25.106 336.947H21.854C21.854 334.592 22.6099 332.688 24.1216 331.234C25.645 329.781 27.6782 329.055 30.2212 329.055C32.6001 329.055 34.481 329.682 35.8638 330.936C37.2466 332.178 37.938 333.836 37.938 335.91C37.938 338.43 36.3325 341.43 33.1216 344.91L26.2661 352.346H39.1157V355ZM47.294 340.621H49.7373C51.2725 340.598 52.4795 340.193 53.3584 339.408C54.2373 338.623 54.6768 337.562 54.6768 336.227C54.6768 333.227 53.1826 331.727 50.1943 331.727C48.7881 331.727 47.6631 332.131 46.8193 332.939C45.9873 333.736 45.5713 334.797 45.5713 336.121H42.3193C42.3193 334.094 43.0576 332.412 44.5342 331.076C46.0225 329.729 47.9092 329.055 50.1943 329.055C52.6084 329.055 54.501 329.693 55.8721 330.971C57.2432 332.248 57.9287 334.023 57.9287 336.297C57.9287 337.41 57.5654 338.488 56.8389 339.531C56.124 340.574 55.1455 341.354 53.9033 341.869C55.3096 342.314 56.3936 343.053 57.1553 344.084C57.9287 345.115 58.3154 346.375 58.3154 347.863C58.3154 350.16 57.5654 351.982 56.0654 353.33C54.5654 354.678 52.6143 355.352 50.2119 355.352C47.8096 355.352 45.8526 354.701 44.3408 353.4C42.8408 352.1 42.0908 350.383 42.0908 348.25H45.3604C45.3604 349.598 45.7998 350.676 46.6787 351.484C47.5576 352.293 48.7354 352.697 50.2119 352.697C51.7822 352.697 52.9834 352.287 53.8154 351.467C54.6475 350.646 55.0635 349.469 55.0635 347.934C55.0635 346.445 54.6065 345.303 53.6924 344.506C52.7783 343.709 51.46 343.299 49.7373 343.275H47.294V340.621ZM76.5132 346.404H80.064V349.059H76.5132V355H73.2437V349.059H61.5894V347.143L73.0503 329.406H76.5132V346.404ZM65.2808 346.404H73.2437V333.854L72.8569 334.557L65.2808 346.404ZM84.4981 342.168L85.7989 329.406H98.9121V332.412H88.5586L87.7852 339.391C89.0391 338.652 90.4629 338.283 92.0567 338.283C94.3887 338.283 96.2403 339.057 97.6114 340.604C98.9824 342.139 99.668 344.219 99.668 346.844C99.668 349.48 98.9531 351.561 97.5235 353.084C96.1055 354.596 94.1192 355.352 91.5645 355.352C89.3028 355.352 87.4571 354.725 86.0274 353.471C84.5977 352.217 83.7832 350.482 83.584 348.268H86.6602C86.8594 349.732 87.3809 350.84 88.2246 351.59C89.0684 352.328 90.1817 352.697 91.5645 352.697C93.0762 352.697 94.2598 352.182 95.1153 351.15C95.9824 350.119 96.416 348.695 96.416 346.879C96.416 345.168 95.9473 343.797 95.0098 342.766C94.084 341.723 92.8477 341.201 91.3008 341.201C89.8828 341.201 88.7696 341.512 87.961 342.133L87.0996 342.836L84.4981 342.168ZM115.985 329.389V332.148H115.387C112.856 332.195 110.84 332.945 109.34 334.398C107.84 335.852 106.973 337.896 106.739 340.533C108.086 338.986 109.926 338.213 112.258 338.213C114.485 338.213 116.26 338.998 117.585 340.568C118.92 342.139 119.588 344.166 119.588 346.65C119.588 349.287 118.868 351.396 117.426 352.979C115.997 354.561 114.075 355.352 111.661 355.352C109.211 355.352 107.225 354.414 105.702 352.539C104.178 350.652 103.417 348.227 103.417 345.262V344.014C103.417 339.303 104.418 335.705 106.422 333.221C108.438 330.725 111.432 329.447 115.405 329.389H115.985ZM111.713 340.92C110.6 340.92 109.575 341.254 108.637 341.922C107.7 342.59 107.049 343.428 106.686 344.436V345.631C106.686 347.74 107.161 349.439 108.11 350.729C109.059 352.018 110.243 352.662 111.661 352.662C113.126 352.662 114.274 352.123 115.106 351.045C115.95 349.967 116.372 348.555 116.372 346.809C116.372 345.051 115.944 343.633 115.088 342.555C114.245 341.465 113.12 340.92 111.713 340.92ZM139.966 331.234L129.366 355H125.956L136.521 332.078H122.669V329.406H139.966V331.234ZM159.183 336.086C159.183 337.363 158.843 338.5 158.164 339.496C157.496 340.492 156.587 341.271 155.439 341.834C156.775 342.408 157.83 343.246 158.603 344.348C159.388 345.449 159.781 346.697 159.781 348.092C159.781 350.307 159.031 352.07 157.531 353.383C156.043 354.695 154.08 355.352 151.642 355.352C149.181 355.352 147.207 354.695 145.718 353.383C144.242 352.059 143.503 350.295 143.503 348.092C143.503 346.709 143.878 345.461 144.628 344.348C145.39 343.234 146.439 342.391 147.775 341.816C146.638 341.254 145.742 340.475 145.085 339.479C144.429 338.482 144.101 337.352 144.101 336.086C144.101 333.93 144.793 332.219 146.175 330.953C147.558 329.688 149.38 329.055 151.642 329.055C153.892 329.055 155.709 329.688 157.091 330.953C158.486 332.219 159.183 333.93 159.183 336.086ZM156.529 348.021C156.529 346.592 156.072 345.426 155.158 344.523C154.255 343.621 153.072 343.17 151.607 343.17C150.142 343.17 148.964 343.615 148.074 344.506C147.195 345.396 146.755 346.568 146.755 348.021C146.755 349.475 147.183 350.617 148.039 351.449C148.906 352.281 150.107 352.697 151.642 352.697C153.166 352.697 154.361 352.281 155.228 351.449C156.095 350.605 156.529 349.463 156.529 348.021ZM151.642 331.727C150.365 331.727 149.328 332.125 148.531 332.922C147.746 333.707 147.353 334.779 147.353 336.139C147.353 337.439 147.74 338.494 148.513 339.303C149.298 340.1 150.341 340.498 151.642 340.498C152.943 340.498 153.98 340.1 154.753 339.303C155.539 338.494 155.931 337.439 155.931 336.139C155.931 334.838 155.527 333.777 154.718 332.957C153.91 332.137 152.884 331.727 151.642 331.727ZM176.344 343.75C175.664 344.559 174.85 345.209 173.9 345.701C172.963 346.193 171.932 346.439 170.807 346.439C169.33 346.439 168.041 346.076 166.939 345.35C165.85 344.623 165.006 343.604 164.408 342.291C163.811 340.967 163.512 339.508 163.512 337.914C163.512 336.203 163.834 334.662 164.479 333.291C165.135 331.92 166.061 330.871 167.256 330.145C168.451 329.418 169.846 329.055 171.439 329.055C173.971 329.055 175.963 330.004 177.416 331.902C178.881 333.789 179.613 336.367 179.613 339.637V340.586C179.613 345.566 178.629 349.205 176.66 351.502C174.691 353.787 171.721 354.959 167.748 355.018H167.115V352.275H167.801C170.484 352.229 172.547 351.531 173.988 350.184C175.43 348.824 176.215 346.68 176.344 343.75ZM171.334 343.75C172.424 343.75 173.426 343.416 174.34 342.748C175.266 342.08 175.939 341.254 176.361 340.27V338.969C176.361 336.836 175.898 335.102 174.973 333.766C174.047 332.43 172.875 331.762 171.457 331.762C170.027 331.762 168.879 332.312 168.012 333.414C167.145 334.504 166.711 335.945 166.711 337.738C166.711 339.484 167.127 340.926 167.959 342.062C168.803 343.188 169.928 343.75 171.334 343.75ZM200.149 344.084C200.149 347.893 199.499 350.723 198.198 352.574C196.897 354.426 194.864 355.352 192.098 355.352C189.368 355.352 187.346 354.449 186.034 352.645C184.721 350.828 184.042 348.121 183.995 344.523V340.182C183.995 336.42 184.645 333.625 185.946 331.797C187.247 329.969 189.286 329.055 192.063 329.055C194.817 329.055 196.844 329.939 198.145 331.709C199.446 333.467 200.114 336.186 200.149 339.865V344.084ZM196.897 339.637C196.897 336.883 196.51 334.879 195.737 333.625C194.963 332.359 193.739 331.727 192.063 331.727C190.399 331.727 189.186 332.354 188.424 333.607C187.663 334.861 187.27 336.789 187.247 339.391V344.594C187.247 347.359 187.645 349.404 188.442 350.729C189.251 352.041 190.469 352.697 192.098 352.697C193.704 352.697 194.893 352.076 195.667 350.834C196.452 349.592 196.862 347.635 196.897 344.963V339.637ZM208.292 347.775H205.357L205.128 329.406H208.538L208.292 347.775ZM205.005 353.365C205.005 352.838 205.163 352.398 205.48 352.047C205.808 351.684 206.288 351.502 206.921 351.502C207.554 351.502 208.034 351.684 208.362 352.047C208.69 352.398 208.855 352.838 208.855 353.365C208.855 353.893 208.69 354.332 208.362 354.684C208.034 355.023 207.554 355.193 206.921 355.193C206.288 355.193 205.808 355.023 205.48 354.684C205.163 354.332 205.005 353.893 205.005 353.365ZM242.029 346.176C241.888 349.012 241.185 351.25 239.919 352.891C238.654 354.531 236.961 355.352 234.839 355.352C232.648 355.352 231.242 354.367 230.621 352.398C229.988 353.395 229.261 354.139 228.441 354.631C227.632 355.111 226.794 355.352 225.927 355.352C224.263 355.352 223.003 354.672 222.148 353.312C221.293 351.953 220.976 350.072 221.199 347.67C221.375 345.736 221.814 344.014 222.517 342.502C223.232 340.979 224.146 339.783 225.259 338.916C226.384 338.049 227.562 337.615 228.793 337.615C229.742 337.615 230.591 337.744 231.341 338.002C232.091 338.248 232.935 338.74 233.873 339.479L232.959 349.217C232.736 351.924 233.486 353.277 235.209 353.277C236.533 353.277 237.605 352.621 238.425 351.309C239.246 349.996 239.691 348.285 239.761 346.176C239.984 341.617 239.134 338.143 237.212 335.752C235.302 333.361 232.39 332.166 228.476 332.166C226.121 332.166 224.029 332.752 222.201 333.924C220.373 335.084 218.931 336.766 217.877 338.969C216.822 341.172 216.23 343.715 216.101 346.598C215.961 349.504 216.312 352.029 217.156 354.174C218 356.307 219.283 357.936 221.005 359.061C222.74 360.197 224.832 360.766 227.281 360.766C228.336 360.766 229.39 360.637 230.445 360.379C231.511 360.121 232.396 359.787 233.099 359.377L233.75 361.398C233.023 361.855 232.056 362.23 230.849 362.523C229.654 362.816 228.441 362.963 227.211 362.963C224.281 362.963 221.761 362.301 219.652 360.977C217.543 359.664 215.961 357.766 214.906 355.281C213.863 352.809 213.412 349.914 213.552 346.598C213.693 343.375 214.414 340.48 215.714 337.914C217.015 335.336 218.779 333.35 221.005 331.955C223.232 330.549 225.746 329.846 228.546 329.846C231.464 329.846 233.966 330.502 236.052 331.814C238.138 333.127 239.691 335.02 240.711 337.492C241.73 339.965 242.169 342.859 242.029 346.176ZM223.994 347.67C223.83 349.334 223.982 350.611 224.451 351.502C224.931 352.393 225.687 352.838 226.718 352.838C227.421 352.838 228.095 352.539 228.74 351.941C229.396 351.344 229.935 350.488 230.357 349.375L230.375 349.217L231.183 340.375C230.527 340.035 229.824 339.865 229.074 339.865C227.703 339.865 226.566 340.562 225.664 341.957C224.773 343.352 224.216 345.256 223.994 347.67ZM257.273 347.793H252.633L251.227 355H248.713L250.119 347.793H245.918V345.385H250.576L251.789 339.162H247.254V336.719H252.264L253.705 329.406H256.219L254.777 336.719H259.418L260.859 329.406H263.391L261.949 336.719H265.535V339.162H261.475L260.262 345.385H264.217V347.793H259.805L258.398 355H255.867L257.273 347.793ZM253.09 345.385H257.731L258.943 339.162H254.303L253.09 345.385ZM281.061 348.408C281.061 347.33 280.68 346.422 279.919 345.684C279.169 344.945 277.897 344.277 276.104 343.68C273.608 342.918 271.786 341.928 270.637 340.709C269.501 339.479 268.932 337.92 268.932 336.033C268.932 334.111 269.489 332.535 270.602 331.305C271.727 330.074 273.268 329.342 275.225 329.107V325.258H277.844V329.125C279.813 329.395 281.342 330.221 282.432 331.604C283.534 332.986 284.085 334.879 284.085 337.281H280.85C280.85 335.629 280.458 334.316 279.672 333.344C278.887 332.371 277.827 331.885 276.491 331.885C275.096 331.885 274.03 332.248 273.292 332.975C272.553 333.689 272.184 334.691 272.184 335.98C272.184 337.176 272.571 338.131 273.344 338.846C274.129 339.549 275.413 340.193 277.194 340.779C278.987 341.354 280.381 341.992 281.378 342.695C282.385 343.387 283.124 344.195 283.592 345.121C284.073 346.047 284.313 347.131 284.313 348.373C284.313 350.354 283.715 351.947 282.52 353.154C281.336 354.361 279.672 355.076 277.528 355.299V358.656H274.926V355.299C272.747 355.1 271.036 354.326 269.794 352.979C268.563 351.619 267.948 349.779 267.948 347.459H271.2C271.2 349.088 271.628 350.342 272.483 351.221C273.338 352.1 274.551 352.539 276.122 352.539C277.657 352.539 278.864 352.17 279.743 351.432C280.622 350.693 281.061 349.686 281.061 348.408ZM288.079 334.328C288.079 332.793 288.566 331.527 289.538 330.531C290.523 329.535 291.782 329.037 293.317 329.037C294.876 329.037 296.136 329.541 297.097 330.549C298.069 331.545 298.556 332.84 298.556 334.434V335.682C298.556 337.229 298.064 338.494 297.079 339.479C296.107 340.451 294.864 340.938 293.353 340.938C291.829 340.938 290.569 340.451 289.573 339.479C288.577 338.494 288.079 337.188 288.079 335.559V334.328ZM290.505 335.682C290.505 336.596 290.763 337.352 291.278 337.949C291.794 338.535 292.485 338.828 293.353 338.828C294.185 338.828 294.853 338.541 295.357 337.967C295.872 337.393 296.13 336.607 296.13 335.611V334.328C296.13 333.414 295.878 332.658 295.374 332.061C294.87 331.463 294.185 331.164 293.317 331.164C292.45 331.164 291.765 331.463 291.261 332.061C290.757 332.658 290.505 333.438 290.505 334.398V335.682ZM300.542 348.725C300.542 347.189 301.028 345.93 302.001 344.945C302.985 343.949 304.245 343.451 305.78 343.451C307.316 343.451 308.575 343.943 309.56 344.928C310.544 345.912 311.036 347.219 311.036 348.848V350.096C311.036 351.631 310.544 352.896 309.56 353.893C308.587 354.877 307.339 355.369 305.816 355.369C304.292 355.369 303.032 354.883 302.036 353.91C301.04 352.926 300.542 351.619 300.542 349.99V348.725ZM302.968 350.096C302.968 351.021 303.226 351.783 303.741 352.381C304.257 352.967 304.948 353.26 305.816 353.26C306.659 353.26 307.333 352.973 307.837 352.398C308.341 351.812 308.593 351.021 308.593 350.025V348.725C308.593 347.799 308.335 347.043 307.819 346.457C307.316 345.871 306.636 345.578 305.78 345.578C304.948 345.578 304.269 345.871 303.741 346.457C303.226 347.031 302.968 347.811 302.968 348.795V350.096ZM294.091 353.066L292.245 351.906L304.743 331.902L306.589 333.062L294.091 353.066ZM320.093 333.713L316.754 342.186H313.73L318.986 329.406H321.218L326.457 342.186H323.451L320.093 333.713ZM329.432 348.127C329.432 346.896 329.772 345.766 330.451 344.734C331.143 343.703 332.455 342.502 334.389 341.131C333.252 339.748 332.49 338.635 332.104 337.791C331.717 336.947 331.524 336.109 331.524 335.277C331.524 333.332 332.098 331.809 333.246 330.707C334.395 329.605 335.953 329.055 337.922 329.055C339.68 329.055 341.133 329.57 342.281 330.602C343.43 331.621 344.004 332.91 344.004 334.469C344.004 335.5 343.74 336.455 343.213 337.334C342.697 338.201 341.789 339.115 340.488 340.076L338.608 341.465L344.303 348.268C345.1 346.744 345.498 345.051 345.498 343.188H348.434C348.434 346.176 347.713 348.654 346.272 350.623L349.928 355H346.025L344.32 352.979C343.453 353.752 342.434 354.344 341.262 354.754C340.102 355.152 338.918 355.352 337.711 355.352C335.215 355.352 333.211 354.689 331.699 353.365C330.188 352.041 329.432 350.295 329.432 348.127ZM337.711 352.697C339.434 352.697 341.01 352.041 342.44 350.729L336.199 343.258L335.619 343.68C333.662 345.121 332.684 346.604 332.684 348.127C332.684 349.51 333.129 350.617 334.02 351.449C334.922 352.281 336.152 352.697 337.711 352.697ZM334.775 335.172C334.775 336.297 335.467 337.703 336.85 339.391L338.924 337.932C339.721 337.369 340.266 336.836 340.559 336.332C340.852 335.816 340.998 335.195 340.998 334.469C340.998 333.684 340.705 333.033 340.119 332.518C339.533 331.99 338.795 331.727 337.904 331.727C336.943 331.727 336.182 332.055 335.619 332.711C335.057 333.355 334.775 334.176 334.775 335.172ZM355.856 337.721L350.547 336.139L351.356 333.484L356.665 335.453L356.506 329.406H359.196L359.02 335.541L364.241 333.607L365.049 336.279L359.653 337.879L363.133 342.643L360.954 344.295L357.684 339.232L354.52 344.172L352.323 342.572L355.856 337.721ZM367.901 344.611C367.901 341.963 368.253 339.42 368.956 336.982C369.671 334.545 370.732 332.33 372.138 330.338C373.544 328.346 375.003 326.939 376.515 326.119L377.183 328.264C375.472 329.576 374.066 331.58 372.964 334.275C371.874 336.971 371.276 339.988 371.171 343.328L371.153 344.822C371.153 349.346 371.98 353.271 373.632 356.6C374.628 358.592 375.812 360.15 377.183 361.275L376.515 363.262C374.956 362.395 373.468 360.941 372.05 358.902C369.284 354.918 367.901 350.154 367.901 344.611ZM387.839 344.787C387.839 347.4 387.494 349.908 386.802 352.311C386.123 354.701 385.074 356.91 383.656 358.938C382.25 360.965 380.773 362.406 379.226 363.262L378.541 361.275C380.345 359.893 381.793 357.748 382.882 354.842C383.984 351.924 384.546 348.689 384.57 345.139V344.576C384.57 342.115 384.312 339.83 383.796 337.721C383.281 335.6 382.56 333.701 381.634 332.025C380.72 330.35 379.689 329.043 378.541 328.105L379.226 326.119C380.773 326.975 382.244 328.404 383.638 330.408C385.045 332.412 386.093 334.621 386.785 337.035C387.488 339.449 387.839 342.033 387.839 344.787Z" fill="#FEFEE6" fill-opacity="0.8"/>
<path d="M962.439 129.562H979.291V132H959.533V97.875H962.439V129.562ZM987.334 132H984.522V106.641H987.334V132ZM984.03 99.3047C984.03 98.7734 984.202 98.3281 984.545 97.9688C984.889 97.5938 985.358 97.4062 985.952 97.4062C986.545 97.4062 987.014 97.5938 987.358 97.9688C987.717 98.3281 987.897 98.7734 987.897 99.3047C987.897 99.8359 987.717 100.281 987.358 100.641C987.014 101 986.545 101.18 985.952 101.18C985.358 101.18 984.889 101 984.545 100.641C984.202 100.281 984.03 99.8359 984.03 99.3047ZM993.854 119.086C993.854 115.117 994.729 111.977 996.479 109.664C998.245 107.336 1000.64 106.172 1003.65 106.172C1007.1 106.172 1009.73 107.547 1011.53 110.297L1011.67 106.641H1014.29V131.484C1014.29 134.75 1013.38 137.336 1011.55 139.242C1009.72 141.148 1007.24 142.102 1004.12 142.102C1002.35 142.102 1000.67 141.703 999.057 140.906C997.464 140.125 996.206 139.078 995.284 137.766L996.854 136.078C998.839 138.516 1001.2 139.734 1003.93 139.734C1006.28 139.734 1008.1 139.039 1009.42 137.648C1010.73 136.273 1011.41 134.359 1011.46 131.906V128.719C1009.66 131.219 1007.04 132.469 1003.6 132.469C1000.67 132.469 998.307 131.297 996.526 128.953C994.745 126.609 993.854 123.445 993.854 119.461V119.086ZM996.69 119.578C996.69 122.812 997.339 125.367 998.636 127.242C999.932 129.102 1001.76 130.031 1004.12 130.031C1007.57 130.031 1010.02 128.484 1011.46 125.391V113.602C1010.8 111.977 1009.85 110.742 1008.62 109.898C1007.39 109.039 1005.9 108.609 1004.17 108.609C1001.81 108.609 999.972 109.539 998.659 111.398C997.347 113.242 996.69 115.969 996.69 119.578ZM1024.4 110.93C1025.32 109.414 1026.5 108.242 1027.94 107.414C1029.37 106.586 1030.94 106.172 1032.65 106.172C1035.37 106.172 1037.39 106.938 1038.72 108.469C1040.05 110 1040.72 112.297 1040.73 115.359V132H1037.94V115.336C1037.93 113.07 1037.44 111.383 1036.49 110.273C1035.55 109.164 1034.05 108.609 1031.97 108.609C1030.23 108.609 1028.69 109.156 1027.35 110.25C1026.02 111.328 1025.04 112.789 1024.4 114.633V132H1021.61V96H1024.4V110.93ZM1052.32 100.148V106.641H1057.57V108.938H1052.32V125.836C1052.32 127.242 1052.57 128.289 1053.07 128.977C1053.58 129.664 1054.43 130.008 1055.62 130.008C1056.09 130.008 1056.85 129.93 1057.89 129.773L1058.01 132.07C1057.28 132.336 1056.28 132.469 1055.01 132.469C1053.09 132.469 1051.69 131.914 1050.82 130.805C1049.94 129.68 1049.5 128.031 1049.5 125.859V108.938H1044.84V106.641H1049.5V100.148H1052.32ZM1146.26 118.195H1138.25V132H1133.72V97.875H1145.02C1148.86 97.875 1151.82 98.75 1153.88 100.5C1155.96 102.25 1157 104.797 1157 108.141C1157 110.266 1156.42 112.117 1155.26 113.695C1154.12 115.273 1152.53 116.453 1150.48 117.234L1158.5 131.719V132H1153.67L1146.26 118.195ZM1138.25 114.516H1145.16C1147.39 114.516 1149.17 113.938 1150.48 112.781C1151.81 111.625 1152.47 110.078 1152.47 108.141C1152.47 106.031 1151.84 104.414 1150.57 103.289C1149.32 102.164 1147.51 101.594 1145.14 101.578H1138.25V114.516ZM1173.17 132.469C1169.73 132.469 1166.94 131.344 1164.78 129.094C1162.62 126.828 1161.55 123.805 1161.55 120.023V119.227C1161.55 116.711 1162.02 114.469 1162.98 112.5C1163.95 110.516 1165.29 108.969 1167.01 107.859C1168.74 106.734 1170.62 106.172 1172.63 106.172C1175.93 106.172 1178.49 107.258 1180.32 109.43C1182.15 111.602 1183.06 114.711 1183.06 118.758V120.562H1165.88C1165.95 123.062 1166.67 125.086 1168.06 126.633C1169.47 128.164 1171.25 128.93 1173.41 128.93C1174.94 128.93 1176.23 128.617 1177.3 127.992C1178.36 127.367 1179.29 126.539 1180.09 125.508L1182.73 127.57C1180.61 130.836 1177.42 132.469 1173.17 132.469ZM1172.63 109.734C1170.88 109.734 1169.41 110.375 1168.23 111.656C1167.04 112.922 1166.3 114.703 1166.02 117H1178.73V116.672C1178.6 114.469 1178.01 112.766 1176.95 111.562C1175.88 110.344 1174.45 109.734 1172.63 109.734ZM1187.07 119.109C1187.07 115.156 1187.99 112.016 1189.82 109.688C1191.64 107.344 1194.07 106.172 1197.08 106.172C1200.18 106.172 1202.59 107.266 1204.32 109.453L1204.54 106.641H1208.5V131.391C1208.5 134.672 1207.52 137.258 1205.57 139.148C1203.63 141.039 1201.02 141.984 1197.74 141.984C1195.91 141.984 1194.12 141.594 1192.37 140.812C1190.62 140.031 1189.29 138.961 1188.36 137.602L1190.61 135C1192.47 137.297 1194.75 138.445 1197.43 138.445C1199.54 138.445 1201.18 137.852 1202.36 136.664C1203.54 135.477 1204.14 133.805 1204.14 131.648V129.469C1202.4 131.469 1200.04 132.469 1197.04 132.469C1194.07 132.469 1191.66 131.273 1189.82 128.883C1187.99 126.492 1187.07 123.234 1187.07 119.109ZM1191.43 119.602C1191.43 122.461 1192.02 124.711 1193.19 126.352C1194.36 127.977 1196 128.789 1198.11 128.789C1200.85 128.789 1202.86 127.547 1204.14 125.062V113.484C1202.81 111.062 1200.82 109.852 1198.16 109.852C1196.05 109.852 1194.4 110.672 1193.22 112.312C1192.03 113.953 1191.43 116.383 1191.43 119.602ZM1230.72 129.492C1229.03 131.477 1226.56 132.469 1223.29 132.469C1220.59 132.469 1218.52 131.688 1217.1 130.125C1215.7 128.547 1214.99 126.219 1214.97 123.141V106.641H1219.31V123.023C1219.31 126.867 1220.87 128.789 1223.99 128.789C1227.31 128.789 1229.51 127.555 1230.6 125.086V106.641H1234.94V132H1230.81L1230.72 129.492ZM1246.26 132H1241.93V96H1246.26V132ZM1268.88 132C1268.63 131.5 1268.43 130.609 1268.28 129.328C1266.26 131.422 1263.85 132.469 1261.06 132.469C1258.56 132.469 1256.5 131.766 1254.89 130.359C1253.3 128.938 1252.5 127.141 1252.5 124.969C1252.5 122.328 1253.5 120.281 1255.5 118.828C1257.52 117.359 1260.35 116.625 1263.99 116.625H1268.21V114.633C1268.21 113.117 1267.75 111.914 1266.85 111.023C1265.94 110.117 1264.6 109.664 1262.84 109.664C1261.29 109.664 1259.99 110.055 1258.95 110.836C1257.9 111.617 1257.38 112.562 1257.38 113.672H1253.02C1253.02 112.406 1253.46 111.188 1254.35 110.016C1255.26 108.828 1256.48 107.891 1258.01 107.203C1259.56 106.516 1261.25 106.172 1263.1 106.172C1266.02 106.172 1268.31 106.906 1269.96 108.375C1271.62 109.828 1272.48 111.836 1272.54 114.398V126.07C1272.54 128.398 1272.84 130.25 1273.43 131.625V132H1268.88ZM1261.69 128.695C1263.05 128.695 1264.34 128.344 1265.56 127.641C1266.78 126.938 1267.66 126.023 1268.21 124.898V119.695H1264.81C1259.49 119.695 1256.84 121.25 1256.84 124.359C1256.84 125.719 1257.29 126.781 1258.2 127.547C1259.1 128.312 1260.27 128.695 1261.69 128.695ZM1291.6 110.531C1290.94 110.422 1290.23 110.367 1289.47 110.367C1286.62 110.367 1284.69 111.578 1283.68 114V132H1279.34V106.641H1283.56L1283.63 109.57C1285.05 107.305 1287.07 106.172 1289.68 106.172C1290.52 106.172 1291.16 106.281 1291.6 106.5V110.531ZM1365.44 132V97.875H1377.39C1381.53 97.875 1384.67 98.6719 1386.81 100.266C1388.95 101.844 1390.02 104.164 1390.02 107.227C1390.02 108.898 1389.59 110.375 1388.73 111.656C1387.87 112.922 1386.68 113.852 1385.15 114.445C1386.9 114.883 1388.27 115.766 1389.27 117.094C1390.29 118.422 1390.79 120.047 1390.79 121.969C1390.79 125.25 1389.75 127.734 1387.65 129.422C1385.56 131.109 1382.58 131.969 1378.7 132H1365.44ZM1372.47 117.141V126.352H1378.49C1380.15 126.352 1381.44 125.961 1382.36 125.18C1383.29 124.383 1383.76 123.289 1383.76 121.898C1383.76 118.773 1382.15 117.188 1378.91 117.141H1372.47ZM1372.47 112.172H1377.67C1381.22 112.109 1382.99 110.695 1382.99 107.93C1382.99 106.383 1382.54 105.273 1381.63 104.602C1380.74 103.914 1379.33 103.57 1377.39 103.57H1372.47V112.172ZM1394.6 119.086C1394.6 116.57 1395.08 114.328 1396.05 112.359C1397.02 110.391 1398.41 108.867 1400.22 107.789C1402.05 106.711 1404.17 106.172 1406.57 106.172C1409.99 106.172 1412.78 107.219 1414.94 109.312C1417.11 111.406 1418.32 114.25 1418.57 117.844L1418.62 119.578C1418.62 123.469 1417.53 126.594 1415.36 128.953C1413.19 131.297 1410.28 132.469 1406.62 132.469C1402.96 132.469 1400.04 131.297 1397.85 128.953C1395.68 126.609 1394.6 123.422 1394.6 119.391V119.086ZM1401.37 119.578C1401.37 121.984 1401.82 123.828 1402.73 125.109C1403.64 126.375 1404.93 127.008 1406.62 127.008C1408.26 127.008 1409.54 126.383 1410.46 125.133C1411.39 123.867 1411.85 121.852 1411.85 119.086C1411.85 116.727 1411.39 114.898 1410.46 113.602C1409.54 112.305 1408.24 111.656 1406.57 111.656C1404.92 111.656 1403.64 112.305 1402.73 113.602C1401.82 114.883 1401.37 116.875 1401.37 119.578ZM1429.94 132H1423.15V96H1429.94V132ZM1434.5 119.133C1434.5 115.18 1435.38 112.031 1437.14 109.688C1438.93 107.344 1441.35 106.172 1444.43 106.172C1446.9 106.172 1448.94 107.094 1450.55 108.938V96H1457.35V132H1451.23L1450.9 129.305C1449.21 131.414 1447.04 132.469 1444.39 132.469C1441.4 132.469 1439 131.297 1437.19 128.953C1435.39 126.594 1434.5 123.32 1434.5 119.133ZM1441.27 119.625C1441.27 122 1441.68 123.82 1442.51 125.086C1443.34 126.352 1444.54 126.984 1446.12 126.984C1448.21 126.984 1449.69 126.102 1450.55 124.336V114.328C1449.71 112.562 1448.25 111.68 1446.17 111.68C1442.9 111.68 1441.27 114.328 1441.27 119.625Z" fill="#FEFEE6" fill-opacity="0.8"/>
</g>
<defs>
<clipPath id="clip0">
<rect width="1554" height="373" fill="white"/>
</clipPath>
</defs>
</svg>
