<?xml version="1.0" encoding="utf-8"?>
<!-- Generator: Adobe Illustrator 15.0.0, SVG Export Plug-In . SVG Version: 6.00 Build 0)  -->
<!DOCTYPE svg PUBLIC "-//W3C//DTD SVG 1.1//EN" "http://www.w3.org/Graphics/SVG/1.1/DTD/svg11.dtd">
<svg version="1.1" id="Layer_1" xmlns="http://www.w3.org/2000/svg" xmlns:xlink="http://www.w3.org/1999/xlink" x="0px" y="0px"
	 width="279.541px" height="285px" viewBox="0 0 279.541 285" enable-background="new 0 0 279.541 285" xml:space="preserve">
<path fill="#253045" d="M208.394,155.99c-9.127,0-16.715-7.577-16.715-19.023v-0.248c0-11.45,7.593-19.032,16.715-19.032
	c9.141,0,16.851,7.582,16.851,19.032v0.248C225.245,148.535,217.535,155.99,208.394,155.99z M172.42,162.277
	c0,5.397,4.367,9.768,9.761,9.768c5.398,0,9.756-4.37,9.756-9.641v-0.127c4.638,5.533,11.063,10.279,21.48,10.279
	c16.331,0,31.345-12.582,31.345-35.584v-0.249c0-23.017-15.272-35.584-31.345-35.584c-10.159,0-16.711,4.745-21.48,11.156V86.486
	c0-5.406-4.358-9.767-9.756-9.767c-5.389,0-9.761,4.361-9.761,9.767V162.277z M50.322,162.277c0,5.397,4.367,9.768,9.756,9.768
	c5.403,0,9.761-4.37,9.761-9.768v-29.426c0-9.251,4.507-14.001,11.833-14.001c7.34,0,11.448,4.75,11.448,14.001v29.426
	c0,5.397,4.376,9.768,9.756,9.768c5.398,0,9.76-4.37,9.76-9.768v-29.426c0-9.251,4.507-14.001,11.833-14.001
	c7.335,0,11.448,4.75,11.448,14.001v29.426c0,5.397,4.371,9.768,9.761,9.768c5.394,0,9.756-4.37,9.756-9.768v-35.846
	c0-16.566-8.729-25.292-23.241-25.292c-9.394,0-16.593,3.845-22.634,10.916c-3.597-6.949-10.394-10.916-19.398-10.916
	c-9.901,0-15.819,5.261-20.322,11.042v-0.773c0-5.397-4.358-9.758-9.761-9.758c-5.389,0-9.756,4.361-9.756,9.758V162.277z"/>
<path fill="#253045" d="M94.283,178.107c-0.045,0.805-0.24,1.556-0.24,2.388c0,27.831,22.58,50.423,50.427,50.423
	c27.856,0,50.435-22.588,50.435-50.423c0-0.832-0.194-1.583-0.244-2.388H175.24c0.068,0.795,0.235,1.556,0.235,2.388
	c0,17.119-13.883,30.993-31.005,30.993c-17.123,0-31.01-13.874-31.01-30.993c0-0.832,0.185-1.593,0.249-2.388H94.283z"/>
<path fill="#253045" d="M264.409,146.223c0,67.066-54.395,121.455-121.487,121.455c-67.092,0-121.496-54.385-121.496-121.455
	c0-67.079,54.399-121.455,121.496-121.455C210.014,24.772,264.409,79.148,264.409,146.223z M279.541,146.223
	c0-75.434-61.169-136.583-136.619-136.583C67.468,9.64,6.303,70.789,6.303,146.223c0,75.436,61.165,136.584,136.619,136.584
	C218.376,282.811,279.541,221.658,279.541,146.223z"/>
</svg>
