<svg width="905" height="285" viewBox="0 0 905 285" fill="none" xmlns="http://www.w3.org/2000/svg">
<path d="M885.764 185.449C892.638 185.449 898.213 179.876 898.213 173.018C898.213 166.155 892.638 160.582 885.764 160.582C878.909 160.582 873.343 166.155 873.343 173.018C873.343 179.871 878.909 185.449 885.764 185.449Z" fill="#253045"/>
<path d="M208.394 155.99C199.267 155.99 191.679 148.413 191.679 136.967V136.719C191.679 125.269 199.272 117.687 208.394 117.687C217.535 117.687 225.245 125.269 225.245 136.719V136.967C225.245 148.535 217.535 155.99 208.394 155.99ZM172.42 162.278C172.42 167.675 176.787 172.045 182.181 172.045C187.579 172.045 191.937 167.675 191.937 162.405V162.278C196.575 167.811 203 172.556 213.417 172.556C229.748 172.556 244.762 159.975 244.762 136.972V136.723C244.762 113.706 229.49 101.139 213.417 101.139C203.258 101.139 196.706 105.884 191.937 112.295V86.4862C191.937 81.0802 187.579 76.7193 182.181 76.7193C176.792 76.7193 172.42 81.0802 172.42 86.4862V162.278ZM50.3224 162.278C50.3224 167.675 54.689 172.045 60.0783 172.045C65.4811 172.045 69.8387 167.675 69.8387 162.278V132.851C69.8387 123.6 74.3456 118.85 81.6716 118.85C89.0111 118.85 93.1198 123.6 93.1198 132.851V162.278C93.1198 167.675 97.4955 172.045 102.876 172.045C108.274 172.045 112.636 167.675 112.636 162.278V132.851C112.636 123.6 117.143 118.85 124.469 118.85C131.804 118.85 135.917 123.6 135.917 132.851V162.278C135.917 167.675 140.288 172.045 145.678 172.045C151.072 172.045 155.434 167.675 155.434 162.278V126.431C155.434 109.865 146.705 101.139 132.193 101.139C122.799 101.139 115.6 104.984 109.559 112.055C105.962 105.106 99.1652 101.139 90.1605 101.139C80.2598 101.139 74.3411 106.4 69.8387 112.181V111.408C69.8387 106.011 65.4811 101.65 60.0783 101.65C54.689 101.65 50.3224 106.011 50.3224 111.408V162.278Z" fill="#253045"/>
<path d="M94.2829 178.107C94.2377 178.912 94.0431 179.663 94.0431 180.495C94.0431 208.326 116.623 230.918 144.47 230.918C172.326 230.918 194.905 208.33 194.905 180.495C194.905 179.663 194.711 178.912 194.661 178.107H175.24C175.308 178.903 175.475 179.663 175.475 180.495C175.475 197.614 161.592 211.488 144.47 211.488C127.347 211.488 113.46 197.614 113.46 180.495C113.46 179.663 113.645 178.903 113.709 178.107H94.2829Z" fill="#253045"/>
<path d="M264.409 146.223C264.409 213.289 210.014 267.678 142.922 267.678C75.8299 267.678 21.4259 213.293 21.4259 146.223C21.4259 79.1441 75.8254 24.7678 142.922 24.7678C210.014 24.7723 264.409 79.1486 264.409 146.223ZM279.541 146.223C279.541 70.7886 218.372 9.64015 142.922 9.64015C67.4677 9.64015 6.30334 70.7886 6.30334 146.223C6.30334 221.658 67.4677 282.806 142.922 282.806C218.376 282.81 279.541 221.658 279.541 146.223Z" fill="#253045"/>
<path d="M766.766 185.44H794.133L811.961 160.111L828.55 185.44H856.248L826.993 144.775L851.709 109.449H825.586L812.59 130.073L799.147 109.449H771.449L796.789 144.775L766.766 185.44ZM701.515 147.435C701.515 136.008 708.543 128.196 720.276 128.196C732.036 128.196 739.064 136.008 739.064 147.435C739.064 158.854 732.032 166.684 720.276 166.684C708.543 166.689 701.515 158.854 701.515 147.435ZM678.053 147.435C678.053 171.683 696.818 187.304 720.28 187.304C743.765 187.304 762.535 171.683 762.535 147.435C762.535 123.188 743.77 107.554 720.28 107.554C696.818 107.554 678.053 123.188 678.053 147.435ZM606.069 147.435C606.069 136.008 613.119 128.196 624.853 128.196C636.586 128.196 643.64 136.008 643.64 147.435C643.64 158.854 636.586 166.684 624.853 166.684C613.119 166.684 606.069 158.854 606.069 147.435ZM584.503 185.44H606.074V175.442H606.391C609.988 180.912 619.061 187.313 629.708 187.313C652.242 187.313 667.08 171.072 667.08 148.069C667.08 126.947 653.957 107.558 632.373 107.558C622.663 107.558 613.59 110.214 608.264 117.565H607.956V67.2148H584.503V185.44ZM513.61 138.854C514.244 131.48 519.873 124.432 530.212 124.432C538.656 124.432 544.769 131.01 544.62 138.854H513.61ZM548.05 160.265C544.145 165.576 538.973 169.503 531.303 169.503C522.217 169.503 515.497 163.712 513.61 154.778H568.059V147.435C568.059 123.179 554.299 107.554 532.393 107.554C508.927 107.554 490.157 123.179 490.157 147.435C490.157 171.683 508.927 187.304 532.393 187.304C544.615 187.304 556.96 181.848 564.462 172.316L548.05 160.265ZM450.265 85.5C450.265 93.0005 456.373 99.0941 463.862 99.0941C471.374 99.0941 477.469 92.996 477.469 85.5C477.469 77.9905 471.374 71.8969 463.862 71.8969C456.373 71.9014 450.265 77.995 450.265 85.5ZM452.156 185.44H475.6V109.449H452.156V185.44ZM315.718 185.44H339.162V147.58C339.162 137.732 341.049 128.196 353.262 128.196C364.068 128.196 363.751 139.605 363.751 145.241V185.44H387.204V145.241C387.204 135.85 390.639 128.196 401.444 128.196C409.114 128.196 411.784 134.131 411.784 141.175V185.44H435.228V140.55C435.228 122.102 428.974 107.558 408.336 107.558C397.073 107.558 389.711 111.471 384.222 121.161C380.163 111.937 371.416 107.558 360.778 107.558C349.353 107.558 341.678 113.815 338.547 119.759H338.235V109.449H315.718V185.44Z" fill="#253045"/>
</svg>
