<?xml version="1.0" encoding="utf-8"?>
<!-- Generator: Adobe Illustrator 15.0.0, SVG Export Plug-In . SVG Version: 6.00 Build 0)  -->
<!DOCTYPE svg PUBLIC "-//W3C//DTD SVG 1.1//EN" "http://www.w3.org/Graphics/SVG/1.1/DTD/svg11.dtd">
<svg version="1.1" id="Layer_1" xmlns="http://www.w3.org/2000/svg" xmlns:xlink="http://www.w3.org/1999/xlink" x="0px" y="0px"
	 width="63px" height="64.667px" viewBox="0 0 63 64.667" enable-background="new 0 0 63 64.667" xml:space="preserve">
<g>
	<g>
		<defs>
			<line id="SVGID_1_" x1="198.5" y1="2.131" x2="198.5" y2="62.516"/>
		</defs>
		<clipPath id="SVGID_2_">
			<use xlink:href="#SVGID_1_"  overflow="visible"/>
		</clipPath>
	</g>
	<g>
		<defs>
			<line id="SVGID_3_" x1="198.5" y1="2.131" x2="198.5" y2="62.516"/>
		</defs>
		<clipPath id="SVGID_4_">
			<use xlink:href="#SVGID_3_"  overflow="visible"/>
		</clipPath>
	</g>
	<g>
		<defs>
			<line id="SVGID_5_" x1="198.5" y1="2.131" x2="198.5" y2="62.516"/>
		</defs>
		<clipPath id="SVGID_6_">
			<use xlink:href="#SVGID_5_"  overflow="visible"/>
		</clipPath>
	</g>
	<g>
		<defs>
			<line id="SVGID_7_" x1="198.5" y1="2.131" x2="198.5" y2="62.516"/>
		</defs>
		<clipPath id="SVGID_8_">
			<use xlink:href="#SVGID_7_"  overflow="visible"/>
		</clipPath>
	</g>
</g>
<path fill="#FDFBE7" d="M46.054,34.482c-2.017,0-3.694-1.675-3.694-4.205v-0.055c0-2.531,1.678-4.207,3.694-4.207
	c2.02,0,3.724,1.676,3.724,4.207v0.055C49.778,32.834,48.074,34.482,46.054,34.482 M38.104,35.872c0,1.193,0.965,2.16,2.157,2.16
	c1.193,0,2.156-0.967,2.156-2.132v-0.028c1.025,1.224,2.445,2.272,4.747,2.272c3.609,0,6.927-2.781,6.927-7.866v-0.055
	c0-5.088-3.375-7.866-6.927-7.866c-2.245,0-3.693,1.049-4.747,2.466v-5.705c0-1.195-0.963-2.159-2.156-2.159
	c-1.191,0-2.157,0.964-2.157,2.159V35.872z M11.121,35.872c0,1.193,0.965,2.16,2.156,2.16c1.194,0,2.157-0.967,2.157-2.16v-6.504
	c0-2.045,0.996-3.095,2.615-3.095c1.622,0,2.53,1.05,2.53,3.095v6.504c0,1.193,0.967,2.16,2.156,2.16
	c1.193,0,2.157-0.967,2.157-2.16v-6.504c0-2.045,0.996-3.095,2.615-3.095c1.621,0,2.53,1.05,2.53,3.095v6.504
	c0,1.193,0.966,2.16,2.157,2.16c1.192,0,2.156-0.967,2.156-2.16v-7.923c0-3.662-1.929-5.591-5.136-5.591
	c-2.076,0-3.667,0.85-5.002,2.413c-0.795-1.536-2.297-2.413-4.287-2.413c-2.188,0-3.496,1.163-4.491,2.441v-0.171
	c0-1.193-0.963-2.157-2.157-2.157c-1.191,0-2.156,0.964-2.156,2.157V35.872z"/>
<path fill="#FDFBE7" d="M20.836,39.372c-0.01,0.178-0.053,0.344-0.053,0.527c0,6.152,4.99,11.146,11.144,11.146
	c6.156,0,11.146-4.994,11.146-11.146c0-0.184-0.043-0.35-0.054-0.527h-4.292c0.015,0.176,0.052,0.344,0.052,0.527
	c0,3.784-3.068,6.852-6.852,6.852c-3.784,0-6.853-3.067-6.853-6.852c0-0.184,0.041-0.352,0.055-0.527H20.836z"/>
<path fill="#FDFBE7" d="M58.433,32.323c0,14.825-12.021,26.847-26.848,26.847S4.735,47.149,4.735,32.323
	c0-14.828,12.022-26.848,26.85-26.848C46.412,5.476,58.433,17.496,58.433,32.323 M61.777,32.323
	c0-16.675-13.518-30.192-30.192-30.192c-16.675,0-30.192,13.517-30.192,30.192S14.91,62.515,31.585,62.515
	C48.26,62.516,61.777,48.999,61.777,32.323"/>
</svg>
