<?xml version="1.0" encoding="utf-8"?>
<!-- Generator: Adobe Illustrator 15.0.0, SVG Export Plug-In . SVG Version: 6.00 Build 0)  -->
<!DOCTYPE svg PUBLIC "-//W3C//DTD SVG 1.1//EN" "http://www.w3.org/Graphics/SVG/1.1/DTD/svg11.dtd">
<svg version="1.1" id="Layer_1" xmlns="http://www.w3.org/2000/svg" xmlns:xlink="http://www.w3.org/1999/xlink" x="0px" y="0px"
	 width="200px" height="66.333px" viewBox="0 0 200 66.333" enable-background="new 0 0 200 66.333" xml:space="preserve">
<g>
	<defs>
		<rect id="SVGID_1_" x="1.393" y="2.131" width="197.107" height="60.385"/>
	</defs>
	<clipPath id="SVGID_2_">
		<use xlink:href="#SVGID_1_"  overflow="visible"/>
	</clipPath>
	<path clip-path="url(#SVGID_2_)" fill="#FDFBE7" d="M195.749,40.994c1.519,0,2.751-1.232,2.751-2.748
		c0-1.517-1.232-2.749-2.751-2.749c-1.515,0-2.745,1.232-2.745,2.749C193.004,39.761,194.234,40.994,195.749,40.994"/>
	<path clip-path="url(#SVGID_2_)" fill="#FDFBE7" d="M46.054,34.482c-2.017,0-3.694-1.675-3.694-4.205v-0.055
		c0-2.531,1.678-4.207,3.694-4.207c2.02,0,3.724,1.676,3.724,4.207v0.055C49.778,32.834,48.074,34.482,46.054,34.482 M38.104,35.872
		c0,1.193,0.965,2.159,2.157,2.159c1.193,0,2.156-0.966,2.156-2.131v-0.028c1.025,1.223,2.445,2.272,4.747,2.272
		c3.609,0,6.927-2.781,6.927-7.866v-0.055c0-5.088-3.375-7.866-6.927-7.866c-2.245,0-3.693,1.049-4.747,2.466v-5.705
		c0-1.195-0.963-2.159-2.156-2.159c-1.191,0-2.157,0.964-2.157,2.159V35.872z M11.121,35.872c0,1.193,0.965,2.159,2.156,2.159
		c1.194,0,2.157-0.966,2.157-2.159v-6.505c0-2.045,0.996-3.095,2.615-3.095c1.622,0,2.53,1.05,2.53,3.095v6.505
		c0,1.193,0.967,2.159,2.156,2.159c1.193,0,2.157-0.966,2.157-2.159v-6.505c0-2.045,0.996-3.095,2.615-3.095
		c1.621,0,2.53,1.05,2.53,3.095v6.505c0,1.193,0.966,2.159,2.157,2.159c1.192,0,2.156-0.966,2.156-2.159v-7.924
		c0-3.662-1.929-5.591-5.136-5.591c-2.076,0-3.667,0.85-5.002,2.413c-0.795-1.536-2.297-2.413-4.287-2.413
		c-2.188,0-3.496,1.163-4.491,2.441v-0.171c0-1.193-0.963-2.157-2.157-2.157c-1.191,0-2.156,0.964-2.156,2.157V35.872z"/>
	<path clip-path="url(#SVGID_2_)" fill="#FDFBE7" d="M20.836,39.371c-0.01,0.178-0.053,0.344-0.053,0.528
		c0,6.152,4.99,11.146,11.144,11.146c6.156,0,11.146-4.993,11.146-11.146c0-0.184-0.043-0.35-0.054-0.528h-4.292
		c0.015,0.176,0.052,0.344,0.052,0.528c0,3.784-3.068,6.851-6.852,6.851c-3.784,0-6.853-3.067-6.853-6.851
		c0-0.184,0.041-0.352,0.055-0.528H20.836z"/>
	<path clip-path="url(#SVGID_2_)" fill="#FDFBE7" d="M58.433,32.323c0,14.825-12.021,26.848-26.848,26.848
		c-14.827,0-26.85-12.022-26.85-26.848c0-14.828,12.022-26.848,26.85-26.848C46.412,5.476,58.433,17.496,58.433,32.323
		 M61.777,32.323c0-16.675-13.518-30.192-30.192-30.192c-16.675,0-30.192,13.517-30.192,30.192
		c0,16.675,13.517,30.192,30.192,30.192C48.26,62.516,61.777,48.998,61.777,32.323"/>
</g>
<path fill="#FDFBE7" d="M169.451,40.992h6.048l3.94-5.599l3.666,5.599h6.121l-6.465-8.989l5.462-7.809h-5.773l-2.872,4.559
	l-2.971-4.559h-6.121l5.6,7.809L169.451,40.992z M155.031,32.591c0-2.526,1.553-4.253,4.146-4.253c2.599,0,4.152,1.727,4.152,4.253
	c0,2.524-1.554,4.255-4.152,4.255C156.584,36.847,155.031,35.115,155.031,32.591 M149.846,32.591c0,5.36,4.147,8.813,9.332,8.813
	c5.19,0,9.338-3.453,9.338-8.813c0-5.36-4.147-8.816-9.338-8.816C153.993,23.775,149.846,27.231,149.846,32.591 M133.938,32.591
	c0-2.526,1.558-4.253,4.151-4.253s4.152,1.727,4.152,4.253c0,2.524-1.559,4.255-4.152,4.255S133.938,35.115,133.938,32.591
	 M129.172,40.992h4.767v-2.21h0.07c0.795,1.209,2.8,2.624,5.153,2.624c4.98,0,8.259-3.59,8.259-8.675c0-4.669-2.9-8.955-7.67-8.955
	c-2.146,0-4.151,0.587-5.328,2.212h-0.068V14.858h-5.183V40.992z M113.505,30.694c0.14-1.63,1.384-3.188,3.669-3.188
	c1.866,0,3.217,1.454,3.184,3.188H113.505z M121.116,35.427c-0.863,1.174-2.006,2.042-3.701,2.042c-2.008,0-3.493-1.28-3.91-3.255
	h12.033v-1.623c0-5.362-3.041-8.816-7.882-8.816c-5.186,0-9.334,3.454-9.334,8.816c0,5.36,4.148,8.813,9.334,8.813
	c2.701,0,5.429-1.206,7.087-3.313L121.116,35.427z M99.506,18.9c0,1.658,1.35,3.005,3.005,3.005c1.66,0,3.007-1.348,3.007-3.005
	c0-1.66-1.347-3.007-3.007-3.007C100.856,15.894,99.506,17.241,99.506,18.9 M99.924,40.992h5.181V24.194h-5.181V40.992z
	 M69.772,40.992h5.181v-8.369c0-2.177,0.417-4.285,3.116-4.285c2.388,0,2.318,2.522,2.318,3.768v8.886h5.183v-8.886
	c0-2.076,0.759-3.768,3.147-3.768c1.695,0,2.285,1.312,2.285,2.869v9.785h5.181v-9.923c0-4.078-1.382-7.293-5.943-7.293
	c-2.489,0-4.116,0.865-5.329,3.007c-0.897-2.039-2.83-3.007-5.181-3.007c-2.525,0-4.221,1.383-4.913,2.697h-0.069v-2.279h-4.976
	V40.992z"/>
</svg>
