<?xml version="1.0" encoding="utf-8"?>
<!-- Generator: Adobe Illustrator 15.0.0, SVG Export Plug-In . SVG Version: 6.00 Build 0)  -->
<!DOCTYPE svg PUBLIC "-//W3C//DTD SVG 1.1//EN" "http://www.w3.org/Graphics/SVG/1.1/DTD/svg11.dtd">
<svg version="1.1" id="Layer_1" xmlns="http://www.w3.org/2000/svg" xmlns:xlink="http://www.w3.org/1999/xlink" x="0px" y="0px"
	 width="8.563px" height="89.75px" viewBox="0 -9.75 8.563 89.75" enable-background="new 0 -9.75 8.563 89.75"
	 xml:space="preserve">
<g>
	<path fill="#FEFEE6" d="M7.707,77.415l-7.15,2.384c-0.022,0.007-0.056,0.011-0.101,0.011c-0.067,0-0.122-0.021-0.167-0.067
		c-0.043-0.044-0.066-0.1-0.066-0.166v-0.992c0-0.096,0.026-0.174,0.078-0.233c0.052-0.061,0.108-0.1,0.167-0.123l5.702-1.859
		l-5.702-1.872c-0.059-0.015-0.115-0.051-0.167-0.11c-0.052-0.061-0.078-0.138-0.078-0.234v-1.002c0-0.061,0.023-0.113,0.066-0.162
		c0.045-0.049,0.101-0.072,0.167-0.072l0.101,0.021l7.15,2.373c0.209,0.075,0.313,0.22,0.313,0.435v1.236
		C8.02,77.203,7.916,77.348,7.707,77.415z"/>
	<path fill="#FEFEE6" d="M7.941,71.657c-0.051,0.052-0.114,0.078-0.188,0.078H0.49c-0.082,0-0.147-0.026-0.195-0.078
		c-0.048-0.053-0.073-0.116-0.073-0.19v-1.068c0-0.082,0.024-0.146,0.073-0.195c0.048-0.048,0.113-0.072,0.195-0.072h7.263
		c0.074,0,0.138,0.024,0.188,0.072c0.053,0.049,0.078,0.113,0.078,0.195v1.068C8.02,71.541,7.994,71.604,7.941,71.657z"/>
	<path fill="#FEFEE6" d="M7.941,68.315c-0.051,0.052-0.114,0.078-0.188,0.078H0.501c-0.082,0-0.148-0.024-0.2-0.072
		c-0.052-0.049-0.078-0.113-0.078-0.195v-4.911c0-0.082,0.026-0.149,0.078-0.201s0.119-0.078,0.2-0.078h0.747
		c0.082,0,0.147,0.026,0.194,0.078c0.049,0.052,0.073,0.119,0.073,0.201v3.652h1.949v-3.408c0-0.081,0.027-0.148,0.078-0.2
		c0.052-0.052,0.12-0.078,0.201-0.078h0.702c0.081,0,0.146,0.026,0.194,0.078c0.049,0.052,0.073,0.119,0.073,0.2v3.408h2.016v-3.741
		c0-0.082,0.024-0.149,0.072-0.201s0.113-0.078,0.195-0.078h0.758c0.081,0,0.146,0.026,0.193,0.078
		c0.049,0.052,0.073,0.119,0.073,0.201v5C8.02,68.2,7.994,68.264,7.941,68.315z"/>
	<path fill="#FEFEE6" d="M7.686,60.575L0.546,61.89L0.457,61.9c-0.067,0-0.122-0.022-0.167-0.067
		c-0.043-0.044-0.066-0.1-0.066-0.167v-1.002c0-0.097,0.018-0.167,0.05-0.213c0.034-0.043,0.091-0.073,0.172-0.089l5.013-0.924
		l-3.231-0.991C2.042,58.373,1.95,58.251,1.95,58.08v-0.612c0-0.097,0.027-0.175,0.083-0.234c0.055-0.06,0.12-0.101,0.194-0.123
		l3.231-1.002l-5.013-0.914c-0.147-0.021-0.222-0.125-0.222-0.312V53.88c0-0.059,0.023-0.11,0.066-0.156
		c0.045-0.043,0.101-0.065,0.167-0.065c0.037,0,0.066,0.003,0.09,0.011l7.139,1.314c0.104,0.015,0.185,0.058,0.245,0.128
		c0.06,0.07,0.089,0.161,0.089,0.273v0.757c0,0.104-0.027,0.189-0.084,0.257c-0.055,0.066-0.119,0.11-0.193,0.133l-3.699,1.248
		l3.699,1.247c0.185,0.061,0.277,0.188,0.277,0.39v0.758C8.02,60.389,7.908,60.522,7.686,60.575z"/>
	<path fill="#FEFEE6" d="M7.936,49.654c-0.055,0.055-0.119,0.083-0.193,0.083h-7.23c-0.082,0-0.151-0.025-0.206-0.078
		c-0.055-0.052-0.083-0.118-0.083-0.201v-3.151c0-0.966,0.219-1.723,0.657-2.272c0.439-0.55,1.081-0.824,1.927-0.824
		s1.479,0.274,1.899,0.824c0.42,0.55,0.629,1.307,0.629,2.272v1.27h2.407c0.074,0,0.139,0.026,0.193,0.078
		c0.057,0.053,0.084,0.119,0.084,0.2v1.604C8.02,49.532,7.992,49.598,7.936,49.654z M3.743,46.362c0-0.304-0.08-0.544-0.239-0.719
		c-0.16-0.174-0.396-0.261-0.707-0.261c-0.29,0-0.524,0.08-0.702,0.239c-0.18,0.16-0.269,0.406-0.269,0.74v1.248h1.917V46.362z"/>
	<path fill="#FEFEE6" d="M7.936,42.091c-0.055,0.056-0.119,0.083-0.193,0.083h-7.23c-0.082,0-0.151-0.025-0.206-0.078
		c-0.055-0.051-0.083-0.117-0.083-0.2v-3.063c0-0.981,0.222-1.747,0.668-2.301c0.446-0.553,1.073-0.829,1.883-0.829
		c0.52,0,0.962,0.121,1.325,0.362c0.363,0.242,0.646,0.574,0.847,0.997l2.719-1.503c0.043-0.023,0.085-0.035,0.121-0.035
		c0.06,0,0.114,0.023,0.161,0.067c0.049,0.045,0.073,0.101,0.073,0.167v1.571c0,0.216-0.101,0.367-0.302,0.457l-2.416,1.225v1.069
		h2.44c0.081,0,0.148,0.028,0.199,0.084C7.994,40.22,8.02,40.289,8.02,40.37v1.525C8.02,41.97,7.992,42.035,7.936,42.091z
		 M3.665,38.844c0-0.319-0.08-0.562-0.239-0.729c-0.16-0.168-0.381-0.251-0.664-0.251c-0.281,0-0.507,0.083-0.679,0.251
		c-0.171,0.167-0.257,0.41-0.257,0.729v1.236h1.838V38.844z"/>
	<path fill="#FEFEE6" d="M7.363,33.731c-0.514,0.609-1.267,0.932-2.262,0.97c-0.208,0.007-0.527,0.011-0.958,0.011
		c-0.43,0-0.753-0.004-0.969-0.011c-0.98-0.03-1.736-0.355-2.267-0.975c-0.53-0.62-0.796-1.449-0.796-2.489
		c0-1.031,0.266-1.858,0.796-2.478c0.531-0.62,1.287-0.944,2.267-0.976c0.431-0.014,0.754-0.021,0.969-0.021
		c0.223,0,0.542,0.007,0.958,0.021c0.995,0.038,1.748,0.359,2.262,0.965c0.512,0.605,0.769,1.435,0.769,2.489
		S7.875,33.124,7.363,33.731z M6.109,30.313c-0.234-0.23-0.592-0.353-1.074-0.368c-0.432-0.015-0.74-0.021-0.925-0.021
		c-0.187,0-0.486,0.007-0.903,0.021c-0.482,0.016-0.841,0.138-1.075,0.368c-0.234,0.23-0.351,0.539-0.351,0.924
		c0,0.394,0.117,0.706,0.351,0.936c0.234,0.23,0.593,0.354,1.075,0.368c0.208,0.007,0.51,0.011,0.903,0.011
		c0.4,0,0.709-0.003,0.925-0.011c0.482-0.015,0.84-0.138,1.074-0.368c0.233-0.23,0.351-0.542,0.351-0.936
		C6.46,30.851,6.343,30.542,6.109,30.313z"/>
	<path fill="#FEFEE6" d="M7.836,25.367c-0.196,0.49-0.49,0.886-0.88,1.186c-0.39,0.301-0.855,0.455-1.397,0.462
		c-0.067,0-0.125-0.021-0.174-0.066c-0.048-0.044-0.072-0.101-0.072-0.168v-1.591c0-0.104,0.024-0.186,0.072-0.246
		c0.049-0.059,0.129-0.107,0.239-0.144c0.558-0.12,0.836-0.483,0.836-1.092c0-0.356-0.117-0.629-0.351-0.818
		c-0.234-0.189-0.574-0.285-1.019-0.285H1.95v3.576c0,0.074-0.028,0.139-0.083,0.195c-0.056,0.056-0.122,0.083-0.196,0.083H0.501
		c-0.082,0-0.148-0.027-0.2-0.083s-0.078-0.121-0.078-0.195v-5.447c0-0.082,0.028-0.15,0.083-0.206s0.124-0.084,0.206-0.084h4.644
		c0.632,0,1.173,0.14,1.621,0.419c0.449,0.277,0.788,0.668,1.014,1.169c0.227,0.5,0.341,1.079,0.341,1.731
		C8.132,24.343,8.032,24.877,7.836,25.367z"/>
	<path fill="#FEFEE6" d="M7.936,18.913c-0.055,0.054-0.119,0.083-0.193,0.083h-7.23c-0.082,0-0.151-0.026-0.206-0.078
		c-0.055-0.053-0.083-0.12-0.083-0.201V13.46c0-0.082,0.028-0.15,0.083-0.206c0.055-0.055,0.124-0.083,0.206-0.083h1.103
		c0.082,0,0.148,0.028,0.2,0.083c0.053,0.056,0.078,0.125,0.078,0.206v3.521h1.414v-3.276c0-0.082,0.029-0.15,0.084-0.205
		c0.056-0.056,0.125-0.084,0.206-0.084h1.014c0.081,0,0.15,0.028,0.206,0.084c0.056,0.055,0.084,0.124,0.084,0.205v3.276H6.35
		v-3.609c0-0.082,0.027-0.15,0.083-0.207c0.056-0.056,0.123-0.083,0.206-0.083h1.104c0.081,0,0.148,0.028,0.199,0.083
		c0.053,0.056,0.078,0.125,0.078,0.207v5.346C8.02,18.792,7.992,18.857,7.936,18.913z"/>
	<path fill="#FEFEE6" d="M7.363,11.182c-0.514,0.605-1.263,0.926-2.25,0.963c-0.201,0.007-0.527,0.011-0.981,0.011
		c-0.46,0-0.794-0.003-1.002-0.011c-0.965-0.037-1.709-0.363-2.233-0.975c-0.523-0.613-0.785-1.442-0.785-2.49
		c0-0.66,0.108-1.253,0.323-1.777C0.65,6.381,0.961,5.967,1.37,5.663c0.409-0.305,0.892-0.464,1.448-0.479
		c0.067,0,0.123,0.023,0.167,0.072C3.03,5.305,3.052,5.362,3.052,5.429v1.582c0,0.104-0.02,0.18-0.062,0.228
		C2.95,7.287,2.874,7.331,2.762,7.367C2.399,7.471,2.144,7.629,2,7.84C1.854,8.052,1.782,8.333,1.782,8.681
		c0,0.839,0.469,1.274,1.404,1.303C3.385,9.992,3.693,9.996,4.11,9.996c0.415,0,0.73-0.004,0.946-0.011
		C5.992,9.956,6.46,9.521,6.46,8.681c0-0.341-0.074-0.622-0.223-0.841C6.089,7.622,5.836,7.464,5.48,7.367
		C5.369,7.338,5.293,7.296,5.252,7.245c-0.041-0.052-0.061-0.13-0.061-0.234V5.429c0-0.067,0.021-0.124,0.065-0.172
		c0.045-0.049,0.101-0.072,0.168-0.072c0.557,0.015,1.039,0.174,1.447,0.479c0.409,0.305,0.721,0.719,0.936,1.242
		c0.215,0.524,0.324,1.117,0.324,1.777C8.132,9.744,7.875,10.577,7.363,11.182z"/>
	<path fill="#FEFEE6" d="M7.941,2.249C7.891,2.305,7.823,2.333,7.742,2.333H2.039v1.961c0,0.082-0.026,0.149-0.078,0.205
		C1.908,4.555,1.842,4.582,1.759,4.582H0.512c-0.082,0-0.151-0.027-0.206-0.083C0.251,4.443,0.223,4.375,0.223,4.294v-6.049
		c0-0.082,0.028-0.15,0.083-0.206C0.361-2.017,0.43-2.044,0.512-2.044h1.247c0.083,0,0.148,0.027,0.201,0.083
		c0.052,0.055,0.078,0.124,0.078,0.206v1.961h5.704c0.081,0,0.148,0.027,0.199,0.083C7.994,0.345,8.02,0.414,8.02,0.495v1.548
		C8.02,2.125,7.994,2.194,7.941,2.249z"/>
	<path fill="#FEFEE6" d="M7.819-4.116C7.611-3.611,7.337-3.229,6.995-2.968C6.654-2.709,6.282-2.571,5.881-2.557
		c-0.066,0-0.122-0.023-0.167-0.072C5.67-2.678,5.647-2.735,5.647-2.802v-1.481c0-0.09,0.015-0.163,0.044-0.218
		c0.03-0.056,0.082-0.118,0.156-0.184c0.178-0.097,0.325-0.247,0.44-0.45C6.403-5.34,6.46-5.613,6.46-5.954
		c0-0.401-0.062-0.709-0.183-0.925C6.153-7.095,5.985-7.202,5.77-7.202c-0.156,0-0.284,0.056-0.385,0.167
		c-0.1,0.111-0.188,0.29-0.267,0.535C5.041-6.255,4.953-5.902,4.855-5.441c-0.178,0.897-0.448,1.57-0.812,2.016
		C3.679-2.98,3.16-2.757,2.484-2.757c-0.46,0-0.871-0.128-1.231-0.384c-0.361-0.256-0.641-0.62-0.841-1.092
		C0.211-4.705,0.111-5.253,0.111-5.876c0-0.652,0.113-1.22,0.34-1.699C0.678-8.054,0.96-8.422,1.297-8.677
		c0.339-0.256,0.671-0.392,0.997-0.407c0.067,0,0.125,0.023,0.173,0.067C2.515-8.973,2.54-8.917,2.54-8.851v1.56
		c0,0.163-0.067,0.289-0.2,0.379c-0.156,0.043-0.288,0.16-0.395,0.345c-0.109,0.186-0.163,0.416-0.163,0.69
		c0,0.312,0.056,0.553,0.168,0.724c0.11,0.171,0.273,0.257,0.489,0.257S2.823-5.008,2.947-5.23c0.122-0.223,0.247-0.639,0.373-1.248
		c0.126-0.698,0.284-1.253,0.473-1.665c0.189-0.412,0.434-0.717,0.735-0.914S5.209-9.352,5.67-9.352
		c0.505,0,0.942,0.145,1.314,0.435c0.371,0.289,0.655,0.69,0.852,1.202c0.196,0.513,0.296,1.1,0.296,1.761
		C8.132-5.234,8.026-4.622,7.819-4.116z"/>
</g>
</svg>
