<svg width="77" height="612" viewBox="0 0 77 612" fill="none" xmlns="http://www.w3.org/2000/svg">
<g clip-path="url(#clip0)">
<rect width="77" height="612" fill="white"/>
<path d="M45.4426 589.594L19.4393 589.594L19.4393 588C19.4393 580.783 21.8798 577.426 32.0623 577.426L32.7355 577.426C42.0765 577.426 45.4426 580.28 45.4426 587.832L45.4426 589.594ZM62.5257 612L62.5257 587.077C62.5257 565.846 52.0907 554.098 32.2306 554.098L31.6415 554.098C11.9497 554.098 2.35628 565.426 2.35628 587.161L2.35628 612L62.5257 612Z" fill="#0C2F59"/>
<path d="M62.5257 555.403L62.5257 534.592L54.5311 532.578L54.5311 515.627L62.5257 513.613L62.5257 489.78L2.35628 508.158L2.35628 536.941L62.5257 555.403ZM20.365 524.018L39.5519 519.319L39.5519 528.885L20.365 524.018Z" fill="#0C2F59"/>
<path d="M77 486.576L77 467.36L56.4667 467.36C60.7585 465.346 63.7038 460.73 63.7038 454.52C63.7038 445.038 56.9716 436.478 40.9825 436.478L40.3093 436.478C24.4885 436.478 17.1672 444.786 17.1672 454.352C17.1672 461.066 20.5333 464.926 24.6568 467.36L18.5137 467.36L18.5137 486.576L77 486.576ZM49.1453 462.073C49.1453 466.017 46.2 467.863 40.6459 467.863L39.9727 467.863C34.5869 467.863 31.3049 466.101 31.3049 462.073C31.3049 457.877 34.082 455.947 40.0568 455.947L40.73 455.947C46.2841 455.947 49.1453 458.129 49.1453 462.073Z" fill="#0C2F59"/>
<path d="M77 431.916L77 412.699L56.4667 412.699C60.7585 410.685 63.7038 406.07 63.7038 399.86C63.7038 390.377 56.9716 381.818 40.9825 381.818L40.3093 381.818C24.4885 381.818 17.1672 390.126 17.1672 399.692C17.1672 406.405 20.5333 410.266 24.6568 412.699L18.5137 412.699L18.5137 431.916L77 431.916ZM49.1453 407.412C49.1453 411.356 46.2 413.203 40.6459 413.203L39.9727 413.203C34.5869 413.203 31.3049 411.44 31.3049 407.412C31.3049 403.217 34.082 401.286 40.0568 401.286L40.73 401.286C46.2841 401.286 49.1453 403.468 49.1453 407.412Z" fill="#0C2F59"/>
<path d="M62.5257 361.89L62.5257 315.82L45.4426 315.82L45.4426 339.652L40.0568 339.652L40.0568 321.862L24.5727 321.862L24.5727 339.652L19.4393 339.652L19.4393 317.078L2.35627 317.078L2.35627 361.89L62.5257 361.89Z" fill="#0C2F59"/>
<path d="M62.5257 313.322L62.5257 293.937L51.7541 287.979L62.5257 282.273L62.5257 260.287L38.7945 275.056L18.5136 261.629L18.5136 281.098L27.8546 285.713L18.5136 290.413L18.5136 312.399L40.3093 299.224L62.5257 313.322Z" fill="#0C2F59"/>
<path d="M77 256.953L77 237.737L56.4666 237.737C60.7584 235.723 63.7038 231.107 63.7038 224.897C63.7038 215.415 56.9716 206.855 40.9825 206.855L40.3093 206.855C24.4885 206.855 17.1672 215.163 17.1672 224.73C17.1672 231.443 20.5333 235.303 24.6568 237.737L18.5136 237.737L18.5136 256.953L77 256.953ZM49.1453 232.45C49.1453 236.394 46.2 238.24 40.6459 238.24L39.9727 238.24C34.5869 238.24 31.3049 236.478 31.3049 232.45C31.3049 228.254 34.0819 226.324 40.0568 226.324L40.73 226.324C46.2841 226.324 49.1453 228.506 49.1453 232.45Z" fill="#0C2F59"/>
<path d="M62.5257 201.79L62.5257 182.741L-1.87635e-05 182.741L-1.79309e-05 201.79L62.5257 201.79Z" fill="#0C2F59"/>
<path d="M49.7344 152.491C49.7344 156.686 46.789 158.365 40.4776 158.365L39.8043 158.365C33.8295 158.365 31.2207 156.435 31.2207 152.491C31.2207 148.379 34.0819 146.784 40.0568 146.784L40.73 146.784C46.7891 146.784 49.7344 148.463 49.7344 152.491ZM63.7038 152.575C63.7038 138.56 55.3727 127.316 40.5617 127.316L39.8885 127.316C25.4983 127.316 17.1672 138.393 17.1672 152.491C17.1672 166.672 25.835 177.833 40.4776 177.833L41.1508 177.833C56.0459 177.833 63.7038 166.589 63.7038 152.575Z" fill="#0C2F59"/>
<path d="M62.5257 122.966L62.5257 103.749L43.3388 103.749C38.2896 103.749 35.2601 99.0496 35.9333 89.7349L18.0087 89.7349C17.7563 95.9447 20.365 100.98 27.6863 103.749L18.5136 103.749L18.5136 122.966L62.5257 122.966Z" fill="#0C2F59"/>
<path d="M63.7038 61.4485C63.7038 46.4274 57.4765 38.7071 47.0415 37.4484L47.0415 55.1548C48.8087 55.5743 50.9125 56.7491 50.9125 60.7771C50.9125 64.3016 48.8087 66.8191 44.4328 67.3226L44.4328 37.6162L40.3093 37.6162C24.4043 37.6162 17.1672 48.3575 17.1672 61.2806C17.1672 75.1269 25.8349 86.6234 40.4776 86.6234L41.1508 86.6234C55.8776 86.6234 63.7038 75.8821 63.7038 61.4485ZM35.5125 67.2387C31.2207 66.7352 29.2011 64.4695 29.2011 61.2806C29.2011 57.5883 31.894 56.0778 35.5125 55.9939L35.5125 67.2387Z" fill="#0C2F59"/>
<path d="M62.5257 33.2309L62.5257 14.0141L43.3388 14.0141C38.2896 14.0141 35.2601 9.31474 35.9333 1.68695e-05L18.0087 1.7653e-05C17.7563 6.20983 20.365 11.2449 27.6863 14.0141L18.5136 14.0141L18.5136 33.2309L62.5257 33.2309Z" fill="#0C2F59"/>
</g>
<defs>
<clipPath id="clip0">
<rect width="77" height="612" fill="white"/>
</clipPath>
</defs>
</svg>
