<svg width="424" height="149" viewBox="0 0 424 149" fill="none" xmlns="http://www.w3.org/2000/svg">
<path d="M34.8697 122.212C47.506 122.212 56.3034 115.325 60.4622 106.675V120.13H91.9729V0H60.4622V47.8918C55.8235 39.4026 47.9859 34.1169 34.8697 34.1169C15.8353 34.1169 0 48.6926 0 77.8442V79.1255C0 108.597 15.9953 122.212 34.8697 122.212ZM46.5463 98.1861C37.269 98.1861 31.9906 91.6191 31.9906 78.645V77.3636C31.9906 63.9091 37.1091 57.5022 46.7062 57.5022C56.1435 57.5022 61.2619 64.5498 61.2619 77.2035V78.4848C61.2619 91.4589 55.9835 98.1861 46.5463 98.1861Z" fill="#0C2F59"/>
<path d="M100.855 120.13H134.605L139.724 101.069H175.873L181.152 120.13H219.54L183.711 5.60606H136.845L100.855 120.13ZM157.958 34.9178L169.155 76.4026H146.602L157.958 34.9178Z" fill="#0C2F59"/>
<path d="M228.46 148H259.971V108.117C264.13 116.286 273.087 122.212 285.403 122.212C304.438 122.212 320.593 108.277 320.593 78.9654V77.684C320.593 48.3723 304.598 34.1169 285.563 34.1169C272.927 34.1169 264.61 40.684 259.971 48.5325V36.3593H228.46V148ZM273.887 98.1861C264.29 98.1861 259.171 91.6191 259.171 78.645V77.3636C259.171 64.5498 264.45 57.5022 273.727 57.5022C283.164 57.5022 288.602 63.9091 288.602 77.3636V78.645C288.602 91.4589 283.324 98.1861 273.887 98.1861Z" fill="#0C2F59"/>
<path d="M331.867 148H363.378V108.117C367.537 116.286 376.494 122.212 388.81 122.212C407.845 122.212 424 108.277 424 78.9654V77.684C424 48.3723 408.005 34.1169 388.97 34.1169C376.334 34.1169 368.017 40.684 363.378 48.5325V36.3593H331.867V148ZM377.294 98.1861C367.697 98.1861 362.578 91.6191 362.578 78.645V77.3636C362.578 64.5498 367.857 57.5022 377.134 57.5022C386.571 57.5022 392.009 63.9091 392.009 77.3636V78.645C392.009 91.4589 386.731 98.1861 377.294 98.1861Z" fill="#0C2F59"/>
</svg>
