<svg width="407" height="149" viewBox="0 0 407 149" fill="none" xmlns="http://www.w3.org/2000/svg">
<path d="M0 146.379H39.6444V88.1096C39.6444 75.6089 45.4804 69.7618 55.3412 69.7618C64.7995 69.7618 68.6231 75.2057 68.6231 85.8917V146.379H108.268V77.0203C108.268 50.8092 94.3819 38.1069 74.4591 38.1069C56.7499 38.1069 45.4804 46.7767 39.6444 57.866V40.9296H0V146.379Z" fill="white"/>
<path d="M199.813 113.111C181.702 113.111 170.231 99.6022 170.231 75.0041V73.3911C170.231 48.793 181.702 35.6874 199.411 35.6874C217.522 35.6874 229.194 48.9946 229.194 73.3911V75.0041C229.194 98.9973 217.724 113.111 199.813 113.111ZM198.606 149C245.897 149 276.687 118.958 276.687 73.9959V72.383C276.687 26.816 243.684 0 199.411 0C156.345 0 122.537 29.0338 122.537 73.5927V75.2057C122.537 118.958 151.515 149 198.606 149Z" fill="white"/>
<path d="M347.433 149C386.071 149 407 126.821 407 100.005C407 67.9472 386.876 58.6725 350.653 54.8417C334.755 52.8254 330.529 49.5995 330.529 42.7443C330.529 36.4939 335.358 32.2598 344.817 32.2598C354.476 32.2598 359.507 37.3004 360.513 46.1719H402.774C400.359 14.7185 380.436 0.201621 344.817 0.201621C308.996 0.201621 287.262 19.5575 287.262 46.1719C287.262 75.8106 301.349 87.908 342.804 92.5453C358.3 94.7632 363.331 97.1827 363.331 104.844C363.331 111.901 358.099 116.74 347.433 116.74C332.541 116.74 328.114 109.28 327.309 100.207H284.042C285.048 132.668 306.782 149 347.433 149Z" fill="white"/>
</svg>
