<svg width="560" height="149" viewBox="0 0 560 149" fill="none" xmlns="http://www.w3.org/2000/svg">
<rect width="560" height="149" fill="white"/>
<path d="M0 145.602H35.5453V107.727C39.2706 115.643 47.8077 121.076 59.2939 121.076C76.8338 121.076 92.6662 108.658 92.6662 79.1651V77.9233C92.6662 48.7408 77.2994 35.2362 59.6044 35.2362C47.1868 35.2362 40.0467 41.4452 35.5453 49.0513V37.7198H0V145.602ZM45.3242 94.2219C38.0288 94.2219 34.614 88.7891 34.614 78.5442V77.3024C34.614 67.3679 37.8736 61.3141 45.3242 61.3141C53.0851 61.3141 56.6552 66.4366 56.6552 77.4576V78.6994C56.6552 88.9443 52.6195 94.2219 45.3242 94.2219Z" fill="#0C2F59"/>
<path d="M101.105 118.903H136.65V83.5114C136.65 74.1978 145.343 68.6097 162.572 69.8515V36.7885C151.086 36.3228 141.773 41.1348 136.65 54.6394V37.7198H101.105V118.903Z" fill="#0C2F59"/>
<path d="M215.204 95.3085C207.443 95.3085 204.338 89.8756 204.338 78.2337V76.9919C204.338 65.9709 207.908 61.1589 215.204 61.1589C222.809 61.1589 225.759 66.4366 225.759 77.4576V78.6994C225.759 89.8756 222.654 95.3085 215.204 95.3085ZM215.048 121.076C240.97 121.076 261.77 105.709 261.77 78.3889V77.1471C261.77 50.6035 241.281 35.2362 215.204 35.2362C188.971 35.2362 168.327 51.2244 168.327 78.2337V79.4755C168.327 106.95 189.127 121.076 215.048 121.076Z" fill="#0C2F59"/>
<path d="M261.899 146.999C297.134 147.154 306.137 133.96 306.137 115.333V37.7198H270.747V113.936C270.747 119.834 267.642 121.697 261.899 122.007V146.999ZM288.597 34.7705C299.307 34.7705 307.379 27.4749 307.379 17.3853C307.379 7.2956 299.307 0 288.597 0C277.732 0 269.816 7.2956 269.816 17.3853C269.816 27.4749 277.732 34.7705 288.597 34.7705Z" fill="#0C2F59"/>
<path d="M362.079 121.076C389.863 121.076 404.144 109.589 406.472 90.3413H373.721C372.944 93.601 370.771 97.4817 363.321 97.4817C356.802 97.4817 352.145 93.601 351.214 85.5293H406.161V77.9233C406.161 48.5856 386.293 35.2362 362.389 35.2362C336.778 35.2362 315.513 51.2244 315.513 78.2337V79.4755C315.513 106.64 335.381 121.076 362.079 121.076ZM351.369 69.0754C352.3 61.1589 356.491 57.4335 362.389 57.4335C369.219 57.4335 372.013 62.4007 372.168 69.0754H351.369Z" fill="#0C2F59"/>
<path d="M455.096 121.076C484.587 121.076 498.247 107.416 498.712 85.5293H466.892C466.272 92.0488 463.322 95.619 457.579 95.619C449.508 95.619 447.024 90.0309 447.024 78.8546V77.6128C447.024 66.9022 449.818 62.4007 457.114 62.4007C463.478 62.4007 464.409 66.2813 465.185 71.0933H498.247C497.005 44.2393 477.447 35.2362 456.182 35.2362C431.037 35.2362 410.858 49.9826 410.858 78.2337V79.4755C410.858 107.882 430.105 121.076 455.096 121.076Z" fill="#0C2F59"/>
<path d="M542.15 121.076C549.29 121.076 555.654 119.524 559.69 118.437V92.0488C557.206 92.9801 555.343 93.2906 552.86 93.2906C548.203 93.2906 545.565 91.2727 545.565 86.4607V60.8484H560V37.7198H545.565V21.5764H510.019V37.7198H501.172V60.8484H510.019V89.8756C510.019 112.228 521.816 121.076 542.15 121.076Z" fill="#0C2F59"/>
</svg>
