<svg width="80" height="529" viewBox="0 0 80 529" fill="none" xmlns="http://www.w3.org/2000/svg">
<g clip-path="url(#clip0)">
<rect width="80" height="529" fill="white"/>
<path d="M63.7669 529L63.7669 509.906L40.3746 509.906C35.9625 509.906 34.0479 508.405 34.0479 504.987C34.0479 501.985 35.9625 500.818 39.4589 500.818L63.7669 500.818L63.7669 481.724L34.6306 481.724C24.308 481.724 18.897 487.31 18.897 495.398C18.897 502.736 22.5598 507.405 27.2216 509.906L20.2289 509.906L20.2289 529L63.7669 529Z" fill="#0C2F59"/>
<path d="M47.6171 444.646C47.6171 450.732 43.2882 454.151 34.2976 454.151L33.6316 454.151C24.5577 454.151 20.5619 450.316 20.5619 444.729C20.5619 439.059 24.4745 435.057 33.6316 435.057L34.2976 435.057C42.9553 435.057 47.6171 438.809 47.6171 444.646ZM64.9324 445.229C64.9324 424.968 52.8616 411.878 33.7981 411.878L33.1321 411.878C13.7357 411.878 3.32986 426.219 3.32986 444.729C3.32986 462.739 14.9011 477.33 33.7149 477.33L34.3809 477.33C52.8616 477.33 64.9324 465.324 64.9324 445.229Z" fill="#0C2F59"/>
<path d="M64.9324 382.822C64.9324 365.646 55.2757 356.975 43.9542 356.975C30.1353 356.975 26.5557 366.396 25.1405 381.155C24.641 386.241 23.5588 387.825 21.5609 387.825C19.8127 387.825 18.7305 386.491 18.7305 383.823C18.7305 380.988 20.4787 379.404 23.0593 379.237L23.0593 358.726C9.40686 359.726 3.32986 368.147 3.32986 383.739C3.32986 399.581 11.6545 408.836 23.2258 408.836C35.8793 408.836 40.7908 402.75 42.7055 384.99C43.2882 380.071 44.2872 378.236 46.3684 378.236C48.1998 378.236 49.5317 379.32 49.5317 382.822C49.5317 387.325 47.2841 388.909 44.4537 389.076L44.4537 410.004C58.7721 409.837 64.9324 399.831 64.9324 382.822Z" fill="#0C2F59"/>
<path d="M64.9324 320.021C64.9324 307.181 60.6035 298.259 49.0323 298.259C39.6254 298.259 36.795 303.929 35.3798 317.603C35.1301 321.522 34.2976 323.44 32.5494 323.44C31.3007 323.44 30.3018 322.606 30.3018 320.272C30.3018 317.937 31.8834 316.936 33.7981 316.519L33.7981 299.427C22.7263 300.344 18.897 308.265 18.897 320.605C18.897 332.278 23.8085 341.283 34.2144 341.283C44.1207 341.283 46.7846 335.78 47.95 323.94C48.5328 318.354 49.3652 316.853 51.0302 316.853C52.2789 316.853 53.1946 317.937 53.1946 320.105C53.1946 322.94 51.7794 323.69 49.4485 324.107L49.4485 341.533C59.6878 341.283 64.9324 333.445 64.9324 320.021Z" fill="#0C2F59"/>
<path d="M64.9324 270.665C64.9324 255.741 58.7721 248.07 48.4495 246.819L48.4495 264.412C50.1977 264.829 52.2789 265.996 52.2789 269.998C52.2789 273.5 50.1977 276.002 45.8689 276.502L45.8689 246.986L41.7898 246.986C26.0562 246.986 18.897 257.658 18.897 270.499C18.897 284.256 27.4714 295.679 41.9563 295.679L42.6223 295.679C57.1904 295.679 64.9324 285.007 64.9324 270.665ZM37.0447 276.419C32.7992 275.918 30.8012 273.667 30.8012 270.499C30.8012 266.83 33.4651 265.329 37.0447 265.246L37.0447 276.419Z" fill="#0C2F59"/>
<path d="M64.9324 223.118C64.9324 219.282 64.0999 215.864 63.5172 213.696L49.3652 213.696C49.8647 215.03 50.0312 216.031 50.0312 217.365C50.0312 219.866 48.949 221.284 46.3684 221.284L32.6327 221.284L32.6327 213.529L20.2289 213.529L20.2289 221.284L11.5713 221.284L11.5713 240.377L20.2289 240.377L20.2289 245.13L32.6327 245.13L32.6327 240.377L48.1998 240.377C60.1873 240.377 64.9324 234.041 64.9324 223.118Z" fill="#0C2F59"/>
<path d="M64.9324 189.164C64.9324 185.328 64.0999 181.91 63.5172 179.742L49.3652 179.742C49.8647 181.076 50.0312 182.076 50.0312 183.411C50.0312 185.912 48.949 187.329 46.3684 187.329L32.6327 187.329L32.6327 179.575L20.2289 179.575L20.2289 187.329L11.5713 187.329L11.5713 206.423L20.2289 206.423L20.2289 211.176L32.6327 211.176L32.6327 206.423L48.1998 206.423C60.1873 206.423 64.9324 200.086 64.9324 189.164Z" fill="#0C2F59"/>
<path d="M63.7669 174.137L63.7669 155.126L20.2289 155.126L20.2289 174.137L63.7669 174.137ZM18.6472 164.631C18.6472 158.878 14.7346 154.543 9.3236 154.543C3.91257 154.543 -1.61785e-05 158.878 -1.59271e-05 164.631C-1.56719e-05 170.468 3.91257 174.72 9.3236 174.72C14.7346 174.72 18.6472 170.468 18.6472 164.631Z" fill="#0C2F59"/>
<path d="M63.7669 148.339L63.7669 129.245L40.3746 129.245C35.9625 129.245 34.0478 127.744 34.0478 124.325C34.0478 121.324 35.9625 120.156 39.4589 120.156L63.7669 120.156L63.7669 101.063L34.6306 101.063C24.308 101.063 18.897 106.649 18.897 114.737C18.897 122.074 22.5598 126.743 27.2216 129.245L20.2289 129.245L20.2289 148.339L63.7669 148.339Z" fill="#0C2F59"/>
<path d="M80 73.0727C80 55.7298 72.924 47.1417 59.771 47.1418L20.2289 47.1418L20.2289 66.2356L25.9729 66.2356C21.4776 68.6536 18.897 72.5724 18.897 79.2427C18.897 88.6645 26.1394 96.8357 39.5421 96.8357L40.2081 96.8357C53.7773 96.8357 60.5203 88.5812 60.5203 79.076C60.5203 72.489 57.4401 68.2367 53.3611 66.2356L60.1873 66.2356C63.6004 66.2356 67.18 67.4029 67.18 72.9893C67.18 77.325 64.6826 78.1588 62.7679 78.5757L62.7679 97.4194C74.0062 96.3354 80 88.8313 80 73.0727ZM47.5338 71.4885C47.5338 75.7408 44.6202 77.4918 40.4578 77.4918L39.7919 77.4918C35.3798 77.4918 32.7992 75.574 32.7991 71.5718C32.7991 67.653 35.7128 65.7353 39.7086 65.7353L40.3746 65.7353C44.6202 65.7353 47.5338 67.4863 47.5338 71.4885Z" fill="#0C2F59"/>
<path d="M64.9323 21.762C64.9323 8.92157 60.6035 1.95559e-05 49.0322 2.00617e-05C39.6254 2.04729e-05 36.795 5.66977 35.3798 19.3439C35.1301 23.2628 34.2976 25.1805 32.5494 25.1805C31.3007 25.1805 30.3017 24.3467 30.3017 22.0121C30.3017 19.6775 31.8834 18.6769 33.7981 18.26L33.7981 1.16732C22.7263 2.08449 18.897 10.0055 18.897 22.3456C18.897 34.0187 23.8085 43.0236 34.2143 43.0236C44.1207 43.0236 46.7846 37.5206 47.95 25.6808C48.5328 20.0944 49.3652 18.5936 51.0302 18.5936C52.2789 18.5936 53.1946 19.6775 53.1946 21.8453C53.1946 24.6802 51.7794 25.4306 49.4485 25.8475L49.4485 43.2737C59.6878 43.0236 64.9323 35.186 64.9323 21.762Z" fill="#0C2F59"/>
</g>
<defs>
<clipPath id="clip0">
<rect width="80" height="529" fill="white"/>
</clipPath>
</defs>
</svg>
