<svg width="600" height="149" viewBox="0 0 600 149" fill="none" xmlns="http://www.w3.org/2000/svg">
<g clip-path="url(#clip0)">
<rect width="600" height="149" fill="white"/>
<path d="M30.3137 146H72.9484L84.4872 99.0627L96.6126 146H138.074L170.734 43.7158H129.078L116.17 93.9778L105.218 43.7158H69.6237L56.5203 93.9778L46.155 43.7158H-0.195587L30.3137 146Z" fill="#0C2F59"/>
<path d="M203.141 148.738C220.352 148.738 229.152 140.915 232.673 134.461V146H275.699V80.2878C275.699 53.8855 257.706 40.5866 225.045 40.5866C192.972 40.5866 173.219 54.4722 171.85 79.701H213.311C213.702 76.5719 215.071 70.9003 222.307 70.9003C231.108 70.9003 231.499 77.1586 231.499 83.6125V84.1992H224.263C186.127 84.1992 168.33 93.3911 168.33 117.642C168.33 139.742 184.953 148.738 203.141 148.738ZM220.547 119.402C215.462 119.402 212.333 117.251 212.333 113.731C212.333 108.841 214.093 106.886 224.654 106.886H231.499V110.21C231.499 115.491 227.001 119.402 220.547 119.402Z" fill="#0C2F59"/>
<path d="M290.691 146H335.085V0.68988H290.691V146Z" fill="#0C2F59"/>
<path d="M351.998 146H396.393V0.68988H351.998V146Z" fill="#0C2F59"/>
<path d="M466.501 148.738C501.508 148.738 519.501 134.266 522.434 110.015H481.169C480.191 114.122 477.453 119.011 468.065 119.011C459.851 119.011 453.984 114.122 452.811 103.952H522.043V94.3689C522.043 57.4058 497.01 40.5866 466.892 40.5866C434.622 40.5866 407.829 60.7305 407.829 94.7601V96.3247C407.829 130.55 432.862 148.738 466.501 148.738ZM453.006 83.2213C454.18 73.2472 459.46 68.5534 466.892 68.5534C475.497 68.5534 479.017 74.8117 479.213 83.2213H453.006Z" fill="#0C2F59"/>
<path d="M578.027 148.738C587.024 148.738 595.042 146.782 600.127 145.413V112.166C596.998 113.339 594.651 113.731 591.522 113.731C585.655 113.731 582.33 111.188 582.33 105.125V72.856H600.518V43.7158H582.33V23.3763H537.544V43.7158H526.396V72.856H537.544V109.428C537.544 137.59 552.407 148.738 578.027 148.738Z" fill="#0C2F59"/>
</g>
<defs>
<clipPath id="clip0">
<rect width="600" height="149" fill="white"/>
</clipPath>
</defs>
</svg>
