<svg width="77" height="686" viewBox="0 0 77 686" fill="none" xmlns="http://www.w3.org/2000/svg">
<g clip-path="url(#clip0)">
<rect width="77" height="686" fill="white"/>
<path d="M75.576 686L75.576 662.806L46.9934 662.806C41.6024 662.806 39.2629 660.983 39.2629 656.83C39.2629 653.184 41.6024 651.766 45.8745 651.766L75.576 651.766L75.576 628.572L39.9749 628.572C27.362 628.572 20.7504 635.358 20.7504 645.182C20.7504 654.095 25.2259 659.767 30.9221 662.806L22.3778 662.806L22.3778 686L75.576 686Z" fill="#0C2F59"/>
<path d="M55.8428 583.531C55.8428 590.924 50.5535 595.077 39.5681 595.077L38.7543 595.077C27.6671 595.077 22.7847 590.418 22.7847 583.632C22.7847 576.745 27.5654 571.883 38.7543 571.883L39.5681 571.883C50.1467 571.883 55.8428 576.441 55.8428 583.531ZM77 584.24C77 559.628 62.251 543.726 38.9578 543.726L38.144 543.726C14.4439 543.726 1.72922 561.147 1.72922 583.632C1.72922 605.509 15.8679 623.234 38.856 623.234L39.6698 623.234C62.251 623.234 77 608.649 77 584.24Z" fill="#0C2F59"/>
<path d="M77 508.43C77 487.566 65.2008 477.032 51.3673 477.032C34.4822 477.032 30.1083 488.477 28.3792 506.405C27.7688 512.583 26.4465 514.508 24.0053 514.508C21.8692 514.508 20.5469 512.887 20.5469 509.646C20.5469 506.202 22.683 504.278 25.8362 504.075L25.8362 479.159C9.15458 480.375 1.72922 490.604 1.72922 509.545C1.72922 528.789 11.9009 540.031 26.0397 540.031C41.5007 540.031 47.502 532.637 49.8415 511.064C50.5535 505.088 51.7741 502.86 54.3171 502.86C56.5548 502.86 58.1823 504.176 58.1823 508.43C58.1823 513.9 55.436 515.824 51.9776 516.027L51.9776 541.449C69.4729 541.247 77 529.093 77 508.43Z" fill="#0C2F59"/>
<path d="M75.576 443.487L75.576 421.407L51.1638 415.431L75.576 409.152L75.576 387.679L22.3778 370.765L22.3778 392.338L48.5192 399.023L22.3778 404.695L22.3778 423.129L48.5192 429.915L22.3778 435.283L22.3778 459.288L75.576 443.487Z" fill="#0C2F59"/>
<path d="M77 342.119C77 323.989 69.4729 314.671 56.86 313.152L56.86 334.523C58.9961 335.029 61.539 336.447 61.539 341.309C61.539 345.563 58.9961 348.602 53.7068 349.209L53.7068 313.354L48.7226 313.354C29.498 313.354 20.7503 326.319 20.7503 341.917C20.7503 358.629 31.2272 372.505 48.926 372.505L49.7398 372.505C67.5403 372.505 77 359.54 77 342.119ZM42.9247 349.108C37.7371 348.5 35.2959 345.766 35.2959 341.917C35.2959 337.46 38.5509 335.637 42.9247 335.536L42.9247 349.108Z" fill="#0C2F59"/>
<path d="M75.576 307.454L75.576 284.462L1.29658e-05 284.462L1.39708e-05 307.454L75.576 307.454Z" fill="#0C2F59"/>
<path d="M77 249.673C77 230.429 68.0489 221.516 53.7068 221.212L53.7068 241.976C57.9789 242.381 60.3184 244.305 60.3184 248.053C60.3184 253.319 56.6566 254.94 49.3329 254.94L48.5192 254.94C41.5007 254.94 38.5509 253.117 38.5509 248.357C38.5509 244.204 41.0938 243.596 44.247 243.09L44.247 221.516C26.6499 222.326 20.7503 235.088 20.7503 248.964C20.7503 265.372 30.4135 278.539 48.926 278.539L49.7398 278.539C68.354 278.539 77 265.98 77 249.673Z" fill="#0C2F59"/>
<path d="M60.1149 188.209C60.1149 193.273 56.5548 195.299 48.926 195.299L48.1123 195.299C40.8904 195.299 37.7371 192.97 37.7371 188.209C37.7371 183.246 41.1955 181.322 48.4174 181.322L49.2312 181.322C56.5548 181.322 60.1149 183.348 60.1149 188.209ZM77 188.31C77 171.396 66.93 157.824 49.0278 157.824L48.214 157.824C30.8204 157.824 20.7503 171.193 20.7503 188.209C20.7503 205.326 31.2272 218.797 48.926 218.797L49.7398 218.797C67.7437 218.797 77 205.225 77 188.31Z" fill="#0C2F59"/>
<path d="M75.576 152.574L75.576 129.379L45.6711 129.379C41.8058 129.379 39.3646 128.164 39.3646 124.315C39.3646 121.884 41.3989 119.859 44.7556 119.859L75.576 119.859L75.576 96.9683L45.6711 96.9683C41.8058 96.9683 39.3646 95.7529 39.3646 91.9041C39.3646 89.3719 41.3989 87.4475 44.7556 87.4475L75.576 87.4475L75.576 64.3546L39.8732 64.3546C27.6671 64.3546 20.7503 71.1407 20.7503 81.3704C20.7503 88.0552 23.1915 93.6259 28.9894 98.5888C23.8019 101.02 20.7503 105.274 20.7503 112.465C20.7503 120.871 25.4293 126.341 30.5152 129.379L22.3778 129.379L22.3778 152.574L75.576 152.574Z" fill="#0C2F59"/>
<path d="M77 28.9675C77 10.8375 69.4729 1.51927 56.86 4.79338e-06L56.86 21.3711C58.996 21.8775 61.539 23.2955 61.539 28.1572C61.539 32.4111 58.996 35.4496 53.7067 36.0574L53.7067 0.202592L48.7226 0.202592C29.498 0.202593 20.7503 13.167 20.7503 28.7649C20.7503 45.4769 31.2272 59.3529 48.926 59.3529L49.7398 59.3529C67.5403 59.3529 77 46.3884 77 28.9675ZM42.9247 35.9561C37.7371 35.3484 35.2959 32.6137 35.2959 28.7649C35.2959 24.3083 38.5509 22.4852 42.9247 22.3839L42.9247 35.9561Z" fill="#0C2F59"/>
</g>
<defs>
<clipPath id="clip0">
<rect width="77" height="686" fill="white"/>
</clipPath>
</defs>
</svg>
