<?xml version="1.0" encoding="utf-8"?>
<!-- Generator: Adobe Illustrator 24.1.3, SVG Export Plug-In . SVG Version: 6.00 Build 0)  -->
<svg version="1.1" id="Layer_1" xmlns="http://www.w3.org/2000/svg" xmlns:xlink="http://www.w3.org/1999/xlink" x="0px" y="0px"
	 viewBox="0 0 80 354.7" style="enable-background:new 0 0 80 354.7;" xml:space="preserve">
<g>
	<path d="M44.3,349v-19.4c2.6-0.2,4.7-1.6,4.7-5.8c0-3.2-1.2-4.3-2.9-4.3c-1.9,0-2.9,1.7-3.4,6.3c-1.8,16.5-6.3,22.1-18.1,22.1
		c-10.8,0-18.5-8.6-18.5-23.3c0-14.5,5.6-22.3,18.3-23.2v19c-2.4,0.2-4,1.6-4,4.3c0,2.5,1,3.7,2.6,3.7c1.9,0,2.9-1.5,3.3-6.2
		c1.3-13.7,4.6-22.4,17.5-22.4c10.5,0,19.5,8,19.5,24C63.4,339.5,57.6,348.8,44.3,349z"/>
	<path d="M11.7,295.8c-5,0-8.7-3.9-8.7-9.4c0-5.3,3.6-9.4,8.7-9.4s8.7,4,8.7,9.4C20.3,291.8,16.7,295.8,11.7,295.8z M21.8,295.2
		v-17.6h40.5v17.6H21.8z"/>
	<path d="M61.3,273.4v-17.5c1.8-0.4,4.1-1.2,4.1-5.2c0-5.2-3.3-6.3-6.5-6.3h-6.3c3.8,1.9,6.7,5.8,6.7,11.9c0,8.8-6.3,16.5-18.9,16.5
		h-0.6c-12.5,0-19.2-7.6-19.2-16.3c0-6.2,2.4-9.8,6.6-12.1h-5.3v-17.7h36.8c12.2,0,18.8,8,18.8,24.1
		C77.4,265.4,71.8,272.4,61.3,273.4z M40.5,244h-0.6c-3.7,0-6.4,1.8-6.4,5.4c0,3.7,2.4,5.5,6.5,5.5h0.6c3.9,0,6.6-1.6,6.6-5.6
		C47.2,245.6,44.5,244,40.5,244z"/>
	<path d="M21.8,221v-17.7h6.5c-4.3-2.3-7.7-6.7-7.7-13.5c0-7.5,5-12.7,14.6-12.7h27.1v17.7H39.7c-3.3,0-5,1.1-5,3.9
		c0,3.2,1.8,4.6,5.9,4.6h21.7V221H21.8z"/>
	<path d="M11.7,159.1c-5,0-8.7-3.9-8.7-9.4c0-5.3,3.6-9.4,8.7-9.4s8.7,4,8.7,9.4C20.3,155.1,16.7,159.1,11.7,159.1z M21.8,158.5
		v-17.6h40.5v17.6H21.8z"/>
	<path d="M21.8,134.6v-17.7h6.5c-4.3-2.3-7.7-6.7-7.7-13.5c0-7.5,5-12.7,14.6-12.7h27.1v17.7H39.7c-3.3,0-5,1.1-5,3.9
		c0,3.2,1.8,4.6,5.9,4.6h21.7v17.7H21.8z"/>
	<path d="M47.8,83.1H33.3v4.4H21.8v-4.4h-8V65.4h8v-7.2h11.5v7.2h12.8c2.4,0,3.4-1.3,3.4-3.6c0-1.2-0.2-2.2-0.6-3.4H62
		c0.5,2,1.3,5.2,1.3,8.7C63.4,77.2,58.9,83.1,47.8,83.1z"/>
	<path d="M42.6,55.4H42c-13.5,0-21.4-10.3-21.4-23.4c0-13,7.7-23.2,20.9-23.2h0.6c13.6,0,21.3,10.4,21.3,23.3S56.3,55.4,42.6,55.4z
		 M42.2,26.7h-0.6c-5.5,0-8.1,1.5-8.1,5.3c0,3.6,2.4,5.4,7.9,5.4H42c5.8,0,8.5-1.5,8.5-5.4C50.5,28.3,47.8,26.7,42.2,26.7z"/>
</g>
</svg>
