<?xml version="1.0" encoding="utf-8"?>
<!-- Generator: Adobe Illustrator 24.1.3, SVG Export Plug-In . SVG Version: 6.00 Build 0)  -->
<svg version="1.1" id="Layer_1" xmlns="http://www.w3.org/2000/svg" xmlns:xlink="http://www.w3.org/1999/xlink" x="0px" y="0px"
	 viewBox="0 0 80 622.8" style="enable-background:new 0 0 80 622.8;" xml:space="preserve">
<g>
	<path d="M24.6,605.4V618H9.7v-44.7h14.9v12.6h37.2v19.5H24.6z"/>
	<path d="M9.7,567.8v-21.6l24.2-11.3H9.7v-17.2h52.1v18.4l-28.4,14.4h28.4v17.3H9.7z"/>
	<path d="M59.8,513l-36.1-18.4V510H9.7v-41.9h2l35.8,18.4v-16.9h14.3V513H59.8z"/>
	<path d="M14.2,453.1c-4.7,0-8.2-3.7-8.2-8.8c0-5,3.4-8.8,8.2-8.8c4.7,0,8.2,3.8,8.2,8.8C22.3,449.4,18.9,453.1,14.2,453.1z
		 M23.7,452.6V436h38.1v16.6H23.7z"/>
	<path d="M23.7,430.1v-16.7h6.1c-4.1-2.2-7.3-6.3-7.3-12.7c0-7.1,4.7-11.9,13.8-11.9h25.5v16.7H40.5c-3.1,0-4.7,1-4.7,3.6
		c0,3,1.7,4.3,5.5,4.3h20.5v16.7H23.7z"/>
	<path d="M49.3,385.6v-15.2c2-0.4,3.3-1,3.3-3.5c0-1.9-0.8-2.8-1.9-2.8c-1.5,0-2.2,1.3-2.7,6.2c-1,10.3-3.4,15.2-12,15.2
		c-9.1,0-13.4-7.9-13.4-18.1c0-10.8,3.4-17.7,13-18.5v14.9c-1.7,0.4-3.1,1.2-3.1,3.3c0,2,0.9,2.8,2,2.8c1.5,0,2.3-1.7,2.5-5.1
		c1.2-11.9,3.7-16.9,11.9-16.9c10.1,0,13.9,7.8,13.9,19C62.8,378.5,58.2,385.4,49.3,385.6z"/>
	<path d="M14.2,344.3c-4.7,0-8.2-3.7-8.2-8.8c0-5,3.4-8.8,8.2-8.8c4.7,0,8.2,3.8,8.2,8.8C22.3,340.5,18.9,344.3,14.2,344.3z
		 M23.7,343.8v-16.6h38.1v16.6H23.7z"/>
	<path d="M60.9,323.2v-16.5c1.7-0.4,3.9-1.1,3.9-4.9c0-4.9-3.1-5.9-6.1-5.9h-6c3.6,1.7,6.3,5.5,6.3,11.2c0,8.3-5.9,15.5-17.8,15.5
		h-0.6c-11.7,0-18.1-7.1-18.1-15.4c0-5.8,2.3-9.3,6.2-11.4h-5v-16.7h34.6c11.5,0,17.7,7.5,17.7,22.7C76,315.7,70.8,322.2,60.9,323.2
		z M41.3,295.5h-0.6c-3.5,0-6,1.7-6,5.1c0,3.5,2.3,5.2,6.1,5.2h0.6c3.6,0,6.2-1.5,6.2-5.2C47.6,297,45,295.5,41.3,295.5z"/>
	<path d="M7.7,273.9v-16.7h22.1c-4.1-2.2-7.3-6.3-7.3-12.7c0-7.1,4.7-11.9,13.8-11.9h25.5v16.7H40.5c-3.1,0-4.7,1-4.7,3.6
		c0,3,1.7,4.3,5.5,4.3h20.5v16.7H7.7z"/>
	<path d="M48.2,225.4H34.6v4.2H23.7v-4.2h-7.6v-16.7h7.6v-6.8h10.9v6.8h12c2.3,0,3.2-1.2,3.2-3.4c0-1.2-0.1-2-0.6-3.2h12.4
		c0.5,1.9,1.2,4.9,1.2,8.2C62.8,219.8,58.7,225.4,48.2,225.4z"/>
	<path d="M49.3,199v-15.2c2-0.4,3.3-1,3.3-3.5c0-1.9-0.8-2.8-1.9-2.8c-1.5,0-2.2,1.3-2.7,6.2c-1,10.3-3.4,15.2-12,15.2
		c-9.1,0-13.4-7.9-13.4-18.1c0-10.8,3.4-17.7,13-18.5v14.9c-1.7,0.4-3.1,1.2-3.1,3.3c0,2,0.9,2.8,2,2.8c1.5,0,2.3-1.7,2.5-5.1
		c1.2-11.9,3.7-16.9,11.9-16.9c10.1,0,13.9,7.8,13.9,19C62.8,191.9,58.2,198.8,49.3,199z"/>
	<path d="M48.2,143.9H34.6v4.2H23.7v-4.2h-7.6v-16.7h7.6v-6.8h10.9v6.8h12c2.3,0,3.2-1.2,3.2-3.4c0-1.2-0.1-2-0.6-3.2h12.4
		c0.5,1.9,1.2,4.9,1.2,8.2C62.8,138.4,58.7,143.9,48.2,143.9z"/>
	<path d="M43.3,117.8h-0.6c-12.7,0-20.2-9.7-20.2-22c0-12.2,7.2-21.9,19.7-21.9h0.6c12.8,0,20,9.8,20,21.9S56.2,117.8,43.3,117.8z
		 M42.9,90.8h-0.6c-5.2,0-7.6,1.4-7.6,5c0,3.4,2.3,5.1,7.4,5.1h0.6c5.5,0,8-1.5,8-5.1C50.7,92.3,48.2,90.8,42.9,90.8z"/>
	<path d="M43.3,71.7h-0.6c-12.7,0-20.2-9.7-20.2-22c0-12.2,7.2-21.9,19.7-21.9h0.6c12.8,0,20,9.8,20,21.9S56.2,71.7,43.3,71.7z
		 M42.9,44.8h-0.6c-5.2,0-7.6,1.4-7.6,5c0,3.4,2.3,5.1,7.4,5.1h0.6c5.5,0,8-1.5,8-5.1C50.7,46.2,48.2,44.8,42.9,44.8z"/>
	<path d="M7.7,23.6V7.1h54.1v16.5H7.7z"/>
</g>
</svg>
